<?xml version="1.0" encoding="UTF-8" standalone="no"?>
<!DOCTYPE svg PUBLIC "-//W3C//DTD SVG 1.1//EN" "http://www.w3.org/Graphics/SVG/1.1/DTD/svg11.dtd">
<svg width="100%" height="100%" viewBox="0 0 1350 408" version="1.1" xmlns="http://www.w3.org/2000/svg" xmlns:xlink="http://www.w3.org/1999/xlink" xml:space="preserve" xmlns:serif="http://www.serif.com/" style="fill-rule:evenodd;clip-rule:evenodd;stroke-linecap:round;stroke-linejoin:round;">
    <g id="White-Text" serif:id="White Text" transform="matrix(1.50928,0,0,1.50938,-442.068,23.8714)">
        <path d="M804.773,57.879C808.254,58.534 811.091,59.821 813.286,61.738C815.48,63.655 816.577,66.53 816.577,70.364C816.577,75.963 814.572,79.91 810.562,82.206C806.551,84.501 800.939,85.648 793.726,85.648L776.852,85.648L776.852,33.211L791.683,33.211C799.048,33.211 804.672,34.258 808.557,36.352C812.441,38.445 814.383,41.863 814.383,46.604C814.383,49.682 813.462,52.166 811.621,54.058C809.78,55.949 807.497,57.223 804.773,57.879ZM789.262,41.989L789.262,54.171L793.877,54.171C799.123,54.171 801.747,52.052 801.747,47.815C801.747,45.696 801.04,44.196 799.628,43.313C798.215,42.43 795.971,41.989 792.894,41.989L789.262,41.989ZM793.802,76.644C797.08,76.644 799.565,76.152 801.255,75.169C802.945,74.185 803.79,72.356 803.79,69.683C803.79,64.84 800.763,62.419 794.71,62.419L789.262,62.419L789.262,76.644L793.802,76.644Z" style="fill:white;fill-rule:nonzero;"/>
        <path d="M807.231,57.787C809.795,58.545 811.958,59.698 813.722,61.239C816.046,63.269 817.24,66.303 817.24,70.364C817.24,76.243 815.102,80.371 810.891,82.781C806.801,85.121 801.082,86.311 793.726,86.311L776.852,86.311C776.486,86.311 776.19,86.014 776.19,85.648L776.19,33.211C776.19,32.846 776.486,32.549 776.852,32.549L791.683,32.549C799.187,32.549 804.913,33.635 808.871,35.768C812.979,37.982 815.045,41.59 815.045,46.604C815.045,49.875 814.053,52.509 812.096,54.52C810.712,55.941 809.091,57.031 807.231,57.787ZM804.773,57.879C807.497,57.223 809.78,55.949 811.621,54.058C813.462,52.166 814.383,49.682 814.383,46.604C814.383,41.863 812.441,38.445 808.557,36.352C804.672,34.258 799.048,33.211 791.683,33.211L776.852,33.211L776.852,85.648L793.726,85.648C800.939,85.648 806.551,84.501 810.562,82.206C814.572,79.91 816.577,75.963 816.577,70.364C816.577,66.53 815.48,63.655 813.286,61.738C811.091,59.821 808.254,58.534 804.773,57.879ZM793.802,76.644L789.262,76.644L789.262,62.419L794.71,62.419C800.763,62.419 803.79,64.84 803.79,69.683C803.79,72.356 802.945,74.185 801.255,75.169C799.565,76.152 797.08,76.644 793.802,76.644ZM793.802,75.981C796.932,75.981 799.308,75.535 800.921,74.596C802.427,73.719 803.127,72.065 803.127,69.683C803.127,67.925 802.707,66.513 801.828,65.458C800.476,63.835 798.09,63.081 794.71,63.081L789.924,63.081L789.924,75.981L793.802,75.981ZM789.262,41.989L792.894,41.989C795.971,41.989 798.215,42.43 799.628,43.313C801.04,44.196 801.747,45.696 801.747,47.815C801.747,52.052 799.123,54.171 793.877,54.171L789.262,54.171L789.262,41.989ZM789.924,42.651L789.924,53.509L793.877,53.509C796.772,53.509 798.818,52.864 799.976,51.461C800.728,50.551 801.084,49.332 801.084,47.815C801.084,45.969 800.507,44.644 799.277,43.875C797.939,43.039 795.808,42.651 792.894,42.651L789.924,42.651Z"/>
        <path d="M859.858,64.764C859.858,66.429 859.783,67.867 859.631,69.077L834.737,69.077C835.141,72.457 836.099,74.828 837.613,76.19C839.126,77.552 841.219,78.233 843.893,78.233C845.507,78.233 847.071,77.943 848.584,77.363C850.097,76.783 851.737,75.887 853.502,74.677L858.421,81.335C853.729,85.068 848.508,86.935 842.758,86.935C836.251,86.935 831.257,85.018 827.776,81.184C824.295,77.35 822.555,72.205 822.555,65.748C822.555,61.662 823.286,57.992 824.749,54.739C826.212,51.485 828.356,48.912 831.181,47.021C834.006,45.129 837.386,44.183 841.32,44.183C847.121,44.183 851.661,45.999 854.94,49.631C858.219,53.263 859.858,58.307 859.858,64.764ZM848.13,61.359C848.029,55.205 845.86,52.128 841.623,52.128C839.555,52.128 837.953,52.885 836.818,54.398C835.683,55.911 834.989,58.408 834.737,61.889L848.13,61.889L848.13,61.359Z" style="fill:white;fill-rule:nonzero;"/>
        <path d="M860.521,64.764C860.521,66.461 860.443,67.926 860.289,69.16C860.247,69.491 859.966,69.74 859.631,69.74L835.495,69.74C835.915,72.525 836.747,74.52 838.056,75.698C839.46,76.962 841.411,77.57 843.893,77.57C845.425,77.57 846.91,77.295 848.347,76.744C849.818,76.18 851.411,75.307 853.128,74.13C853.422,73.928 853.823,73.996 854.035,74.283L858.954,80.942C859.166,81.229 859.112,81.632 858.833,81.854C854.019,85.685 848.66,87.597 842.758,87.597C836.033,87.597 830.882,85.591 827.285,81.629C823.703,77.683 821.892,72.394 821.892,65.748C821.892,61.561 822.646,57.801 824.145,54.467C825.661,51.095 827.885,48.43 830.812,46.47C833.74,44.509 837.242,43.521 841.32,43.521C847.334,43.521 852.033,45.422 855.432,49.187C858.809,52.928 860.521,58.115 860.521,64.764ZM859.858,64.764C859.858,58.307 858.219,53.263 854.94,49.631C851.661,45.999 847.121,44.183 841.32,44.183C837.386,44.183 834.006,45.129 831.181,47.021C828.356,48.912 826.212,51.485 824.749,54.739C823.286,57.992 822.555,61.662 822.555,65.748C822.555,72.205 824.295,77.35 827.776,81.184C831.257,85.018 836.251,86.935 842.758,86.935C848.508,86.935 853.729,85.068 858.421,81.335L853.502,74.677C851.737,75.887 850.097,76.783 848.584,77.363C847.071,77.943 845.507,78.233 843.893,78.233C841.219,78.233 839.126,77.552 837.613,76.19C836.099,74.828 835.141,72.457 834.737,69.077L859.631,69.077C859.783,67.867 859.858,66.429 859.858,64.764ZM848.13,61.359L848.13,61.889L834.737,61.889C834.989,58.408 835.683,55.911 836.818,54.398C837.953,52.885 839.555,52.128 841.623,52.128C845.86,52.128 848.029,55.205 848.13,61.359ZM847.465,61.227C847.343,55.664 845.485,52.791 841.623,52.791C839.785,52.791 838.357,53.451 837.348,54.796C836.346,56.131 835.732,58.28 835.457,61.227L847.465,61.227Z"/>
        <path d="M893.303,83.757C891.84,84.766 890.138,85.547 888.196,86.102C886.253,86.657 884.324,86.935 882.407,86.935C873.63,86.884 869.241,82.042 869.241,72.407L869.241,53.793L863.566,53.793L863.566,45.469L869.241,45.469L869.241,36.768L881.196,35.406L881.196,45.469L890.428,45.469L889.141,53.793L881.196,53.793L881.196,72.255C881.196,74.122 881.499,75.459 882.104,76.266C882.71,77.073 883.668,77.476 884.98,77.476C886.342,77.476 887.779,77.048 889.293,76.19L893.303,83.757Z" style="fill:white;fill-rule:nonzero;"/>
        <path d="M893.679,84.302C892.16,85.349 890.394,86.163 888.378,86.739C886.374,87.312 884.384,87.597 882.407,87.597L882.403,87.597C877.793,87.571 874.347,86.253 872.042,83.71C869.755,81.187 868.579,77.426 868.579,72.407L868.579,54.455L863.566,54.455C863.2,54.455 862.904,54.159 862.904,53.793L862.904,45.469C862.904,45.103 863.2,44.807 863.566,44.807L868.579,44.807L868.579,36.768C868.579,36.431 868.831,36.148 869.166,36.109L881.121,34.747C881.309,34.726 881.497,34.786 881.638,34.911C881.778,35.037 881.859,35.217 881.859,35.406L881.859,44.807L890.428,44.807C890.621,44.807 890.805,44.891 890.931,45.038C891.057,45.185 891.112,45.379 891.083,45.571L889.796,53.894C889.746,54.217 889.468,54.455 889.141,54.455L881.859,54.455L881.859,72.255C881.859,73.933 882.091,75.143 882.634,75.868C883.125,76.522 883.917,76.814 884.98,76.814C886.24,76.814 887.566,76.407 888.966,75.614C889.122,75.525 889.307,75.504 889.478,75.554C889.65,75.604 889.794,75.722 889.878,75.88L893.889,83.446C894.046,83.743 893.956,84.111 893.679,84.302ZM893.303,83.757L889.293,76.19C887.779,77.048 886.342,77.476 884.98,77.476C883.668,77.476 882.71,77.073 882.104,76.266C881.499,75.459 881.196,74.122 881.196,72.255L881.196,53.793L889.141,53.793L890.428,45.469L881.196,45.469L881.196,35.406L869.241,36.768L869.241,45.469L863.566,45.469L863.566,53.793L869.241,53.793L869.241,72.407C869.241,82.042 873.63,86.884 882.407,86.935C884.324,86.935 886.253,86.657 888.196,86.102C890.138,85.547 891.84,84.766 893.303,83.757Z"/>
        <path d="M924.024,83.757C922.561,84.766 920.858,85.547 918.916,86.102C916.974,86.657 915.045,86.935 913.128,86.935C904.35,86.884 899.962,82.042 899.962,72.407L899.962,53.793L894.287,53.793L894.287,45.469L899.962,45.469L899.962,36.768L911.917,35.406L911.917,45.469L921.148,45.469L919.862,53.793L911.917,53.793L911.917,72.255C911.917,74.122 912.22,75.459 912.825,76.266C913.43,77.073 914.389,77.476 915.7,77.476C917.062,77.476 918.5,77.048 920.013,76.19L924.024,83.757Z" style="fill:white;fill-rule:nonzero;"/>
        <path d="M924.4,84.302C922.881,85.349 921.115,86.163 919.098,86.739C917.095,87.312 915.105,87.597 913.128,87.597L913.124,87.597C908.513,87.571 905.068,86.253 902.762,83.71C900.476,81.187 899.299,77.426 899.299,72.407L899.299,54.455L894.287,54.455C893.921,54.455 893.624,54.159 893.624,53.793L893.624,45.469C893.624,45.103 893.921,44.807 894.287,44.807L899.299,44.807L899.299,36.768C899.299,36.431 899.552,36.148 899.887,36.109L911.842,34.747C912.03,34.726 912.217,34.786 912.358,34.911C912.499,35.037 912.58,35.217 912.58,35.406L912.58,44.807L921.148,44.807C921.342,44.807 921.525,44.891 921.651,45.038C921.777,45.185 921.833,45.379 921.803,45.571L920.517,53.894C920.467,54.217 920.189,54.455 919.862,54.455L912.58,54.455L912.58,72.255C912.58,73.933 912.811,75.143 913.355,75.868C913.846,76.522 914.637,76.814 915.7,76.814C916.96,76.814 918.287,76.407 919.687,75.614C919.842,75.525 920.027,75.504 920.199,75.554C920.371,75.604 920.515,75.722 920.599,75.88L924.609,83.446C924.767,83.743 924.677,84.111 924.4,84.302ZM924.024,83.757L920.013,76.19C918.5,77.048 917.062,77.476 915.7,77.476C914.389,77.476 913.43,77.073 912.825,76.266C912.22,75.459 911.917,74.122 911.917,72.255L911.917,53.793L919.862,53.793L921.148,45.469L911.917,45.469L911.917,35.406L899.962,36.768L899.962,45.469L894.287,45.469L894.287,53.793L899.962,53.793L899.962,72.407C899.962,82.042 904.35,86.884 913.128,86.935C915.045,86.935 916.974,86.657 918.916,86.102C920.858,85.547 922.561,84.766 924.024,83.757Z"/>
        <path d="M963.219,64.764C963.219,66.429 963.143,67.867 962.992,69.077L938.098,69.077C938.501,72.457 939.46,74.828 940.973,76.19C942.486,77.552 944.58,78.233 947.253,78.233C948.868,78.233 950.431,77.943 951.945,77.363C953.458,76.783 955.097,75.887 956.863,74.677L961.781,81.335C957.09,85.068 951.869,86.935 946.118,86.935C939.611,86.935 934.617,85.018 931.136,81.184C927.656,77.35 925.915,72.205 925.915,65.748C925.915,61.662 926.647,57.992 928.11,54.739C929.573,51.485 931.716,48.912 934.541,47.021C937.366,45.129 940.746,44.183 944.681,44.183C950.482,44.183 955.022,45.999 958.301,49.631C961.58,53.263 963.219,58.307 963.219,64.764ZM951.491,61.359C951.39,55.205 949.221,52.128 944.983,52.128C942.915,52.128 941.313,52.885 940.178,54.398C939.043,55.911 938.35,58.408 938.098,61.889L951.491,61.889L951.491,61.359Z" style="fill:white;fill-rule:nonzero;"/>
        <path d="M963.882,64.764C963.882,66.461 963.804,67.926 963.649,69.16C963.608,69.491 963.326,69.74 962.992,69.74L938.855,69.74C939.275,72.525 940.108,74.52 941.416,75.698C942.821,76.962 944.772,77.57 947.253,77.57C948.786,77.57 950.271,77.295 951.707,76.744C953.179,76.18 954.772,75.307 956.488,74.13C956.783,73.928 957.184,73.996 957.396,74.283L962.314,80.942C962.526,81.229 962.473,81.632 962.194,81.854C957.379,85.685 952.02,87.597 946.118,87.597C939.394,87.597 934.243,85.591 930.646,81.629C927.063,77.683 925.253,72.394 925.253,65.748C925.253,61.561 926.006,57.801 927.505,54.467C929.021,51.095 931.245,48.43 934.173,46.47C937.101,44.509 940.602,43.521 944.681,43.521C950.694,43.521 955.393,45.422 958.792,49.187C962.169,52.928 963.882,58.115 963.882,64.764ZM963.219,64.764C963.219,58.307 961.58,53.263 958.301,49.631C955.022,45.999 950.482,44.183 944.681,44.183C940.746,44.183 937.366,45.129 934.541,47.021C931.716,48.912 929.573,51.485 928.11,54.739C926.647,57.992 925.915,61.662 925.915,65.748C925.915,72.205 927.656,77.35 931.136,81.184C934.617,85.018 939.611,86.935 946.118,86.935C951.869,86.935 957.09,85.068 961.781,81.335L956.863,74.677C955.097,75.887 953.458,76.783 951.945,77.363C950.431,77.943 948.868,78.233 947.253,78.233C944.58,78.233 942.486,77.552 940.973,76.19C939.46,74.828 938.501,72.457 938.098,69.077L962.992,69.077C963.143,67.867 963.219,66.429 963.219,64.764ZM951.491,61.359L951.491,61.889L938.098,61.889C938.35,58.408 939.043,55.911 940.178,54.398C941.313,52.885 942.915,52.128 944.983,52.128C949.221,52.128 951.39,55.205 951.491,61.359ZM950.825,61.227C950.704,55.664 948.845,52.791 944.983,52.791C943.146,52.791 941.717,53.451 940.709,54.796C939.707,56.131 939.093,58.28 938.817,61.227L950.825,61.227Z"/>
        <path d="M993.259,44.334C994.721,44.334 996.058,44.511 997.269,44.864L995.377,56.441C993.864,56.088 992.653,55.911 991.745,55.911C989.374,55.911 987.571,56.731 986.335,58.371C985.099,60.01 984.128,62.469 983.422,65.748L983.422,85.648L971.467,85.648L971.467,45.469L981.909,45.469L982.892,53.263C983.8,50.489 985.175,48.307 987.016,46.718C988.857,45.129 990.938,44.334 993.259,44.334Z" style="fill:white;fill-rule:nonzero;"/>
        <path d="M993.259,43.672C994.789,43.672 996.188,43.859 997.454,44.228C997.776,44.322 997.977,44.641 997.923,44.971L996.031,56.548C996.002,56.729 995.898,56.89 995.746,56.992C995.593,57.094 995.405,57.128 995.227,57.086C993.776,56.748 992.616,56.574 991.745,56.574C989.61,56.574 987.977,57.293 986.864,58.769C985.681,60.338 984.764,62.692 984.084,65.819L984.084,85.648C984.084,86.014 983.788,86.311 983.422,86.311L971.467,86.311C971.101,86.311 970.804,86.014 970.804,85.648L970.804,45.469C970.804,45.103 971.101,44.807 971.467,44.807L981.909,44.807C982.242,44.807 982.524,45.055 982.566,45.386L983.231,50.654C984.106,48.866 985.225,47.388 986.583,46.216C988.552,44.518 990.778,43.672 993.259,43.672ZM993.259,44.334C990.938,44.334 988.857,45.129 987.016,46.718C985.175,48.307 983.8,50.489 982.892,53.263L981.909,45.469L971.467,45.469L971.467,85.648L983.422,85.648L983.422,65.748C984.128,62.469 985.099,60.01 986.335,58.371C987.571,56.731 989.374,55.911 991.745,55.911C992.653,55.911 993.864,56.088 995.377,56.441L997.269,44.864C996.058,44.511 994.721,44.334 993.259,44.334Z"/>
        <path d="M810.713,103.736L809.502,113.27L796.563,113.27L796.563,156.172L784.154,156.172L784.154,113.27L770.61,113.27L770.61,103.736L810.713,103.736Z" style="fill:white;fill-rule:nonzero;"/>
        <path d="M811.37,103.819L810.16,113.353C810.118,113.684 809.836,113.932 809.502,113.932L797.226,113.932L797.226,156.172C797.226,156.538 796.929,156.835 796.563,156.835L784.154,156.835C783.788,156.835 783.492,156.538 783.492,156.172L783.492,113.932L770.61,113.932C770.244,113.932 769.947,113.635 769.947,113.27L769.947,103.736C769.947,103.37 770.244,103.073 770.61,103.073L810.713,103.073C810.903,103.073 811.084,103.155 811.21,103.298C811.336,103.44 811.394,103.63 811.37,103.819ZM810.713,103.736L770.61,103.736L770.61,113.27L784.154,113.27L784.154,156.172L796.563,156.172L796.563,113.27L809.502,113.27L810.713,103.736Z"/>
        <path d="M836.515,114.859C837.978,114.859 839.315,115.035 840.526,115.388L838.634,126.965C837.121,126.612 835.91,126.436 835.002,126.436C832.631,126.436 830.828,127.255 829.592,128.895C828.356,130.534 827.385,132.993 826.679,136.272L826.679,156.172L814.723,156.172L814.723,115.994L825.165,115.994L826.149,123.787C827.057,121.013 828.432,118.831 830.273,117.242C832.114,115.653 834.195,114.859 836.515,114.859Z" style="fill:white;fill-rule:nonzero;"/>
        <path d="M836.515,114.196C838.046,114.196 839.444,114.383 840.711,114.752C841.033,114.846 841.234,115.165 841.18,115.495L839.288,127.072C839.258,127.253 839.155,127.414 839.003,127.516C838.85,127.618 838.662,127.652 838.483,127.61C837.033,127.272 835.873,127.098 835.002,127.098C832.867,127.098 831.234,127.817 830.121,129.293C828.938,130.863 828.021,133.216 827.341,136.343L827.341,156.172C827.341,156.538 827.045,156.835 826.679,156.835L814.723,156.835C814.357,156.835 814.061,156.538 814.061,156.172L814.061,115.994C814.061,115.628 814.357,115.331 814.723,115.331L825.165,115.331C825.499,115.331 825.781,115.579 825.823,115.911L826.488,121.178C827.363,119.391 828.482,117.913 829.84,116.74C831.808,115.042 834.035,114.196 836.515,114.196ZM836.515,114.859C834.195,114.859 832.114,115.653 830.273,117.242C828.432,118.831 827.057,121.013 826.149,123.787L825.165,115.994L814.723,115.994L814.723,156.172L826.679,156.172L826.679,136.272C827.385,132.993 828.356,130.534 829.592,128.895C830.828,127.255 832.631,126.436 835.002,126.436C835.91,126.436 837.121,126.612 838.634,126.965L840.526,115.388C839.315,115.035 837.978,114.859 836.515,114.859Z"/>
        <path d="M875.862,144.52C875.862,146.033 876.076,147.143 876.505,147.849C876.934,148.555 877.627,149.085 878.586,149.438L876.089,157.232C873.617,157.03 871.599,156.488 870.036,155.605C868.472,154.722 867.261,153.322 866.404,151.405C863.781,155.441 859.745,157.459 854.297,157.459C850.312,157.459 847.134,156.299 844.763,153.978C842.392,151.658 841.207,148.631 841.207,144.898C841.207,140.509 842.821,137.155 846.049,134.835C849.278,132.514 853.944,131.354 860.048,131.354L864.134,131.354L864.134,129.614C864.134,127.243 863.629,125.616 862.62,124.733C861.611,123.85 859.846,123.409 857.324,123.409C856.012,123.409 854.423,123.598 852.557,123.976C850.69,124.355 848.773,124.872 846.806,125.528L844.082,117.658C846.604,116.7 849.189,115.968 851.838,115.464C854.486,114.959 856.945,114.707 859.215,114.707C864.966,114.707 869.178,115.893 871.852,118.264C874.525,120.634 875.862,124.191 875.862,128.933L875.862,144.52ZM857.778,148.908C860.502,148.908 862.62,147.622 864.134,145.049L864.134,137.937L861.183,137.937C858.459,137.937 856.428,138.416 855.091,139.375C853.755,140.333 853.086,141.821 853.086,143.839C853.086,145.453 853.502,146.702 854.335,147.584C855.167,148.467 856.315,148.908 857.778,148.908Z" style="fill:white;fill-rule:nonzero;"/>
        <path d="M876.525,144.52C876.525,145.874 876.688,146.873 877.071,147.505C877.429,148.094 878.016,148.522 878.815,148.816C879.148,148.939 879.325,149.302 879.217,149.64L876.72,157.434C876.626,157.727 876.342,157.917 876.035,157.892C873.451,157.681 871.345,157.105 869.71,156.182C868.319,155.397 867.183,154.236 866.309,152.691C863.566,156.301 859.567,158.121 854.297,158.121C850.115,158.121 846.787,156.886 844.3,154.452C841.804,152.009 840.544,148.828 840.544,144.898C840.544,140.272 842.259,136.743 845.663,134.297C848.982,131.911 853.772,130.691 860.048,130.691L863.471,130.691L863.471,129.614C863.471,127.494 863.086,126.021 862.184,125.232C861.261,124.424 859.632,124.071 857.324,124.071C856.048,124.071 854.503,124.258 852.688,124.626C850.847,124.999 848.956,125.509 847.016,126.156C846.671,126.271 846.299,126.087 846.18,125.744L843.456,117.875C843.339,117.536 843.512,117.166 843.847,117.039C846.405,116.067 849.027,115.325 851.714,114.813C854.407,114.3 856.907,114.045 859.215,114.045C865.171,114.045 869.522,115.312 872.291,117.768C875.092,120.252 876.525,123.965 876.525,128.933L876.525,144.52ZM875.862,144.52L875.862,128.933C875.862,124.191 874.525,120.634 871.852,118.264C869.178,115.893 864.966,114.707 859.215,114.707C856.945,114.707 854.486,114.959 851.838,115.464C849.189,115.968 846.604,116.7 844.082,117.658L846.806,125.528C848.773,124.872 850.69,124.355 852.557,123.976C854.423,123.598 856.012,123.409 857.324,123.409C859.846,123.409 861.611,123.85 862.62,124.733C863.629,125.616 864.134,127.243 864.134,129.614L864.134,131.354L860.048,131.354C853.944,131.354 849.278,132.514 846.049,134.835C842.821,137.155 841.207,140.509 841.207,144.898C841.207,148.631 842.392,151.658 844.763,153.978C847.134,156.299 850.312,157.459 854.297,157.459C859.745,157.459 863.781,155.441 866.404,151.405C867.261,153.322 868.472,154.722 870.036,155.605C871.599,156.488 873.617,157.03 876.089,157.232L878.586,149.438C877.627,149.085 876.934,148.555 876.505,147.849C876.076,147.143 875.862,146.033 875.862,144.52ZM857.778,148.908C856.315,148.908 855.167,148.467 854.335,147.584C853.502,146.702 853.086,145.453 853.086,143.839C853.086,141.821 853.755,140.333 855.091,139.375C856.428,138.416 858.459,137.937 861.183,137.937L864.134,137.937L864.134,145.049C862.62,147.622 860.502,148.908 857.778,148.908ZM857.778,148.246C860.206,148.246 862.098,147.11 863.471,144.866L863.471,138.599L861.183,138.599C858.635,138.599 856.728,139.016 855.478,139.913C854.306,140.753 853.749,142.07 853.749,143.839C853.749,145.253 854.087,146.356 854.817,147.13C855.531,147.887 856.523,148.246 857.778,148.246Z"/>
        <path d="M910.442,114.707C913.922,114.707 916.646,115.767 918.614,117.885C920.581,120.004 921.565,122.98 921.565,126.814L921.565,156.172L909.609,156.172L909.609,128.857C909.609,126.839 909.294,125.439 908.663,124.657C908.033,123.875 907.087,123.485 905.826,123.485C903.405,123.485 901.084,125.225 898.865,128.706L898.865,156.172L886.909,156.172L886.909,115.994L897.351,115.994L898.184,120.761C899.899,118.743 901.753,117.229 903.745,116.221C905.738,115.212 907.97,114.707 910.442,114.707Z" style="fill:white;fill-rule:nonzero;"/>
        <path d="M910.442,114.045C914.132,114.045 917.013,115.188 919.099,117.434C921.168,119.662 922.227,122.783 922.227,126.814L922.227,156.172C922.227,156.538 921.93,156.835 921.565,156.835L909.609,156.835C909.243,156.835 908.947,156.538 908.947,156.172L908.947,128.857C908.947,127.044 908.714,125.776 908.148,125.073C907.634,124.437 906.853,124.147 905.826,124.147C903.618,124.147 901.553,125.777 899.527,128.9L899.527,156.172C899.527,156.538 899.23,156.835 898.865,156.835L886.909,156.835C886.543,156.835 886.247,156.538 886.247,156.172L886.247,115.994C886.247,115.628 886.543,115.331 886.909,115.331L897.351,115.331C897.673,115.331 897.949,115.562 898.004,115.88L898.602,119.306C900.118,117.721 901.733,116.497 903.446,115.629C905.528,114.575 907.859,114.045 910.442,114.045ZM910.442,114.707C907.97,114.707 905.738,115.212 903.745,116.221C901.753,117.229 899.899,118.743 898.184,120.761L897.351,115.994L886.909,115.994L886.909,156.172L898.865,156.172L898.865,128.706C901.084,125.225 903.405,123.485 905.826,123.485C907.087,123.485 908.033,123.875 908.663,124.657C909.294,125.439 909.609,126.839 909.609,128.857L909.609,156.172L921.565,156.172L921.565,126.814C921.565,122.98 920.581,120.004 918.614,117.885C916.646,115.767 913.922,114.707 910.442,114.707Z"/>
        <path d="M946.232,114.707C949.107,114.707 951.806,115.136 954.328,115.994C956.85,116.851 959.07,118.062 960.987,119.626L956.598,126.36C953.319,124.292 950.015,123.258 946.686,123.258C945.122,123.258 943.924,123.522 943.092,124.052C942.259,124.582 941.843,125.326 941.843,126.284C941.843,127.041 942.032,127.659 942.411,128.138C942.789,128.617 943.558,129.109 944.718,129.614C945.879,130.118 947.669,130.723 950.091,131.43C954.278,132.64 957.393,134.217 959.436,136.159C961.479,138.101 962.5,140.787 962.5,144.217C962.5,146.941 961.718,149.299 960.154,151.292C958.591,153.285 956.447,154.81 953.723,155.87C950.999,156.929 947.972,157.459 944.643,157.459C941.263,157.459 938.123,156.929 935.222,155.87C932.322,154.81 929.863,153.348 927.845,151.481L933.671,144.974C937.051,147.597 940.607,148.908 944.34,148.908C946.156,148.908 947.581,148.581 948.615,147.925C949.649,147.269 950.166,146.336 950.166,145.125C950.166,144.167 949.965,143.41 949.561,142.855C949.158,142.3 948.376,141.783 947.215,141.304C946.055,140.825 944.214,140.232 941.692,139.526C937.707,138.366 934.73,136.751 932.763,134.683C930.796,132.615 929.812,130.042 929.812,126.965C929.812,124.645 930.481,122.564 931.817,120.723C933.154,118.881 935.071,117.419 937.568,116.334C940.065,115.249 942.953,114.707 946.232,114.707Z" style="fill:white;fill-rule:nonzero;"/>
        <path d="M946.232,114.045C949.183,114.045 951.953,114.486 954.541,115.366C957.142,116.25 959.429,117.5 961.406,119.112C961.668,119.326 961.727,119.704 961.542,119.987L957.153,126.722C956.956,127.025 956.551,127.113 956.245,126.92C953.082,124.925 949.897,123.92 946.686,123.92C945.279,123.92 944.196,124.134 943.447,124.611C942.823,125.009 942.506,125.565 942.506,126.284C942.506,126.871 942.637,127.356 942.931,127.728C943.265,128.15 943.959,128.561 944.983,129.006C946.126,129.503 947.891,130.098 950.275,130.793C954.587,132.04 957.788,133.678 959.892,135.679C962.059,137.738 963.163,140.579 963.163,144.217C963.163,147.099 962.33,149.593 960.676,151.701C959.043,153.782 956.808,155.381 953.963,156.487C951.167,157.575 948.06,158.121 944.643,158.121C941.181,158.121 937.966,157.577 934.995,156.492C932.006,155.401 929.474,153.891 927.395,151.967C927.129,151.722 927.11,151.309 927.351,151.039L933.178,144.532C933.41,144.273 933.803,144.237 934.077,144.45C937.33,146.975 940.748,148.246 944.34,148.246C946.003,148.246 947.313,147.966 948.26,147.365C949.088,146.84 949.504,146.094 949.504,145.125C949.504,144.334 949.359,143.703 949.025,143.245C948.673,142.761 947.975,142.334 946.963,141.916C945.818,141.444 944.001,140.86 941.513,140.164L941.507,140.162C937.386,138.962 934.317,137.278 932.283,135.14C930.199,132.948 929.15,130.225 929.15,126.965C929.15,124.5 929.861,122.29 931.281,120.333C932.682,118.403 934.687,116.863 937.304,115.726C939.877,114.609 942.853,114.045 946.232,114.045ZM946.232,114.707C942.953,114.707 940.065,115.249 937.568,116.334C935.071,117.419 933.154,118.881 931.817,120.723C930.481,122.564 929.812,124.645 929.812,126.965C929.812,130.042 930.796,132.615 932.763,134.683C934.73,136.751 937.707,138.366 941.692,139.526C944.214,140.232 946.055,140.825 947.215,141.304C948.376,141.783 949.158,142.3 949.561,142.855C949.965,143.41 950.166,144.167 950.166,145.125C950.166,146.336 949.649,147.269 948.615,147.925C947.581,148.581 946.156,148.908 944.34,148.908C940.607,148.908 937.051,147.597 933.671,144.974L927.845,151.481C929.863,153.348 932.322,154.81 935.222,155.87C938.123,156.929 941.263,157.459 944.643,157.459C947.972,157.459 950.999,156.929 953.723,155.87C956.447,154.81 958.591,153.285 960.154,151.292C961.718,149.299 962.5,146.941 962.5,144.217C962.5,140.787 961.479,138.101 959.436,136.159C957.393,134.217 954.278,132.64 950.091,131.43C947.669,130.723 945.879,130.118 944.718,129.614C943.558,129.109 942.789,128.617 942.411,128.138C942.032,127.659 941.843,127.041 941.843,126.284C941.843,125.326 942.259,124.582 943.092,124.052C943.924,123.522 945.122,123.258 946.686,123.258C950.015,123.258 953.319,124.292 956.598,126.36L960.987,119.626C959.07,118.062 956.85,116.851 954.328,115.994C951.806,115.136 949.107,114.707 946.232,114.707Z"/>
        <path d="M992.842,114.707C997.887,114.707 1001.64,116.574 1004.12,120.307C1006.59,124.039 1007.82,129.26 1007.82,135.97C1007.82,140.106 1007.18,143.801 1005.89,147.055C1004.61,150.308 1002.75,152.856 1000.33,154.697C997.912,156.538 995.087,157.459 991.859,157.459C987.823,157.459 984.57,156.072 982.098,153.297L982.098,171.684L970.142,172.97L970.142,115.994L980.66,115.994L981.265,120.458C982.829,118.491 984.62,117.04 986.638,116.107C988.656,115.174 990.724,114.707 992.842,114.707ZM988.227,148.681C993.019,148.681 995.415,144.495 995.415,136.121C995.415,131.379 994.885,128.088 993.826,126.246C992.767,124.405 991.178,123.485 989.059,123.485C987.697,123.485 986.423,123.888 985.238,124.695C984.052,125.502 983.006,126.663 982.098,128.176L982.098,145.125C983.712,147.496 985.755,148.681 988.227,148.681Z" style="fill:white;fill-rule:nonzero;"/>
        <path d="M992.842,114.045C998.138,114.045 1002.07,116.022 1004.67,119.941C1007.2,123.762 1008.49,129.101 1008.49,135.97C1008.49,140.197 1007.83,143.973 1006.51,147.298C1005.18,150.674 1003.25,153.314 1000.73,155.224C998.198,157.153 995.24,158.121 991.859,158.121C988.22,158.121 985.189,157.042 982.76,154.893L982.76,171.684C982.76,172.023 982.505,172.307 982.169,172.343L970.213,173.629C970.026,173.649 969.84,173.589 969.7,173.463C969.56,173.338 969.48,173.158 969.48,172.97L969.48,115.994C969.48,115.628 969.777,115.331 970.142,115.331L980.66,115.331C980.992,115.331 981.272,115.576 981.317,115.905L981.724,118.911C983.115,117.425 984.661,116.291 986.36,115.506C988.468,114.531 990.629,114.045 992.842,114.045ZM992.842,114.707C990.724,114.707 988.656,115.174 986.638,116.107C984.62,117.04 982.829,118.491 981.265,120.458L980.66,115.994L970.142,115.994L970.142,172.97L982.098,171.684L982.098,153.297C984.57,156.072 987.823,157.459 991.859,157.459C995.087,157.459 997.912,156.538 1000.33,154.697C1002.75,152.856 1004.61,150.308 1005.89,147.055C1007.18,143.801 1007.82,140.106 1007.82,135.97C1007.82,129.26 1006.59,124.039 1004.12,120.307C1001.64,116.574 997.887,114.707 992.842,114.707ZM988.227,148.681C985.755,148.681 983.712,147.496 982.098,145.125L982.098,128.176C983.006,126.663 984.052,125.502 985.238,124.695C986.423,123.888 987.697,123.485 989.059,123.485C991.178,123.485 992.767,124.405 993.826,126.246C994.885,128.088 995.415,131.379 995.415,136.121C995.415,144.495 993.019,148.681 988.227,148.681ZM988.227,148.019C990.816,148.019 992.61,146.638 993.646,143.923C994.39,141.973 994.752,139.371 994.752,136.121C994.752,131.54 994.275,128.355 993.252,126.577C992.32,124.957 990.923,124.147 989.059,124.147C987.83,124.147 986.681,124.514 985.611,125.243C984.538,125.973 983.591,127.015 982.76,128.362L982.76,144.918C984.215,146.972 986.029,148.019 988.227,148.019Z"/>
        <path d="M1034.23,114.707C1040.39,114.707 1045.2,116.586 1048.68,120.344C1052.16,124.102 1053.9,129.361 1053.9,136.121C1053.9,140.409 1053.11,144.154 1051.52,147.357C1049.93,150.561 1047.66,153.045 1044.71,154.81C1041.76,156.576 1038.27,157.459 1034.23,157.459C1028.13,157.459 1023.32,155.58 1019.82,151.822C1016.31,148.064 1014.56,142.805 1014.56,136.045C1014.56,131.757 1015.35,128.012 1016.94,124.809C1018.53,121.605 1020.8,119.121 1023.75,117.356C1026.7,115.59 1030.2,114.707 1034.23,114.707ZM1034.23,123.485C1031.81,123.485 1030,124.506 1028.78,126.549C1027.57,128.592 1026.97,131.757 1026.97,136.045C1026.97,140.434 1027.56,143.637 1028.75,145.655C1029.93,147.673 1031.76,148.681 1034.23,148.681C1036.65,148.681 1038.47,147.66 1039.68,145.617C1040.89,143.574 1041.5,140.409 1041.5,136.121C1041.5,131.732 1040.9,128.529 1039.72,126.511C1038.53,124.493 1036.7,123.485 1034.23,123.485Z" style="fill:white;fill-rule:nonzero;"/>
        <path d="M1034.23,114.045C1040.6,114.045 1045.57,116.008 1049.17,119.894C1052.75,123.761 1054.57,129.165 1054.57,136.121C1054.57,140.521 1053.75,144.364 1052.12,147.652C1050.47,150.973 1048.11,153.548 1045.05,155.379C1042.01,157.202 1038.4,158.121 1034.23,158.121C1027.92,158.121 1022.96,156.16 1019.33,152.274C1015.73,148.406 1013.9,143.002 1013.9,136.045C1013.9,131.645 1014.72,127.802 1016.35,124.514C1018,121.193 1020.35,118.618 1023.41,116.787C1026.46,114.964 1030.07,114.045 1034.23,114.045ZM1034.23,114.707C1030.2,114.707 1026.7,115.59 1023.75,117.356C1020.8,119.121 1018.53,121.605 1016.94,124.809C1015.35,128.012 1014.56,131.757 1014.56,136.045C1014.56,142.805 1016.31,148.064 1019.82,151.822C1023.32,155.58 1028.13,157.459 1034.23,157.459C1038.27,157.459 1041.76,156.576 1044.71,154.81C1047.66,153.045 1049.93,150.561 1051.52,147.357C1053.11,144.154 1053.9,140.409 1053.9,136.121C1053.9,129.361 1052.16,124.102 1048.68,120.344C1045.2,116.586 1040.39,114.707 1034.23,114.707ZM1034.23,123.485C1036.7,123.485 1038.53,124.493 1039.72,126.511C1040.9,128.529 1041.5,131.732 1041.5,136.121C1041.5,140.409 1040.89,143.574 1039.68,145.617C1038.47,147.66 1036.65,148.681 1034.23,148.681C1031.76,148.681 1029.93,147.673 1028.75,145.655C1027.56,143.637 1026.97,140.434 1026.97,136.045C1026.97,131.757 1027.57,128.592 1028.78,126.549C1030,124.506 1031.81,123.485 1034.23,123.485ZM1034.23,124.147C1032.07,124.147 1030.44,125.058 1029.35,126.887C1028.19,128.856 1027.63,131.912 1027.63,136.045C1027.63,140.278 1028.17,143.373 1029.32,145.319C1030.38,147.125 1032.02,148.019 1034.23,148.019C1036.4,148.019 1038.03,147.108 1039.11,145.279C1040.28,143.31 1040.83,140.254 1040.83,136.121C1040.83,131.888 1040.29,128.793 1039.15,126.847C1038.09,125.041 1036.44,124.147 1034.23,124.147Z"/>
        <path d="M1084.32,114.859C1085.79,114.859 1087.12,115.035 1088.33,115.388L1086.44,126.965C1084.93,126.612 1083.72,126.436 1082.81,126.436C1080.44,126.436 1078.64,127.255 1077.4,128.895C1076.16,130.534 1075.19,132.993 1074.49,136.272L1074.49,156.172L1062.53,156.172L1062.53,115.994L1072.97,115.994L1073.96,123.787C1074.87,121.013 1076.24,118.831 1078.08,117.242C1079.92,115.653 1082,114.859 1084.32,114.859Z" style="fill:white;fill-rule:nonzero;"/>
        <path d="M1084.32,114.196C1085.85,114.196 1087.25,114.383 1088.52,114.752C1088.84,114.846 1089.04,115.165 1088.99,115.495L1087.1,127.072C1087.07,127.253 1086.96,127.414 1086.81,127.516C1086.66,127.618 1086.47,127.652 1086.29,127.61C1084.84,127.272 1083.68,127.098 1082.81,127.098C1080.67,127.098 1079.04,127.817 1077.93,129.293C1076.75,130.863 1075.83,133.216 1075.15,136.343L1075.15,156.172C1075.15,156.538 1074.85,156.835 1074.49,156.835L1062.53,156.835C1062.16,156.835 1061.87,156.538 1061.87,156.172L1061.87,115.994C1061.87,115.628 1062.16,115.331 1062.53,115.331L1072.97,115.331C1073.31,115.331 1073.59,115.579 1073.63,115.911L1074.3,121.178C1075.17,119.391 1076.29,117.913 1077.65,116.74C1079.62,115.042 1081.84,114.196 1084.32,114.196ZM1084.32,114.859C1082,114.859 1079.92,115.653 1078.08,117.242C1076.24,118.831 1074.87,121.013 1073.96,123.787L1072.97,115.994L1062.53,115.994L1062.53,156.172L1074.49,156.172L1074.49,136.272C1075.19,132.993 1076.16,130.534 1077.4,128.895C1078.64,127.255 1080.44,126.436 1082.81,126.436C1083.72,126.436 1084.93,126.612 1086.44,126.965L1088.33,115.388C1087.12,115.035 1085.79,114.859 1084.32,114.859Z"/>
        <path d="M1119.58,154.281C1118.12,155.29 1116.42,156.072 1114.48,156.626C1112.53,157.181 1110.61,157.459 1108.69,157.459C1099.91,157.408 1095.52,152.566 1095.52,142.931L1095.52,124.317L1089.85,124.317L1089.85,115.994L1095.52,115.994L1095.52,107.292L1107.48,105.93L1107.48,115.994L1116.71,115.994L1115.42,124.317L1107.48,124.317L1107.48,142.779C1107.48,144.646 1107.78,145.983 1108.38,146.79C1108.99,147.597 1109.95,148 1111.26,148C1112.62,148 1114.06,147.572 1115.57,146.714L1119.58,154.281Z" style="fill:white;fill-rule:nonzero;"/>
        <path d="M1119.96,154.826C1118.44,155.874 1116.67,156.687 1114.66,157.263C1112.65,157.836 1110.66,158.121 1108.69,158.121L1108.68,158.121C1104.07,158.095 1100.63,156.778 1098.32,154.234C1096.04,151.711 1094.86,147.95 1094.86,142.931L1094.86,124.979L1089.85,124.979C1089.48,124.979 1089.18,124.683 1089.18,124.317L1089.18,115.994C1089.18,115.628 1089.48,115.331 1089.85,115.331L1094.86,115.331L1094.86,107.292C1094.86,106.955 1095.11,106.672 1095.45,106.634L1107.4,105.272C1107.59,105.25 1107.78,105.31 1107.92,105.436C1108.06,105.561 1108.14,105.741 1108.14,105.93L1108.14,115.331L1116.71,115.331C1116.9,115.331 1117.09,115.416 1117.21,115.562C1117.34,115.709 1117.39,115.904 1117.36,116.095L1116.08,124.418C1116.03,124.741 1115.75,124.979 1115.42,124.979L1108.14,124.979L1108.14,142.779C1108.14,144.457 1108.37,145.667 1108.91,146.392C1109.41,147.047 1110.2,147.338 1111.26,147.338C1112.52,147.338 1113.85,146.931 1115.25,146.138C1115.4,146.05 1115.59,146.028 1115.76,146.078C1115.93,146.128 1116.08,146.246 1116.16,146.404L1120.17,153.971C1120.33,154.268 1120.24,154.635 1119.96,154.826ZM1119.58,154.281L1115.57,146.714C1114.06,147.572 1112.62,148 1111.26,148C1109.95,148 1108.99,147.597 1108.38,146.79C1107.78,145.983 1107.48,144.646 1107.48,142.779L1107.48,124.317L1115.42,124.317L1116.71,115.994L1107.48,115.994L1107.48,105.93L1095.52,107.292L1095.52,115.994L1089.85,115.994L1089.85,124.317L1095.52,124.317L1095.52,142.931C1095.52,152.566 1099.91,157.408 1108.69,157.459C1110.61,157.459 1112.53,157.181 1114.48,156.626C1116.42,156.072 1118.12,155.29 1119.58,154.281Z"/>
        <path d="M805.488,223.746C808.263,223.746 810.785,224.162 813.055,224.994C815.325,225.826 817.519,226.974 819.638,228.437L814.947,234.49C811.92,231.817 809.045,229.975 806.321,228.967C803.597,227.958 799.914,227.453 795.273,227.453C790.935,227.453 787.127,226.432 783.848,224.389C780.569,222.346 778.009,219.319 776.168,215.309C774.326,211.298 773.406,206.443 773.406,200.743C773.406,195.144 774.326,190.301 776.168,186.215C778.009,182.129 780.594,179.014 783.923,176.87C787.253,174.726 791.086,173.654 795.425,173.654C799.813,173.654 803.66,174.701 806.964,176.795C810.268,178.888 812.841,181.952 814.682,185.988C816.523,190.024 817.444,194.917 817.444,200.667C817.444,206.771 816.435,211.626 814.417,215.233C812.399,218.84 809.423,221.677 805.488,223.746ZM781.048,200.743C781.048,207.957 782.322,213.253 784.869,216.633C787.417,220.013 790.935,221.703 795.425,221.703C805.009,221.703 809.801,214.691 809.801,200.667C809.801,186.593 805.009,179.556 795.425,179.556C790.885,179.556 787.354,181.271 784.831,184.702C782.309,188.132 781.048,193.479 781.048,200.743Z" style="fill:white;fill-rule:nonzero;"/>
        <path d="M807.774,223.18C809.747,223.351 811.584,223.749 813.283,224.372C815.604,225.223 817.848,226.396 820.014,227.892C820.164,227.995 820.265,228.156 820.293,228.336C820.321,228.515 820.273,228.699 820.162,228.843L815.47,234.896C815.358,235.041 815.191,235.133 815.009,235.15C814.826,235.167 814.645,235.108 814.508,234.987C811.553,232.377 808.75,230.573 806.09,229.588C803.424,228.6 799.817,228.116 795.273,228.116C790.801,228.116 786.877,227.057 783.497,224.951C780.113,222.843 777.466,219.724 775.565,215.585C773.689,211.498 772.743,206.552 772.743,200.743C772.743,195.038 773.688,190.106 775.563,185.943C777.462,181.73 780.132,178.523 783.565,176.313C786.998,174.102 790.951,172.992 795.425,172.992C799.949,172.992 803.912,174.077 807.318,176.235C810.726,178.394 813.385,181.551 815.285,185.713C817.16,189.825 818.106,194.808 818.106,200.667C818.106,206.908 817.058,211.869 814.995,215.557C813.268,218.643 810.862,221.186 807.774,223.18ZM805.488,223.746C809.423,221.677 812.399,218.84 814.417,215.233C816.435,211.626 817.444,206.771 817.444,200.667C817.444,194.917 816.523,190.024 814.682,185.988C812.841,181.952 810.268,178.888 806.964,176.795C803.66,174.701 799.813,173.654 795.425,173.654C791.086,173.654 787.253,174.726 783.923,176.87C780.594,179.014 778.009,182.129 776.168,186.215C774.326,190.301 773.406,195.144 773.406,200.743C773.406,206.443 774.326,211.298 776.168,215.309C778.009,219.319 780.569,222.346 783.848,224.389C787.127,226.432 790.935,227.453 795.273,227.453C799.914,227.453 803.597,227.958 806.321,228.967C809.045,229.975 811.92,231.817 814.947,234.49L819.638,228.437C817.519,226.974 815.325,225.826 813.055,224.994C810.785,224.162 808.263,223.746 805.488,223.746ZM781.048,200.743C781.048,193.479 782.309,188.132 784.831,184.702C787.354,181.271 790.885,179.556 795.425,179.556C805.009,179.556 809.801,186.593 809.801,200.667C809.801,214.691 805.009,221.703 795.425,221.703C790.935,221.703 787.417,220.013 784.869,216.633C782.322,213.253 781.048,207.957 781.048,200.743ZM781.711,200.743C781.711,207.772 782.916,212.941 785.398,216.234C787.817,219.443 791.162,221.04 795.425,221.04C804.663,221.04 809.139,214.184 809.139,200.667C809.139,187.1 804.664,180.219 795.425,180.219C791.115,180.219 787.759,181.838 785.365,185.094C782.906,188.439 781.711,193.66 781.711,200.743Z"/>
        <path d="M859.893,226.697L853.915,226.697L853.385,220.492C851.872,222.964 850.132,224.767 848.164,225.902C846.197,227.037 843.801,227.605 840.976,227.605C837.495,227.605 834.771,226.545 832.804,224.427C830.837,222.308 829.853,219.307 829.853,215.422L829.853,186.82L836.814,186.82L836.814,214.666C836.814,217.39 837.293,219.319 838.252,220.454C839.21,221.589 840.774,222.157 842.943,222.157C846.827,222.157 850.157,219.861 852.931,215.271L852.931,186.82L859.893,186.82L859.893,226.697Z" style="fill:white;fill-rule:nonzero;"/>
        <path d="M859.893,227.359L853.915,227.359C853.571,227.359 853.284,227.096 853.255,226.753L852.885,222.422C851.567,224.2 850.101,225.549 848.495,226.476C846.437,227.664 843.932,228.267 840.976,228.267C837.285,228.267 834.404,227.124 832.318,224.877C830.251,222.651 829.19,219.505 829.19,215.422L829.19,186.82C829.19,186.454 829.487,186.158 829.853,186.158L836.814,186.158C837.18,186.158 837.477,186.454 837.477,186.82L837.477,214.666C837.477,217.183 837.872,218.978 838.758,220.027C839.61,221.035 841.016,221.494 842.943,221.494C846.575,221.494 849.662,219.327 852.269,215.085L852.269,186.82C852.269,186.454 852.565,186.158 852.931,186.158L859.893,186.158C860.258,186.158 860.555,186.454 860.555,186.82L860.555,226.697C860.555,227.063 860.258,227.359 859.893,227.359ZM859.893,226.697L859.893,186.82L852.931,186.82L852.931,215.271C850.157,219.861 846.827,222.157 842.943,222.157C840.774,222.157 839.21,221.589 838.252,220.454C837.293,219.319 836.814,217.39 836.814,214.666L836.814,186.82L829.853,186.82L829.853,215.422C829.853,219.307 830.837,222.308 832.804,224.427C834.771,226.545 837.495,227.605 840.976,227.605C843.801,227.605 846.197,227.037 848.164,225.902C850.132,224.767 851.872,222.964 853.385,220.492L853.915,226.697L859.893,226.697Z"/>
        <path d="M905.898,205.586C905.898,206.746 905.847,207.931 905.746,209.142L880.322,209.142C880.625,213.531 881.735,216.759 883.652,218.827C885.569,220.896 888.04,221.93 891.067,221.93C892.984,221.93 894.75,221.652 896.364,221.097C897.978,220.542 899.668,219.66 901.433,218.449L904.46,222.611C900.223,225.94 895.582,227.605 890.537,227.605C884.989,227.605 880.663,225.789 877.561,222.157C874.458,218.525 872.907,213.531 872.907,207.175C872.907,203.038 873.576,199.368 874.912,196.165C876.249,192.962 878.166,190.452 880.663,188.636C883.16,186.82 886.098,185.912 889.478,185.912C894.775,185.912 898.836,187.653 901.66,191.133C904.485,194.614 905.898,199.431 905.898,205.586ZM899.012,203.543C899.012,199.608 898.23,196.607 896.666,194.538C895.103,192.47 892.757,191.436 889.629,191.436C883.929,191.436 880.827,195.623 880.322,203.997L899.012,203.997L899.012,203.543Z" style="fill:white;fill-rule:nonzero;"/>
        <path d="M906.56,205.586C906.56,206.764 906.509,207.968 906.407,209.197C906.378,209.54 906.091,209.805 905.746,209.805L881.04,209.804C881.393,213.647 882.408,216.51 884.138,218.377C885.928,220.309 888.24,221.267 891.067,221.267C892.906,221.267 894.6,221.003 896.148,220.471C897.712,219.933 899.348,219.075 901.059,217.903C901.355,217.7 901.758,217.769 901.969,218.059L904.996,222.221C905.206,222.509 905.15,222.911 904.869,223.132C900.508,226.558 895.73,228.267 890.537,228.267C884.77,228.267 880.281,226.362 877.057,222.587C873.864,218.849 872.245,213.716 872.245,207.175C872.245,202.942 872.933,199.188 874.301,195.91C875.688,192.586 877.682,189.985 880.273,188.101C882.881,186.204 885.948,185.25 889.478,185.25C895.002,185.25 899.229,187.086 902.175,190.716C905.083,194.299 906.56,199.251 906.56,205.586ZM905.898,205.586C905.898,199.431 904.485,194.614 901.66,191.133C898.836,187.653 894.775,185.912 889.478,185.912C886.098,185.912 883.16,186.82 880.663,188.636C878.166,190.452 876.249,192.962 874.912,196.165C873.576,199.368 872.907,203.038 872.907,207.175C872.907,213.531 874.458,218.525 877.561,222.157C880.663,225.789 884.989,227.605 890.537,227.605C895.582,227.605 900.223,225.94 904.46,222.611L901.433,218.449C899.668,219.66 897.978,220.542 896.364,221.097C894.75,221.652 892.984,221.93 891.067,221.93C888.04,221.93 885.569,220.896 883.652,218.827C881.735,216.759 880.625,213.531 880.322,209.142L905.746,209.142C905.847,207.931 905.898,206.746 905.898,205.586ZM899.012,203.543L899.012,203.997L880.322,203.997C880.827,195.623 883.929,191.436 889.629,191.436C892.757,191.436 895.103,192.47 896.666,194.538C898.23,196.607 899.012,199.608 899.012,203.543ZM898.349,203.334C898.323,199.679 897.603,196.876 896.138,194.938C894.694,193.028 892.517,192.099 889.629,192.099C884.417,192.099 881.63,195.901 881.033,203.334L898.349,203.334Z"/>
        <path d="M948.649,205.586C948.649,206.746 948.599,207.931 948.498,209.142L923.074,209.142C923.377,213.531 924.487,216.759 926.403,218.827C928.32,220.896 930.792,221.93 933.819,221.93C935.736,221.93 937.501,221.652 939.115,221.097C940.73,220.542 942.419,219.66 944.185,218.449L947.212,222.611C942.974,225.94 938.333,227.605 933.289,227.605C927.74,227.605 923.415,225.789 920.312,222.157C917.21,218.525 915.659,213.531 915.659,207.175C915.659,203.038 916.327,199.368 917.664,196.165C919.001,192.962 920.918,190.452 923.415,188.636C925.912,186.82 928.85,185.912 932.23,185.912C937.526,185.912 941.587,187.653 944.412,191.133C947.237,194.614 948.649,199.431 948.649,205.586ZM941.764,203.543C941.764,199.608 940.982,196.607 939.418,194.538C937.854,192.47 935.509,191.436 932.381,191.436C926.681,191.436 923.579,195.623 923.074,203.997L941.764,203.997L941.764,203.543Z" style="fill:white;fill-rule:nonzero;"/>
        <path d="M949.312,205.586C949.312,206.764 949.261,207.968 949.158,209.197C949.13,209.54 948.843,209.805 948.498,209.805L923.792,209.804C924.145,213.647 925.159,216.51 926.889,218.377C928.68,220.309 930.992,221.267 933.819,221.267C935.658,221.267 937.352,221.003 938.9,220.471C940.464,219.933 942.1,219.075 943.81,217.903C944.106,217.7 944.51,217.769 944.721,218.059L947.748,222.221C947.957,222.509 947.901,222.911 947.621,223.132C943.26,226.558 938.481,228.267 933.289,228.267C927.522,228.267 923.033,226.362 919.808,222.587C916.616,218.849 914.996,213.716 914.996,207.175C914.996,202.942 915.685,199.188 917.052,195.91C918.44,192.586 920.434,189.985 923.025,188.101C925.633,186.204 928.7,185.25 932.23,185.25C937.754,185.25 941.98,187.086 944.926,190.716C947.834,194.299 949.312,199.251 949.312,205.586ZM948.649,205.586C948.649,199.431 947.237,194.614 944.412,191.133C941.587,187.653 937.526,185.912 932.23,185.912C928.85,185.912 925.912,186.82 923.415,188.636C920.918,190.452 919.001,192.962 917.664,196.165C916.327,199.368 915.659,203.038 915.659,207.175C915.659,213.531 917.21,218.525 920.312,222.157C923.415,225.789 927.74,227.605 933.289,227.605C938.333,227.605 942.974,225.94 947.212,222.611L944.185,218.449C942.419,219.66 940.73,220.542 939.115,221.097C937.501,221.652 935.736,221.93 933.819,221.93C930.792,221.93 928.32,220.896 926.403,218.827C924.487,216.759 923.377,213.531 923.074,209.142L948.498,209.142C948.599,207.931 948.649,206.746 948.649,205.586ZM941.764,203.543L941.764,203.997L923.074,203.997C923.579,195.623 926.681,191.436 932.381,191.436C935.509,191.436 937.854,192.47 939.418,194.538C940.982,196.607 941.764,199.608 941.764,203.543ZM941.1,203.334C941.074,199.679 940.355,196.876 938.89,194.938C937.446,193.028 935.269,192.099 932.381,192.099C927.168,192.099 924.382,195.901 923.785,203.334L941.1,203.334Z"/>
        <path d="M980.051,185.912C983.683,185.912 986.52,186.997 988.563,189.166C990.606,191.335 991.628,194.311 991.628,198.095L991.628,226.697L984.667,226.697L984.667,199.078C984.667,196.253 984.137,194.261 983.078,193.101C982.018,191.94 980.455,191.36 978.386,191.36C976.268,191.36 974.401,191.966 972.787,193.176C971.173,194.387 969.659,196.127 968.247,198.397L968.247,226.697L961.286,226.697L961.286,186.82L967.263,186.82L967.869,192.722C969.281,190.604 971.034,188.939 973.127,187.728C975.221,186.518 977.529,185.912 980.051,185.912Z" style="fill:white;fill-rule:nonzero;"/>
        <path d="M980.051,185.25C983.892,185.25 986.885,186.418 989.046,188.712C991.194,190.993 992.291,194.116 992.291,198.095L992.291,226.697C992.291,227.063 991.994,227.359 991.628,227.359L984.667,227.359C984.301,227.359 984.004,227.063 984.004,226.697L984.004,199.078C984.004,196.471 983.566,194.618 982.588,193.547C981.642,192.511 980.234,192.023 978.386,192.023C976.418,192.023 974.684,192.582 973.185,193.706C971.665,194.846 970.244,196.475 968.91,198.588L968.91,226.697C968.91,227.063 968.613,227.359 968.247,227.359L961.286,227.359C960.92,227.359 960.623,227.063 960.623,226.697L960.623,186.82C960.623,186.454 960.92,186.158 961.286,186.158L967.263,186.158C967.603,186.158 967.888,186.415 967.922,186.753L968.353,190.951C969.62,189.4 971.101,188.135 972.796,187.155C974.99,185.886 977.408,185.25 980.051,185.25ZM980.051,185.912C977.529,185.912 975.221,186.518 973.127,187.728C971.034,188.939 969.281,190.604 967.869,192.722L967.263,186.82L961.286,186.82L961.286,226.697L968.247,226.697L968.247,198.397C969.659,196.127 971.173,194.387 972.787,193.176C974.401,191.966 976.268,191.36 978.386,191.36C980.455,191.36 982.018,191.94 983.078,193.101C984.137,194.261 984.667,196.253 984.667,199.078L984.667,226.697L991.628,226.697L991.628,198.095C991.628,194.311 990.606,191.335 988.563,189.166C986.52,186.997 983.683,185.912 980.051,185.912Z"/>
        <path d="M1017.96,185.912C1020.68,185.912 1023.13,186.291 1025.3,187.047C1027.47,187.804 1029.54,188.939 1031.5,190.452L1028.55,194.841C1026.74,193.681 1025.01,192.823 1023.37,192.268C1021.73,191.713 1020,191.436 1018.19,191.436C1015.92,191.436 1014.13,191.903 1012.82,192.836C1011.5,193.769 1010.85,195.043 1010.85,196.657C1010.85,198.271 1011.47,199.532 1012.7,200.44C1013.94,201.348 1016.17,202.231 1019.4,203.089C1023.84,204.198 1027.15,205.712 1029.35,207.629C1031.54,209.546 1032.64,212.169 1032.64,215.498C1032.64,219.433 1031.11,222.434 1028.06,224.502C1025.01,226.571 1021.29,227.605 1016.9,227.605C1010.85,227.605 1005.83,225.864 1001.84,222.384L1005.55,218.146C1008.93,220.719 1012.66,222.005 1016.75,222.005C1019.37,222.005 1021.45,221.463 1022.99,220.378C1024.53,219.294 1025.3,217.818 1025.3,215.952C1025.3,214.59 1025.02,213.493 1024.47,212.66C1023.91,211.828 1022.95,211.097 1021.59,210.466C1020.23,209.836 1018.24,209.167 1015.61,208.461C1011.38,207.351 1008.31,205.863 1006.42,203.997C1004.53,202.13 1003.58,199.759 1003.58,196.884C1003.58,194.816 1004.2,192.937 1005.44,191.247C1006.67,189.557 1008.39,188.245 1010.58,187.312C1012.78,186.379 1015.24,185.912 1017.96,185.912Z" style="fill:white;fill-rule:nonzero;"/>
        <path d="M1017.96,185.25C1020.76,185.25 1023.28,185.643 1025.52,186.422C1027.75,187.201 1029.88,188.369 1031.91,189.927C1032.18,190.14 1032.25,190.532 1032.05,190.822L1029.1,195.211C1028.9,195.509 1028.5,195.593 1028.2,195.399C1026.43,194.271 1024.75,193.435 1023.16,192.896C1021.59,192.364 1019.93,192.099 1018.19,192.099C1016.08,192.099 1014.42,192.51 1013.2,193.376C1012.07,194.177 1011.51,195.271 1011.51,196.657C1011.51,198.042 1012.03,199.127 1013.09,199.906C1014.29,200.783 1016.45,201.619 1019.56,202.447C1024.13,203.588 1027.53,205.159 1029.78,207.13C1032.12,209.17 1033.3,211.955 1033.3,215.498C1033.3,219.674 1031.67,222.855 1028.43,225.051C1025.28,227.188 1021.44,228.267 1016.9,228.267C1010.67,228.267 1005.51,226.465 1001.41,222.883C1001.27,222.767 1001.19,222.603 1001.18,222.428C1001.17,222.253 1001.23,222.08 1001.34,221.947L1005.05,217.71C1005.28,217.448 1005.68,217.408 1005.95,217.619C1009.21,220.1 1012.81,221.343 1016.75,221.343C1019.21,221.343 1021.17,220.854 1022.61,219.837C1023.96,218.885 1024.64,217.59 1024.64,215.952C1024.64,214.744 1024.41,213.766 1023.92,213.028C1023.42,212.278 1022.54,211.635 1021.31,211.067C1019.98,210.448 1018.02,209.795 1015.44,209.101C1011.07,207.954 1007.91,206.397 1005.96,204.468C1003.94,202.477 1002.92,199.951 1002.92,196.884C1002.92,194.672 1003.58,192.663 1004.9,190.856C1006.21,189.074 1008.01,187.686 1010.32,186.703C1012.6,185.736 1015.14,185.25 1017.96,185.25ZM1017.96,185.912C1015.24,185.912 1012.78,186.379 1010.58,187.312C1008.39,188.245 1006.67,189.557 1005.44,191.247C1004.2,192.937 1003.58,194.816 1003.58,196.884C1003.58,199.759 1004.53,202.13 1006.42,203.997C1008.31,205.863 1011.38,207.351 1015.61,208.461C1018.24,209.167 1020.23,209.836 1021.59,210.466C1022.95,211.097 1023.91,211.828 1024.47,212.66C1025.02,213.493 1025.3,214.59 1025.3,215.952C1025.3,217.818 1024.53,219.294 1022.99,220.378C1021.45,221.463 1019.37,222.005 1016.75,222.005C1012.66,222.005 1008.93,220.719 1005.55,218.146L1001.84,222.384C1005.83,225.864 1010.85,227.605 1016.9,227.605C1021.29,227.605 1025.01,226.571 1028.06,224.502C1031.11,222.434 1032.64,219.433 1032.64,215.498C1032.64,212.169 1031.54,209.546 1029.35,207.629C1027.15,205.712 1023.84,204.198 1019.4,203.089C1016.17,202.231 1013.94,201.348 1012.7,200.44C1011.47,199.532 1010.85,198.271 1010.85,196.657C1010.85,195.043 1011.5,193.769 1012.82,192.836C1014.13,191.903 1015.92,191.436 1018.19,191.436C1020,191.436 1021.73,191.713 1023.37,192.268C1025.01,192.823 1026.74,193.681 1028.55,194.841L1031.5,190.452C1029.54,188.939 1027.47,187.804 1025.3,187.047C1023.13,186.291 1020.68,185.912 1017.96,185.912Z"/>
        <path d="M1051.93,227.605C1049.36,227.605 1047.33,226.835 1045.84,225.297C1044.36,223.758 1043.61,221.602 1043.61,218.827L1043.61,170.779L1050.57,169.947L1050.57,218.676C1050.57,219.786 1050.76,220.593 1051.14,221.097C1051.52,221.602 1052.16,221.854 1053.07,221.854C1054.03,221.854 1054.88,221.703 1055.64,221.4L1057.46,226.243C1055.79,227.151 1053.95,227.605 1051.93,227.605Z" style="fill:white;fill-rule:nonzero;"/>
        <path d="M1051.93,228.267C1049.16,228.267 1046.97,227.418 1045.37,225.757C1043.77,224.107 1042.95,221.803 1042.95,218.827L1042.95,170.779C1042.95,170.444 1043.2,170.161 1043.53,170.121L1050.49,169.289C1050.68,169.266 1050.87,169.325 1051.01,169.451C1051.15,169.577 1051.24,169.757 1051.24,169.947L1051.24,218.676C1051.24,219.6 1051.36,220.28 1051.67,220.7C1051.94,221.061 1052.42,221.191 1053.07,221.191C1053.94,221.191 1054.71,221.058 1055.4,220.785C1055.56,220.719 1055.75,220.722 1055.91,220.794C1056.07,220.866 1056.2,221 1056.26,221.167L1058.08,226.01C1058.19,226.319 1058.07,226.666 1057.78,226.824C1056.02,227.784 1054.07,228.267 1051.93,228.267ZM1051.93,227.605C1053.95,227.605 1055.79,227.151 1057.46,226.243L1055.64,221.4C1054.88,221.703 1054.03,221.854 1053.07,221.854C1052.16,221.854 1051.52,221.602 1051.14,221.097C1050.76,220.593 1050.57,219.786 1050.57,218.676L1050.57,169.947L1043.61,170.779L1043.61,218.827C1043.61,221.602 1044.36,223.758 1045.84,225.297C1047.33,226.835 1049.36,227.605 1051.93,227.605Z"/>
        <path d="M1094.16,217.39C1094.16,219.004 1094.43,220.202 1094.99,220.984C1095.54,221.766 1096.38,222.358 1097.49,222.762L1095.9,227.605C1093.83,227.352 1092.16,226.772 1090.9,225.864C1089.64,224.956 1088.71,223.544 1088.1,221.627C1085.43,225.612 1081.47,227.605 1076.22,227.605C1072.29,227.605 1069.19,226.495 1066.92,224.275C1064.65,222.056 1063.51,219.155 1063.51,215.574C1063.51,211.336 1065.04,208.083 1068.09,205.813C1071.14,203.543 1075.47,202.408 1081.07,202.408L1087.19,202.408L1087.19,199.457C1087.19,196.632 1086.51,194.614 1085.15,193.403C1083.79,192.193 1081.7,191.587 1078.87,191.587C1075.95,191.587 1072.36,192.294 1068.13,193.706L1066.39,188.636C1071.33,186.82 1075.92,185.912 1080.16,185.912C1084.85,185.912 1088.36,187.06 1090.67,189.355C1093,191.65 1094.16,194.917 1094.16,199.154L1094.16,217.39ZM1077.81,222.384C1081.8,222.384 1084.92,220.315 1087.19,216.179L1087.19,207.023L1081.97,207.023C1074.61,207.023 1070.93,209.747 1070.93,215.195C1070.93,217.566 1071.51,219.357 1072.67,220.568C1073.83,221.778 1075.54,222.384 1077.81,222.384Z" style="fill:white;fill-rule:nonzero;"/>
        <path d="M1094.82,217.39C1094.82,218.828 1095.03,219.903 1095.53,220.6C1096.01,221.282 1096.75,221.788 1097.71,222.139C1098.05,222.262 1098.23,222.629 1098.12,222.968L1096.53,227.811C1096.43,228.112 1096.13,228.301 1095.82,228.262C1093.62,227.994 1091.86,227.366 1090.52,226.402C1089.43,225.617 1088.55,224.491 1087.91,223.013C1085.14,226.509 1081.25,228.267 1076.22,228.267C1072.09,228.267 1068.84,227.081 1066.45,224.749C1064.06,222.407 1062.85,219.352 1062.85,215.574C1062.85,211.103 1064.47,207.676 1067.69,205.281C1070.84,202.941 1075.29,201.745 1081.07,201.745L1086.53,201.745L1086.53,199.457C1086.53,196.871 1085.96,195.007 1084.71,193.899C1083.45,192.775 1081.49,192.25 1078.87,192.25C1076,192.25 1072.49,192.949 1068.34,194.335C1067.99,194.45 1067.62,194.265 1067.5,193.921L1065.76,188.851C1065.64,188.511 1065.82,188.139 1066.16,188.014C1071.18,186.168 1075.85,185.25 1080.16,185.25C1085.06,185.25 1088.72,186.485 1091.14,188.884C1093.58,191.292 1094.82,194.709 1094.82,199.154L1094.82,217.39ZM1094.16,217.39L1094.16,199.154C1094.16,194.917 1093,191.65 1090.67,189.355C1088.36,187.06 1084.85,185.912 1080.16,185.912C1075.92,185.912 1071.33,186.82 1066.39,188.636L1068.13,193.706C1072.36,192.294 1075.95,191.587 1078.87,191.587C1081.7,191.587 1083.79,192.193 1085.15,193.403C1086.51,194.614 1087.19,196.632 1087.19,199.457L1087.19,202.408L1081.07,202.408C1075.47,202.408 1071.14,203.543 1068.09,205.813C1065.04,208.083 1063.51,211.336 1063.51,215.574C1063.51,219.155 1064.65,222.056 1066.92,224.275C1069.19,226.495 1072.29,227.605 1076.22,227.605C1081.47,227.605 1085.43,225.612 1088.1,221.627C1088.71,223.544 1089.64,224.956 1090.9,225.864C1092.16,226.772 1093.83,227.352 1095.9,227.605L1097.49,222.762C1096.38,222.358 1095.54,221.766 1094.99,220.984C1094.43,220.202 1094.16,219.004 1094.16,217.39ZM1077.81,222.384C1075.54,222.384 1073.83,221.778 1072.67,220.568C1071.51,219.357 1070.93,217.566 1070.93,215.195C1070.93,209.747 1074.61,207.023 1081.97,207.023L1087.19,207.023L1087.19,216.179C1084.92,220.315 1081.8,222.384 1077.81,222.384ZM1077.81,221.721C1081.51,221.721 1084.4,219.799 1086.53,216.007L1086.53,207.686L1081.97,207.686C1077.8,207.686 1074.86,208.555 1073.19,210.409C1072.11,211.604 1071.59,213.203 1071.59,215.195C1071.59,217.359 1072.09,219.004 1073.14,220.109C1074.19,221.205 1075.76,221.721 1077.81,221.721Z"/>
        <path d="M1128.74,185.912C1132.37,185.912 1135.2,186.997 1137.25,189.166C1139.29,191.335 1140.31,194.311 1140.31,198.095L1140.31,226.697L1133.35,226.697L1133.35,199.078C1133.35,196.253 1132.82,194.261 1131.76,193.101C1130.7,191.94 1129.14,191.36 1127.07,191.36C1124.95,191.36 1123.09,191.966 1121.47,193.176C1119.86,194.387 1118.34,196.127 1116.93,198.397L1116.93,226.697L1109.97,226.697L1109.97,186.82L1115.95,186.82L1116.55,192.722C1117.97,190.604 1119.72,188.939 1121.81,187.728C1123.91,186.518 1126.21,185.912 1128.74,185.912Z" style="fill:white;fill-rule:nonzero;"/>
        <path d="M1128.74,185.25C1132.58,185.25 1135.57,186.418 1137.73,188.712C1139.88,190.993 1140.98,194.116 1140.98,198.095L1140.98,226.697C1140.98,227.063 1140.68,227.359 1140.31,227.359L1133.35,227.359C1132.99,227.359 1132.69,227.063 1132.69,226.697L1132.69,199.078C1132.69,196.471 1132.25,194.618 1131.27,193.547C1130.33,192.511 1128.92,192.023 1127.07,192.023C1125.1,192.023 1123.37,192.582 1121.87,193.706C1120.35,194.846 1118.93,196.475 1117.59,198.588L1117.59,226.697C1117.59,227.063 1117.3,227.359 1116.93,227.359L1109.97,227.359C1109.6,227.359 1109.31,227.063 1109.31,226.697L1109.31,186.82C1109.31,186.454 1109.6,186.158 1109.97,186.158L1115.95,186.158C1116.29,186.158 1116.57,186.415 1116.61,186.753L1117.04,190.951C1118.31,189.4 1119.79,188.135 1121.48,187.155C1123.67,185.886 1126.09,185.25 1128.74,185.25ZM1128.74,185.912C1126.21,185.912 1123.91,186.518 1121.81,187.728C1119.72,188.939 1117.97,190.604 1116.55,192.722L1115.95,186.82L1109.97,186.82L1109.97,226.697L1116.93,226.697L1116.93,198.397C1118.34,196.127 1119.86,194.387 1121.47,193.176C1123.09,191.966 1124.95,191.36 1127.07,191.36C1129.14,191.36 1130.7,191.94 1131.76,193.101C1132.82,194.261 1133.35,196.253 1133.35,199.078L1133.35,226.697L1140.31,226.697L1140.31,198.095C1140.31,194.311 1139.29,191.335 1137.25,189.166C1135.2,186.997 1132.37,185.912 1128.74,185.912Z"/>
        <path d="M1186.7,170.779L1186.7,226.697L1180.57,226.697L1179.89,221.173C1178.58,223.191 1176.93,224.767 1174.97,225.902C1173,227.037 1170.81,227.605 1168.38,227.605C1163.64,227.605 1159.95,225.738 1157.3,222.005C1154.65,218.272 1153.33,213.253 1153.33,206.948C1153.33,202.862 1153.96,199.23 1155.22,196.052C1156.48,192.874 1158.3,190.389 1160.67,188.599C1163.04,186.808 1165.81,185.912 1168.99,185.912C1173.08,185.912 1176.66,187.552 1179.74,190.831L1179.74,169.947L1186.7,170.779ZM1169.9,222.081C1172.02,222.081 1173.83,221.589 1175.35,220.605C1176.86,219.622 1178.32,218.146 1179.74,216.179L1179.74,196.657C1178.42,194.942 1177.02,193.643 1175.54,192.76C1174.05,191.877 1172.37,191.436 1170.5,191.436C1167.43,191.436 1165.04,192.722 1163.35,195.295C1161.66,197.868 1160.82,201.701 1160.82,206.796C1160.82,211.942 1161.6,215.775 1163.16,218.298C1164.73,220.82 1166.97,222.081 1169.9,222.081Z" style="fill:white;fill-rule:nonzero;"/>
        <path d="M1187.36,170.779L1187.36,226.697C1187.36,227.063 1187.06,227.359 1186.7,227.359L1180.57,227.359C1180.23,227.359 1179.95,227.11 1179.91,226.778L1179.43,222.924C1178.26,224.381 1176.88,225.564 1175.3,226.476C1173.23,227.668 1170.93,228.267 1168.38,228.267C1163.41,228.267 1159.54,226.304 1156.76,222.389C1154.04,218.559 1152.66,213.416 1152.66,206.948C1152.66,202.77 1153.31,199.057 1154.6,195.807C1155.91,192.506 1157.81,189.93 1160.27,188.07C1162.75,186.193 1165.66,185.25 1168.99,185.25C1172.76,185.25 1176.12,186.578 1179.07,189.25L1179.07,169.947C1179.07,169.757 1179.15,169.577 1179.3,169.451C1179.44,169.325 1179.63,169.266 1179.81,169.289L1186.78,170.121C1187.11,170.161 1187.36,170.444 1187.36,170.779ZM1186.7,170.779L1179.74,169.947L1179.74,190.831C1176.66,187.552 1173.08,185.912 1168.99,185.912C1165.81,185.912 1163.04,186.808 1160.67,188.599C1158.3,190.389 1156.48,192.874 1155.22,196.052C1153.96,199.23 1153.33,202.862 1153.33,206.948C1153.33,213.253 1154.65,218.272 1157.3,222.005C1159.95,225.738 1163.64,227.605 1168.38,227.605C1170.81,227.605 1173,227.037 1174.97,225.902C1176.93,224.767 1178.58,223.191 1179.89,221.173L1180.57,226.697L1186.7,226.697L1186.7,170.779ZM1169.9,222.081C1166.97,222.081 1164.73,220.82 1163.16,218.298C1161.6,215.775 1160.82,211.942 1160.82,206.796C1160.82,201.701 1161.66,197.868 1163.35,195.295C1165.04,192.722 1167.43,191.436 1170.5,191.436C1172.37,191.436 1174.05,191.877 1175.54,192.76C1177.02,193.643 1178.42,194.942 1179.74,196.657L1179.74,216.179C1178.32,218.146 1176.86,219.622 1175.35,220.605C1173.83,221.589 1172.02,222.081 1169.9,222.081ZM1169.9,221.418C1171.88,221.418 1173.57,220.968 1174.99,220.05C1176.39,219.134 1177.75,217.769 1179.07,215.964L1179.07,196.883C1177.86,195.33 1176.57,194.143 1175.2,193.33C1173.81,192.507 1172.24,192.099 1170.5,192.099C1167.66,192.099 1165.47,193.285 1163.91,195.659C1162.27,198.149 1161.48,201.865 1161.48,206.796C1161.48,211.783 1162.21,215.504 1163.73,217.949C1165.16,220.26 1167.22,221.418 1169.9,221.418Z"/>
    </g>
    <g id="Main" transform="matrix(2.83465,0,0,2.83465,210.298,903.791)">
        <g id="Q" transform="matrix(1,0,0,1,-10.5833,0)">
            <g>
                <g id="path7" transform="matrix(1,0,0,1,-13.4056,26.6308)">
                    <path d="M167.98,-215.69L160.995,-208.705C160.995,-208.705 164.508,-205.193 166.616,-203.085C167.609,-202.092 168.954,-201.535 170.358,-201.535C173.146,-201.535 177.901,-201.535 180.432,-201.535C180.717,-201.535 180.974,-201.707 181.084,-201.97C181.193,-202.234 181.133,-202.537 180.931,-202.739C177.51,-206.16 167.98,-215.69 167.98,-215.69Z" style="fill:rgb(181,36,0);fill-rule:nonzero;"/>
                </g>
                <g id="path11-9-7-5" transform="matrix(0.352778,0,0,0.352778,-74.1886,-332.596)">
                    <path d="M512,127C512,127 496,127 496,127C468.022,127 445,150.022 445,178L445,340C445,367.978 468.022,391 496,391L576.336,391C599.666,391 622.064,400.278 638.561,416.775" style="fill:none;fill-rule:nonzero;stroke:rgb(181,36,0);stroke-width:28px;"/>
                </g>
                <g id="rect1-2-94-6-8" transform="matrix(-1,0,0,1,-13.4056,26.6308)">
                    <path d="M-114.9,-319.363L-114.9,-309.485L-124.072,-309.485C-124.462,-309.485 -124.778,-309.801 -124.778,-310.19C-124.778,-311.555 -124.778,-314.424 -124.778,-314.424C-124.778,-314.424 -124.778,-317.292 -124.778,-318.657C-124.778,-319.047 -124.462,-319.363 -124.072,-319.363C-122.708,-319.363 -114.9,-319.363 -114.9,-319.363Z" style="fill:rgb(181,36,0);"/>
                </g>
            </g>
            <g>
                <g id="path7-6" transform="matrix(1,0,0,1,-13.4056,26.6308)">
                    <path d="M175.462,-223.174L168.478,-216.188C168.478,-216.188 178.008,-206.658 181.429,-203.236C181.631,-203.035 181.935,-202.974 182.198,-203.084C182.462,-203.193 182.634,-203.45 182.634,-203.735C182.634,-206.267 182.634,-211.023 182.634,-213.811C182.634,-215.214 182.076,-216.56 181.084,-217.553C178.975,-219.661 175.462,-223.174 175.462,-223.174Z" style="fill:rgb(255,144,0);fill-rule:nonzero;"/>
                </g>
                <g id="path6-8-7-6-1-1-2-2-4" transform="matrix(0.352778,0,0,0.352778,-74.1886,-332.596)">
                    <path d="M542,127L583,127C610.978,127 634,150.022 634,178L634,178L634,333.336C634,356.666 643.278,379.065 659.774,395.562" style="fill:none;fill-rule:nonzero;stroke:rgb(255,144,0);stroke-width:28px;"/>
                </g>
                <g id="rect1-2-94-6" transform="matrix(-1,0,0,1,-13.4056,26.6308)">
                    <path d="M-126.189,-319.363C-125.799,-319.363 -125.484,-319.047 -125.484,-318.657C-125.484,-317.292 -125.484,-311.555 -125.484,-310.19C-125.484,-309.801 -125.799,-309.485 -126.189,-309.485C-127.554,-309.485 -135.361,-309.485 -135.361,-309.485L-135.361,-319.363L-126.189,-319.363Z" style="fill:rgb(255,144,0);"/>
                </g>
            </g>
        </g>
        <g id="B" transform="matrix(1,0,0,1,13.4056,0)">
            <g>
                <g id="path1-9-1-5-0-4-8-3-2-2-6" transform="matrix(0.352778,0,0,0.352778,-98.1775,-332.596)">
                    <path d="M201,259L217,259L217,259C240.55,259 262.383,271.605 274.158,292C285.933,312.395 285.933,337.605 274.158,358C262.383,378.395 240.55,391 217,391L44,391" style="fill:none;fill-rule:nonzero;stroke:rgb(0,179,231);stroke-width:28px;stroke-linecap:butt;"/>
                </g>
                <g id="rect1" transform="matrix(1,0,0,1,-13.4056,26.6308)">
                    <path d="M-8.925,-272.796L-18.097,-272.796C-18.487,-272.796 -18.802,-272.48 -18.802,-272.09C-18.802,-270.726 -18.802,-267.857 -18.802,-267.857C-18.802,-265.129 -16.591,-262.918 -13.864,-262.918L-8.925,-262.918L-8.925,-272.796Z" style="fill:rgb(0,179,231);fill-rule:nonzero;"/>
                </g>
                <g id="rect1-0-6-3-9" transform="matrix(1.83697e-16,-1,1,1.83697e-16,-314.529,-143.049)">
                    <path d="M55.844,226.935C56.031,226.935 56.211,227.009 56.343,227.141C56.475,227.274 56.55,227.453 56.55,227.64C56.55,229.005 56.55,236.813 56.55,236.813L46.672,236.813L46.672,227.64C46.672,227.453 46.746,227.274 46.879,227.141C47.011,227.009 47.19,226.935 47.377,226.935C48.742,226.935 54.479,226.935 55.844,226.935Z" style="fill:rgb(0,179,231);"/>
                </g>
            </g>
            <g>
                <g id="path6-8-7-6-1-1-3" transform="matrix(0.352778,0,0,0.352778,-98.1775,-332.596)">
                    <path d="M217,229C244.978,229 268,205.978 268,178L268,178M201,229L217,229M86,361L86,178C86,150.022 109.022,127 137,127L217,127C244.978,127 268,150.022 268,178" style="fill:none;fill-rule:nonzero;stroke:rgb(0,128,96);stroke-width:28px;stroke-linecap:butt;stroke-linejoin:miter;"/>
                </g>
                <g id="rect1-2" transform="matrix(1,0,0,1,-13.4056,26.6308)">
                    <path d="M-8.925,-283.379L-13.864,-283.379C-16.592,-283.379 -18.802,-281.168 -18.802,-278.441L-18.802,-274.207C-18.802,-273.817 -18.487,-273.501 -18.097,-273.501C-15.837,-273.501 -8.925,-273.501 -8.925,-273.501L-8.925,-283.379Z" style="fill:rgb(0,128,96);fill-rule:nonzero;"/>
                </g>
                <g id="rect1-0-6-3-91" serif:id="rect1-0-6-3-9" transform="matrix(-1,0,0,-1,-16.2278,26.6308)">
                    <path d="M55.844,226.935C56.031,226.935 56.211,227.009 56.343,227.141C56.475,227.274 56.55,227.453 56.55,227.64C56.55,229.005 56.55,236.813 56.55,236.813L46.672,236.813L46.672,227.64C46.672,227.453 46.746,227.274 46.879,227.141C47.011,227.009 47.19,226.935 47.377,226.935C48.742,226.935 54.479,226.935 55.844,226.935Z" style="fill:rgb(0,128,96);"/>
                </g>
            </g>
        </g>
        <g id="T">
            <g>
                <g id="path6-8-7-6-1-1-2-3" transform="matrix(-1,0,0,-1,-13.4056,26.6308)">
                    <path d="M-50.342,307.015L-50.342,307.015C-50.342,316.885 -58.464,325.007 -68.334,325.007" style="fill:none;fill-rule:nonzero;stroke:rgb(54,98,230);stroke-width:9.88px;stroke-linecap:butt;"/>
                </g>
                <g transform="matrix(1,0,0,1,-13.4056,26.6308)">
                    <path d="M114.9,-320.068L114.9,-329.946C114.9,-329.946 119.839,-329.946 119.84,-329.946C121.15,-329.946 122.406,-329.426 123.332,-328.5C124.258,-327.573 124.778,-326.317 124.778,-325.008C124.778,-325.007 124.778,-322.138 124.778,-320.774C124.778,-320.587 124.704,-320.407 124.571,-320.275C124.439,-320.142 124.26,-320.068 124.073,-320.068C122.708,-320.068 119.839,-320.068 119.839,-320.068L114.9,-320.068Z" style="fill:rgb(54,98,230);"/>
                </g>
                <g transform="matrix(-1,1.22465e-16,-1.22465e-16,-1,156.776,-519.667)">
                    <path d="M114.9,-320.068L114.9,-325.007C114.9,-325.007 114.9,-327.876 114.9,-329.24C114.9,-329.427 114.975,-329.607 115.107,-329.739C115.239,-329.872 115.419,-329.946 115.606,-329.946C116.971,-329.946 119.839,-329.946 119.84,-329.946C121.15,-329.946 122.406,-329.426 123.332,-328.5C124.258,-327.573 124.778,-326.317 124.778,-325.008C124.778,-325.007 124.778,-320.068 124.778,-320.068L119.839,-320.068L114.9,-320.068Z" style="fill:rgb(54,98,230);"/>
                </g>
                <g transform="matrix(0.352778,0,0,0.352778,-84.7719,-332.596)">
                    <path d="M396,97L542,97" style="fill:none;stroke:rgb(54,98,230);stroke-width:28px;stroke-miterlimit:1.5;"/>
                </g>
                <g transform="matrix(0.352778,0,0,0.352778,-84.7719,-332.596)">
                    <path d="M345,148L345,390" style="fill:none;stroke:rgb(54,98,230);stroke-width:28px;stroke-miterlimit:1.5;"/>
                </g>
            </g>
            <g>
                <g id="path6-8-7-6-1-1" transform="matrix(1,0,0,-1,-13.4056,26.6308)">
                    <clipPath id="_clip1">
                        <path d="M44.698,307.015L42.934,307.015L42.934,330.651L68.334,330.651C55.367,330.651 44.698,319.982 44.698,307.015ZM68.334,319.363L68.334,307.015L55.986,307.015C55.986,313.789 61.56,319.363 68.334,319.363Z"/>
                    </clipPath>
                    <g clip-path="url(#_clip1)">
                        <path d="M60.925,307.015L60.925,307.015C60.925,316.885 52.804,325.007 42.934,325.007" style="fill:none;fill-rule:nonzero;stroke:rgb(204,0,204);stroke-width:9.88px;"/>
                    </g>
                </g>
                <g transform="matrix(1.19434e-15,1,-1,1.19434e-15,-277.487,-314.499)">
                    <path d="M114.9,-320.068L114.9,-329.946C114.9,-329.946 119.839,-329.946 119.84,-329.946C121.15,-329.946 122.406,-329.426 123.332,-328.5C124.258,-327.573 124.778,-326.317 124.778,-325.008C124.778,-325.007 124.778,-322.138 124.778,-320.774C124.778,-320.586 124.704,-320.407 124.571,-320.275C124.439,-320.142 124.26,-320.068 124.073,-320.068C122.708,-320.068 119.839,-320.068 119.839,-320.068L114.9,-320.068Z" style="fill:rgb(204,0,204);"/>
                </g>
                <g transform="matrix(0.352778,0,0,0.352778,-84.7719,-332.596)">
                    <path d="M375,390L375,148" style="fill:none;stroke:rgb(204,0,204);stroke-width:28px;stroke-miterlimit:1.5;"/>
                </g>
                <g transform="matrix(-1,0,0,1,97.8618,26.631)">
                    <path d="M114.9,-320.068L114.9,-329.946C114.9,-329.946 119.839,-329.946 119.84,-329.946C121.149,-329.946 122.406,-329.426 123.332,-328.5C124.258,-327.573 124.778,-326.317 124.778,-325.008C124.778,-323.463 124.778,-321.721 124.778,-320.774C124.778,-320.587 124.704,-320.407 124.572,-320.275C124.439,-320.143 124.26,-320.068 124.073,-320.068C122.708,-320.068 119.839,-320.068 119.839,-320.068L114.9,-320.068Z" style="fill:rgb(204,0,204);"/>
                </g>
                <g transform="matrix(0.352778,0,0,0.352778,-84.7719,-332.596)">
                    <path d="M178,97L324,97" style="fill:none;stroke:rgb(204,0,204);stroke-width:28px;stroke-miterlimit:1.5;"/>
                </g>
            </g>
        </g>
    </g>
    <g id="Stops" transform="matrix(2.83465,0,0,2.83465,211.298,903.791)">
        <g transform="matrix(1,0,0,1,-0.352778,0)">
            <g id="rect1-7-2-80-1-2-97-3-3-6-4-5-6-9" transform="matrix(1.03333,-4.08216e-18,4.08216e-18,-1.06667,43.6538,33.6695)">
                <path d="M55.292,306.663L55.292,311.293C55.292,314.213 57.74,316.584 60.755,316.584C63.769,316.584 66.217,314.213 66.217,311.293L66.217,301.371C66.217,298.45 63.769,296.079 60.755,296.079L50.513,296.079C47.498,296.079 45.05,298.45 45.05,301.371C45.05,304.291 47.498,306.663 50.513,306.663L55.292,306.663Z" style="fill:white;fill-opacity:0.69;"/>
                <path d="M55.292,306.663L55.292,311.293C55.292,314.213 57.74,316.584 60.755,316.584C63.769,316.584 66.217,314.213 66.217,311.293L66.217,301.371C66.217,298.45 63.769,296.079 60.755,296.079L50.513,296.079C47.498,296.079 45.05,298.45 45.05,301.371C45.05,304.291 47.498,306.663 50.513,306.663L55.292,306.663ZM55.292,306.001L50.513,306.001C47.875,306.001 45.733,303.926 45.733,301.371C45.733,298.815 47.875,296.741 50.513,296.741L60.755,296.741C63.393,296.741 65.534,298.815 65.534,301.371L65.534,311.293C65.534,313.848 63.393,315.923 60.755,315.923C58.117,315.923 55.975,313.848 55.975,311.293L55.975,306.663C55.975,306.297 55.669,306.001 55.292,306.001Z" style="fill:rgb(34,34,35);"/>
            </g>
            <g id="rect4" transform="matrix(1,0,0,1,120.297,-19.9359)">
                <path d="M-12.805,-279.852C-12.805,-279.182 -12.805,-277.699 -12.805,-277.029C-12.805,-276.748 -12.917,-276.479 -13.115,-276.281C-13.313,-276.082 -13.582,-275.971 -13.863,-275.971C-13.863,-275.971 -13.864,-275.971 -13.864,-275.971C-14.145,-275.971 -14.414,-276.082 -14.612,-276.281C-14.81,-276.479 -14.922,-276.748 -14.922,-277.029C-14.922,-277.699 -14.922,-279.182 -14.922,-279.852C-14.922,-280.133 -14.81,-280.402 -14.612,-280.6C-14.414,-280.798 -14.145,-280.91 -13.864,-280.91C-13.864,-280.91 -13.863,-280.91 -13.863,-280.91C-13.582,-280.91 -13.313,-280.798 -13.115,-280.6C-12.917,-280.402 -12.805,-280.133 -12.805,-279.852Z" style="fill:rgb(54,98,230);"/>
            </g>
            <g id="rect41" serif:id="rect4" transform="matrix(1,0,0,1,120.297,-9.35252)">
                <path d="M-12.805,-279.852C-12.805,-279.182 -12.805,-277.699 -12.805,-277.029C-12.805,-276.445 -13.279,-275.971 -13.864,-275.971C-13.864,-275.971 -13.864,-275.971 -13.864,-275.971C-14.448,-275.971 -14.922,-276.445 -14.922,-277.029C-14.922,-277.699 -14.922,-279.182 -14.922,-279.852C-14.922,-280.133 -14.81,-280.402 -14.612,-280.6C-14.414,-280.798 -14.145,-280.91 -13.864,-280.91C-13.864,-280.91 -13.863,-280.91 -13.863,-280.91C-13.582,-280.91 -13.313,-280.798 -13.115,-280.6C-12.917,-280.402 -12.805,-280.133 -12.805,-279.852Z" style="fill:rgb(255,144,0);"/>
            </g>
            <g id="rect42" serif:id="rect4" transform="matrix(1,0,0,1,109.714,-9.35255)">
                <path d="M-12.805,-279.852C-12.805,-279.182 -12.805,-277.699 -12.805,-277.029C-12.805,-276.445 -13.279,-275.971 -13.864,-275.971C-13.864,-275.971 -13.864,-275.971 -13.864,-275.971C-14.448,-275.971 -14.922,-276.445 -14.922,-277.029C-14.922,-277.699 -14.922,-279.182 -14.922,-279.852C-14.922,-280.133 -14.81,-280.402 -14.612,-280.6C-14.414,-280.798 -14.145,-280.91 -13.864,-280.91C-13.864,-280.91 -13.863,-280.91 -13.863,-280.91C-13.582,-280.91 -13.313,-280.798 -13.115,-280.6C-12.917,-280.402 -12.805,-280.133 -12.805,-279.852Z" style="fill:rgb(181,36,0);"/>
            </g>
        </g>
        <g transform="matrix(1,0,0,1,-0.352778,0)">
            <g id="rect1-7-2-80-1-2-97-3-3-6-4-5-6-9-2-0" transform="matrix(1.06667,4.08216e-18,-4.08216e-18,-1.03333,-7.18971,37.288)">
                <path d="M-8.572,314.594L-8.572,324.836C-8.572,327.851 -10.943,330.299 -13.864,330.299C-16.784,330.299 -19.155,327.851 -19.155,324.836L-19.155,314.594C-19.155,311.58 -16.784,309.132 -13.864,309.132C-10.943,309.132 -8.572,311.58 -8.572,314.594Z" style="fill:white;fill-opacity:0.69;"/>
                <path d="M-8.572,314.594C-8.572,311.58 -10.943,309.132 -13.864,309.132C-16.784,309.132 -19.155,311.58 -19.155,314.594L-19.155,324.836C-19.155,327.851 -16.784,330.299 -13.864,330.299C-10.943,330.299 -8.572,327.851 -8.572,324.836L-8.572,314.594ZM-9.233,314.594L-9.233,324.836C-9.233,327.474 -11.308,329.616 -13.864,329.616C-16.419,329.616 -18.494,327.474 -18.494,324.836L-18.494,314.594C-18.494,311.956 -16.419,309.815 -13.864,309.815C-11.308,309.815 -9.233,311.956 -9.233,314.594Z" style="fill:rgb(34,34,35);"/>
            </g>
            <g id="rect43" serif:id="rect4" transform="matrix(1,0,0,1,-8.11392,-19.9359)">
                <path d="M-12.805,-279.852C-12.805,-279.182 -12.805,-277.699 -12.805,-277.029C-12.805,-276.748 -12.917,-276.479 -13.115,-276.281C-13.313,-276.082 -13.582,-275.971 -13.863,-275.971C-13.863,-275.971 -13.864,-275.971 -13.864,-275.971C-14.145,-275.971 -14.414,-276.082 -14.612,-276.281C-14.81,-276.479 -14.922,-276.748 -14.922,-277.029C-14.922,-277.699 -14.922,-279.182 -14.922,-279.852C-14.922,-280.133 -14.81,-280.402 -14.612,-280.6C-14.414,-280.798 -14.145,-280.91 -13.864,-280.91C-13.864,-280.91 -13.863,-280.91 -13.863,-280.91C-13.582,-280.91 -13.313,-280.798 -13.115,-280.6C-12.917,-280.402 -12.805,-280.133 -12.805,-279.852Z" style="fill:rgb(204,0,204);"/>
            </g>
        </g>
        <g transform="matrix(1,0,0,1,13.0528,0)">
            <g id="rect1-7-2-80-1-2-97-3-3-6-4-5-6-9-2-0-5" transform="matrix(1.06667,4.08216e-18,-4.08216e-18,-1.03333,-12.4814,35.7359)">
                <path d="M-8.572,268.028L-8.572,278.27C-8.572,281.284 -10.943,283.732 -13.864,283.732C-16.784,283.732 -19.155,281.284 -19.155,278.27L-19.155,268.028C-19.155,265.013 -16.784,262.565 -13.864,262.565C-10.943,262.565 -8.572,265.013 -8.572,268.028Z" style="fill:white;fill-opacity:0.69;"/>
                <path d="M-8.572,268.028C-8.572,265.013 -10.943,262.565 -13.864,262.565C-16.784,262.565 -19.155,265.013 -19.155,268.028L-19.155,278.27C-19.155,281.284 -16.784,283.732 -13.864,283.732C-10.943,283.732 -8.572,281.284 -8.572,278.27L-8.572,268.028ZM-9.233,268.028L-9.233,278.27C-9.233,280.908 -11.308,283.049 -13.864,283.049C-16.419,283.049 -18.494,280.908 -18.494,278.27L-18.494,268.028C-18.494,265.39 -16.419,263.248 -13.864,263.248C-11.308,263.248 -9.233,265.39 -9.233,268.028Z" style="fill:rgb(34,34,35);"/>
            </g>
            <g id="rect44" serif:id="rect4" transform="matrix(1,0,0,1,-13.4056,26.6308)">
                <path d="M-12.805,-279.852C-12.805,-279.182 -12.805,-277.699 -12.805,-277.029C-12.805,-276.445 -13.279,-275.971 -13.864,-275.971C-13.864,-275.971 -13.864,-275.971 -13.864,-275.971C-14.145,-275.971 -14.414,-276.082 -14.612,-276.281C-14.81,-276.479 -14.922,-276.748 -14.922,-277.029C-14.922,-277.699 -14.922,-279.182 -14.922,-279.852C-14.922,-280.133 -14.81,-280.402 -14.612,-280.6C-14.414,-280.798 -14.145,-280.91 -13.864,-280.91C-13.864,-280.91 -13.863,-280.91 -13.863,-280.91C-13.582,-280.91 -13.313,-280.798 -13.115,-280.6C-12.917,-280.402 -12.805,-280.133 -12.805,-279.852Z" style="fill:rgb(0,128,96);"/>
            </g>
            <g id="rect45" serif:id="rect4" transform="matrix(1,0,0,1,-13.4056,37.2141)">
                <path d="M-12.805,-279.851C-12.805,-279.181 -12.805,-277.699 -12.805,-277.029C-12.805,-276.445 -13.279,-275.971 -13.864,-275.971C-13.864,-275.971 -13.864,-275.971 -13.864,-275.971C-14.448,-275.971 -14.922,-276.445 -14.922,-277.029C-14.922,-277.699 -14.922,-279.182 -14.922,-279.852C-14.922,-280.133 -14.81,-280.402 -14.612,-280.6C-14.414,-280.798 -14.145,-280.91 -13.864,-280.91C-13.864,-280.91 -13.864,-280.91 -13.864,-280.91C-13.279,-280.91 -12.805,-280.436 -12.805,-279.851Z" style="fill:rgb(0,179,231);"/>
            </g>
        </g>
        <g transform="matrix(1,0,0,1,10.5833,0)">
            <g id="rect1-7-2-80-1-2-97-3-3-6-4-5-6-9-2-0-5-2" transform="matrix(1.06667,4.08216e-18,-4.08216e-18,-1.03333,-10.3177,34.1837)">
                <path d="M-46.319,221.461L-46.319,231.703C-46.319,234.718 -48.69,237.165 -51.611,237.165C-54.531,237.165 -56.902,234.718 -56.902,231.703L-56.902,221.461C-56.902,218.446 -54.531,215.999 -51.611,215.999C-48.69,215.999 -46.319,218.446 -46.319,221.461Z" style="fill:white;fill-opacity:0.69;"/>
                <path d="M-46.319,221.461C-46.319,218.446 -48.69,215.999 -51.611,215.999C-54.531,215.999 -56.902,218.446 -56.902,221.461L-56.902,231.703C-56.902,234.718 -54.531,237.165 -51.611,237.165C-48.69,237.165 -46.319,234.718 -46.319,231.703L-46.319,221.461ZM-46.981,221.461L-46.981,231.703C-46.981,234.341 -49.055,236.483 -51.611,236.483C-54.166,236.483 -56.241,234.341 -56.241,231.703L-56.241,221.461C-56.241,218.823 -54.166,216.682 -51.611,216.682C-49.055,216.682 -46.981,218.823 -46.981,221.461Z" style="fill:rgb(34,34,35);"/>
            </g>
            <g id="rect46" serif:id="rect4" transform="matrix(6.12323e-17,1,-1,6.12323e-17,-343.81,-191.379)">
                <path d="M-12.805,-279.851C-12.805,-279.181 -12.805,-277.699 -12.805,-277.029C-12.805,-276.445 -13.279,-275.971 -13.864,-275.971C-13.864,-275.971 -13.864,-275.971 -13.864,-275.971C-14.145,-275.971 -14.414,-276.082 -14.612,-276.281C-14.81,-276.479 -14.922,-276.748 -14.922,-277.029C-14.922,-277.699 -14.922,-279.182 -14.922,-279.852C-14.922,-280.133 -14.81,-280.402 -14.612,-280.6C-14.414,-280.798 -14.145,-280.91 -13.864,-280.91C-13.864,-280.91 -13.864,-280.91 -13.864,-280.91C-13.279,-280.91 -12.805,-280.436 -12.805,-279.851Z" style="fill:rgb(0,128,96);"/>
            </g>
        </g>
    </g>
</svg>
