<?xml version="1.0" encoding="UTF-8" standalone="no"?>
<!DOCTYPE svg PUBLIC "-//W3C//DTD SVG 1.1//EN" "http://www.w3.org/Graphics/SVG/1.1/DTD/svg11.dtd">
<svg width="100%" height="100%" viewBox="0 0 1350 408" version="1.1" xmlns="http://www.w3.org/2000/svg" xmlns:xlink="http://www.w3.org/1999/xlink" xml:space="preserve" xmlns:serif="http://www.serif.com/" style="fill-rule:evenodd;clip-rule:evenodd;stroke-linecap:round;stroke-linejoin:round;">
    <g id="Black-Text" serif:id="Black Text" transform="matrix(1.50928,0,0,1.50938,-442.068,23.8714)">
        <path d="M804.773,57.879C808.254,58.534 811.091,59.821 813.286,61.738C815.48,63.655 816.577,66.53 816.577,70.364C816.577,75.963 814.572,79.91 810.562,82.206C806.551,84.501 800.939,85.648 793.726,85.648L776.852,85.648L776.852,33.211L791.683,33.211C799.048,33.211 804.672,34.258 808.557,36.352C812.441,38.445 814.383,41.863 814.383,46.604C814.383,49.682 813.462,52.166 811.621,54.058C809.78,55.949 807.497,57.223 804.773,57.879ZM789.262,41.989L789.262,54.171L793.877,54.171C799.123,54.171 801.747,52.052 801.747,47.815C801.747,45.696 801.04,44.196 799.628,43.313C798.215,42.43 795.971,41.989 792.894,41.989L789.262,41.989ZM793.802,76.644C797.08,76.644 799.565,76.152 801.255,75.169C802.945,74.185 803.79,72.356 803.79,69.683C803.79,64.84 800.763,62.419 794.71,62.419L789.262,62.419L789.262,76.644L793.802,76.644Z" style="fill-rule:nonzero;"/>
        <path d="M807.139,57.792C809.735,58.547 811.922,59.707 813.702,61.262C816.02,63.287 817.209,66.313 817.209,70.364C817.209,76.23 815.077,80.35 810.876,82.754C806.79,85.093 801.076,86.281 793.726,86.281L776.852,86.281C776.503,86.281 776.22,85.997 776.22,85.648L776.22,33.211C776.22,32.862 776.503,32.579 776.852,32.579L791.683,32.579C799.18,32.579 804.902,33.664 808.857,35.795C812.954,38.004 815.015,41.602 815.015,46.604C815.015,49.866 814.026,52.494 812.074,54.498C810.673,55.938 809.028,57.036 807.139,57.792ZM804.773,57.879C807.497,57.223 809.78,55.949 811.621,54.058C813.462,52.166 814.383,49.682 814.383,46.604C814.383,41.863 812.441,38.445 808.557,36.352C804.672,34.258 799.048,33.211 791.683,33.211L776.852,33.211L776.852,85.648L793.726,85.648C800.939,85.648 806.551,84.501 810.562,82.206C814.572,79.91 816.577,75.963 816.577,70.364C816.577,66.53 815.48,63.655 813.286,61.738C811.091,59.821 808.254,58.534 804.773,57.879ZM789.262,41.989L792.894,41.989C795.971,41.989 798.215,42.43 799.628,43.313C801.04,44.196 801.747,45.696 801.747,47.815C801.747,52.052 799.123,54.171 793.877,54.171L789.262,54.171L789.262,41.989ZM789.894,42.621L789.894,53.539L793.877,53.539C796.784,53.539 798.837,52.889 800,51.48C800.755,50.566 801.114,49.34 801.114,47.815C801.114,45.957 800.532,44.623 799.293,43.849C797.952,43.011 795.815,42.621 792.894,42.621L789.894,42.621ZM793.802,76.644L789.262,76.644L789.262,62.419L794.71,62.419C800.763,62.419 803.79,64.84 803.79,69.683C803.79,72.356 802.945,74.185 801.255,75.169C799.565,76.152 797.08,76.644 793.802,76.644ZM793.802,76.012C796.939,76.012 799.32,75.563 800.937,74.622C802.451,73.741 803.157,72.079 803.157,69.683C803.157,67.917 802.734,66.498 801.851,65.438C800.494,63.81 798.101,63.051 794.71,63.051L789.894,63.051L789.894,76.012L793.802,76.012Z" style="fill:white;"/>
        <path d="M859.858,64.764C859.858,66.429 859.783,67.867 859.631,69.077L834.737,69.077C835.141,72.457 836.099,74.828 837.613,76.19C839.126,77.552 841.219,78.233 843.893,78.233C845.507,78.233 847.071,77.943 848.584,77.363C850.097,76.783 851.737,75.887 853.502,74.677L858.421,81.335C853.729,85.068 848.508,86.935 842.758,86.935C836.251,86.935 831.257,85.018 827.776,81.184C824.295,77.35 822.555,72.205 822.555,65.748C822.555,61.662 823.286,57.992 824.749,54.739C826.212,51.485 828.356,48.912 831.181,47.021C834.006,45.129 837.386,44.183 841.32,44.183C847.121,44.183 851.661,45.999 854.94,49.631C858.219,53.263 859.858,58.307 859.858,64.764ZM848.13,61.359C848.029,55.205 845.86,52.128 841.623,52.128C839.555,52.128 837.953,52.885 836.818,54.398C835.683,55.911 834.989,58.408 834.737,61.889L848.13,61.889L848.13,61.359Z" style="fill-rule:nonzero;"/>
        <path d="M860.491,64.764C860.491,66.459 860.413,67.923 860.259,69.156C860.219,69.472 859.95,69.71 859.631,69.71L835.46,69.71C835.879,72.522 836.717,74.534 838.035,75.72C839.445,76.989 841.402,77.601 843.893,77.601C845.429,77.601 846.918,77.325 848.358,76.773C849.831,76.208 851.426,75.334 853.145,74.155C853.426,73.963 853.809,74.027 854.011,74.301L858.929,80.96C859.132,81.233 859.081,81.618 858.814,81.83C854.006,85.656 848.653,87.567 842.758,87.567C836.043,87.567 830.899,85.565 827.308,81.609C823.73,77.668 821.923,72.385 821.923,65.748C821.923,61.566 822.675,57.81 824.173,54.479C825.686,51.113 827.906,48.453 830.829,46.495C833.753,44.538 837.248,43.551 841.32,43.551C847.324,43.551 852.016,45.448 855.409,49.207C858.782,52.943 860.491,58.124 860.491,64.764ZM859.858,64.764C859.858,58.307 858.219,53.263 854.94,49.631C851.661,45.999 847.121,44.183 841.32,44.183C837.386,44.183 834.006,45.129 831.181,47.021C828.356,48.912 826.212,51.485 824.749,54.739C823.286,57.992 822.555,61.662 822.555,65.748C822.555,72.205 824.295,77.35 827.776,81.184C831.257,85.018 836.251,86.935 842.758,86.935C848.508,86.935 853.729,85.068 858.421,81.335L853.502,74.677C851.737,75.887 850.097,76.783 848.584,77.363C847.071,77.943 845.507,78.233 843.893,78.233C841.219,78.233 839.126,77.552 837.613,76.19C836.099,74.828 835.141,72.457 834.737,69.077L859.631,69.077C859.783,67.867 859.858,66.429 859.858,64.764ZM848.13,61.359L848.13,61.889L834.737,61.889C834.989,58.408 835.683,55.911 836.818,54.398C837.953,52.885 839.555,52.128 841.623,52.128C845.86,52.128 848.029,55.205 848.13,61.359ZM847.496,61.257C847.38,55.651 845.507,52.76 841.623,52.76C839.775,52.76 838.338,53.425 837.324,54.777C836.316,56.121 835.698,58.286 835.424,61.257L847.496,61.257Z" style="fill:white;"/>
        <path d="M893.303,83.757C891.84,84.766 890.138,85.547 888.196,86.102C886.253,86.657 884.324,86.935 882.407,86.935C873.63,86.884 869.241,82.042 869.241,72.407L869.241,53.793L863.566,53.793L863.566,45.469L869.241,45.469L869.241,36.768L881.196,35.406L881.196,45.469L890.428,45.469L889.141,53.793L881.196,53.793L881.196,72.255C881.196,74.122 881.499,75.459 882.104,76.266C882.71,77.073 883.668,77.476 884.98,77.476C886.342,77.476 887.779,77.048 889.293,76.19L893.303,83.757Z" style="fill-rule:nonzero;"/>
        <path d="M893.662,84.277C892.146,85.323 890.382,86.135 888.369,86.71C886.369,87.282 884.381,87.567 882.407,87.567L882.403,87.567C877.803,87.54 874.364,86.227 872.064,83.689C869.782,81.171 868.609,77.417 868.609,72.407L868.609,54.425L863.566,54.425C863.217,54.425 862.934,54.142 862.934,53.793L862.934,45.469C862.934,45.12 863.217,44.837 863.566,44.837L868.609,44.837L868.609,36.768C868.609,36.446 868.85,36.176 869.17,36.14L881.125,34.778C881.304,34.757 881.483,34.814 881.617,34.934C881.752,35.054 881.829,35.226 881.829,35.406L881.829,44.837L890.428,44.837C890.612,44.837 890.788,44.918 890.908,45.058C891.028,45.198 891.081,45.384 891.053,45.566L889.766,53.889C889.719,54.197 889.453,54.425 889.141,54.425L881.829,54.425L881.829,72.255C881.829,73.941 882.063,75.157 882.61,75.886C883.106,76.548 883.905,76.844 884.98,76.844C886.244,76.844 887.576,76.436 888.981,75.64C889.13,75.556 889.306,75.535 889.47,75.583C889.634,75.631 889.771,75.743 889.851,75.894L893.862,83.461C894.012,83.744 893.926,84.095 893.662,84.277ZM893.303,83.757L889.293,76.19C887.779,77.048 886.342,77.476 884.98,77.476C883.668,77.476 882.71,77.073 882.104,76.266C881.499,75.459 881.196,74.122 881.196,72.255L881.196,53.793L889.141,53.793L890.428,45.469L881.196,45.469L881.196,35.406L869.241,36.768L869.241,45.469L863.566,45.469L863.566,53.793L869.241,53.793L869.241,72.407C869.241,82.042 873.63,86.884 882.407,86.935C884.324,86.935 886.253,86.657 888.196,86.102C890.138,85.547 891.84,84.766 893.303,83.757Z" style="fill:white;"/>
        <path d="M924.024,83.757C922.561,84.766 920.858,85.547 918.916,86.102C916.974,86.657 915.045,86.935 913.128,86.935C904.35,86.884 899.962,82.042 899.962,72.407L899.962,53.793L894.287,53.793L894.287,45.469L899.962,45.469L899.962,36.768L911.917,35.406L911.917,45.469L921.148,45.469L919.862,53.793L911.917,53.793L911.917,72.255C911.917,74.122 912.22,75.459 912.825,76.266C913.43,77.073 914.389,77.476 915.7,77.476C917.062,77.476 918.5,77.048 920.013,76.19L924.024,83.757Z" style="fill-rule:nonzero;"/>
        <path d="M924.383,84.277C922.866,85.323 921.103,86.135 919.09,86.71C917.09,87.282 915.102,87.567 913.128,87.567L913.124,87.567C908.524,87.54 905.085,86.227 902.785,83.689C900.503,81.171 899.329,77.417 899.329,72.407L899.329,54.425L894.287,54.425C893.938,54.425 893.655,54.142 893.655,53.793L893.655,45.469C893.655,45.12 893.938,44.837 894.287,44.837L899.329,44.837L899.329,36.768C899.329,36.446 899.571,36.176 899.89,36.14L911.845,34.778C912.024,34.757 912.204,34.814 912.338,34.934C912.472,35.054 912.549,35.226 912.549,35.406L912.549,44.837L921.148,44.837C921.333,44.837 921.508,44.918 921.628,45.058C921.748,45.198 921.801,45.384 921.773,45.566L920.487,53.889C920.439,54.197 920.174,54.425 919.862,54.425L912.549,54.425L912.549,72.255C912.549,73.941 912.784,75.157 913.331,75.886C913.827,76.548 914.626,76.844 915.7,76.844C916.965,76.844 918.297,76.436 919.702,75.64C919.85,75.556 920.027,75.535 920.19,75.583C920.354,75.631 920.492,75.743 920.572,75.894L924.582,83.461C924.733,83.744 924.647,84.095 924.383,84.277ZM924.024,83.757L920.013,76.19C918.5,77.048 917.062,77.476 915.7,77.476C914.389,77.476 913.43,77.073 912.825,76.266C912.22,75.459 911.917,74.122 911.917,72.255L911.917,53.793L919.862,53.793L921.148,45.469L911.917,45.469L911.917,35.406L899.962,36.768L899.962,45.469L894.287,45.469L894.287,53.793L899.962,53.793L899.962,72.407C899.962,82.042 904.35,86.884 913.128,86.935C915.045,86.935 916.974,86.657 918.916,86.102C920.858,85.547 922.561,84.766 924.024,83.757Z" style="fill:white;"/>
        <path d="M963.219,64.764C963.219,66.429 963.143,67.867 962.992,69.077L938.098,69.077C938.501,72.457 939.46,74.828 940.973,76.19C942.486,77.552 944.58,78.233 947.253,78.233C948.868,78.233 950.431,77.943 951.945,77.363C953.458,76.783 955.097,75.887 956.863,74.677L961.781,81.335C957.09,85.068 951.869,86.935 946.118,86.935C939.611,86.935 934.617,85.018 931.136,81.184C927.656,77.35 925.915,72.205 925.915,65.748C925.915,61.662 926.647,57.992 928.11,54.739C929.573,51.485 931.716,48.912 934.541,47.021C937.366,45.129 940.746,44.183 944.681,44.183C950.482,44.183 955.022,45.999 958.301,49.631C961.58,53.263 963.219,58.307 963.219,64.764ZM951.491,61.359C951.39,55.205 949.221,52.128 944.983,52.128C942.915,52.128 941.313,52.885 940.178,54.398C939.043,55.911 938.35,58.408 938.098,61.889L951.491,61.889L951.491,61.359Z" style="fill-rule:nonzero;"/>
        <path d="M963.851,64.764C963.851,66.459 963.773,67.923 963.619,69.156C963.58,69.472 963.311,69.71 962.992,69.71L938.82,69.71C939.24,72.522 940.078,74.534 941.396,75.72C942.806,76.989 944.763,77.601 947.253,77.601C948.79,77.601 950.278,77.325 951.718,76.773C953.192,76.208 954.787,75.334 956.505,74.155C956.786,73.963 957.169,74.027 957.372,74.301L962.29,80.96C962.492,81.233 962.441,81.618 962.175,81.83C957.366,85.656 952.013,87.567 946.118,87.567C939.404,87.567 934.26,85.565 930.668,81.609C927.09,77.668 925.283,72.385 925.283,65.748C925.283,61.566 926.036,57.81 927.533,54.479C929.047,51.113 931.267,48.453 934.19,46.495C937.113,44.538 940.609,43.551 944.681,43.551C950.685,43.551 955.376,45.448 958.77,49.207C962.142,52.943 963.851,58.124 963.851,64.764ZM963.219,64.764C963.219,58.307 961.58,53.263 958.301,49.631C955.022,45.999 950.482,44.183 944.681,44.183C940.746,44.183 937.366,45.129 934.541,47.021C931.716,48.912 929.573,51.485 928.11,54.739C926.647,57.992 925.915,61.662 925.915,65.748C925.915,72.205 927.656,77.35 931.136,81.184C934.617,85.018 939.611,86.935 946.118,86.935C951.869,86.935 957.09,85.068 961.781,81.335L956.863,74.677C955.097,75.887 953.458,76.783 951.945,77.363C950.431,77.943 948.868,78.233 947.253,78.233C944.58,78.233 942.486,77.552 940.973,76.19C939.46,74.828 938.501,72.457 938.098,69.077L962.992,69.077C963.143,67.867 963.219,66.429 963.219,64.764ZM951.491,61.359L951.491,61.889L938.098,61.889C938.35,58.408 939.043,55.911 940.178,54.398C941.313,52.885 942.915,52.128 944.983,52.128C949.221,52.128 951.39,55.205 951.491,61.359ZM950.856,61.257C950.74,55.651 948.868,52.76 944.983,52.76C943.135,52.76 941.699,53.425 940.684,54.777C939.676,56.121 939.059,58.286 938.784,61.257L950.856,61.257Z" style="fill:white;"/>
        <path d="M993.259,44.334C994.721,44.334 996.058,44.511 997.269,44.864L995.377,56.441C993.864,56.088 992.653,55.911 991.745,55.911C989.374,55.911 987.571,56.731 986.335,58.371C985.099,60.01 984.128,62.469 983.422,65.748L983.422,85.648L971.467,85.648L971.467,45.469L981.909,45.469L982.892,53.263C983.8,50.489 985.175,48.307 987.016,46.718C988.857,45.129 990.938,44.334 993.259,44.334Z" style="fill-rule:nonzero;"/>
        <path d="M993.259,43.702C994.786,43.702 996.182,43.888 997.446,44.257C997.753,44.347 997.944,44.651 997.893,44.966L996.001,56.543C995.973,56.716 995.874,56.869 995.729,56.966C995.583,57.064 995.404,57.096 995.234,57.057C993.78,56.717 992.617,56.544 991.745,56.544C989.599,56.544 987.959,57.267 986.84,58.751C985.655,60.323 984.735,62.682 984.054,65.816L984.054,85.648C984.054,85.997 983.771,86.281 983.422,86.281L971.467,86.281C971.117,86.281 970.834,85.997 970.834,85.648L970.834,45.469C970.834,45.12 971.117,44.837 971.467,44.837L981.909,44.837C982.227,44.837 982.496,45.074 982.536,45.39L983.214,50.758C984.093,48.934 985.225,47.429 986.603,46.239C988.566,44.546 990.785,43.702 993.259,43.702ZM993.259,44.334C990.938,44.334 988.857,45.129 987.016,46.718C985.175,48.307 983.8,50.489 982.892,53.263L981.909,45.469L971.467,45.469L971.467,85.648L983.422,85.648L983.422,65.748C984.128,62.469 985.099,60.01 986.335,58.371C987.571,56.731 989.374,55.911 991.745,55.911C992.653,55.911 993.864,56.088 995.377,56.441L997.269,44.864C996.058,44.511 994.721,44.334 993.259,44.334Z" style="fill:white;"/>
        <path d="M810.713,103.736L809.502,113.27L796.563,113.27L796.563,156.172L784.154,156.172L784.154,113.27L770.61,113.27L770.61,103.736L810.713,103.736Z" style="fill-rule:nonzero;"/>
        <path d="M811.34,103.815L810.13,113.349C810.089,113.665 809.821,113.902 809.502,113.902L797.196,113.902L797.196,156.172C797.196,156.522 796.913,156.805 796.563,156.805L784.154,156.805C783.805,156.805 783.522,156.522 783.522,156.172L783.522,113.902L770.61,113.902C770.261,113.902 769.978,113.619 769.978,113.27L769.978,103.736C769.978,103.386 770.261,103.103 770.61,103.103L810.713,103.103C810.895,103.103 811.067,103.181 811.187,103.318C811.307,103.454 811.363,103.635 811.34,103.815ZM810.713,103.736L770.61,103.736L770.61,113.27L784.154,113.27L784.154,156.172L796.563,156.172L796.563,113.27L809.502,113.27L810.713,103.736Z" style="fill:white;"/>
        <path d="M836.515,114.859C837.978,114.859 839.315,115.035 840.526,115.388L838.634,126.965C837.121,126.612 835.91,126.436 835.002,126.436C832.631,126.436 830.828,127.255 829.592,128.895C828.356,130.534 827.385,132.993 826.679,136.272L826.679,156.172L814.723,156.172L814.723,115.994L825.165,115.994L826.149,123.787C827.057,121.013 828.432,118.831 830.273,117.242C832.114,115.653 834.195,114.859 836.515,114.859Z" style="fill-rule:nonzero;"/>
        <path d="M836.515,114.226C838.043,114.226 839.439,114.413 840.703,114.781C841.009,114.871 841.201,115.175 841.15,115.49L839.258,127.067C839.23,127.24 839.131,127.393 838.986,127.491C838.84,127.588 838.661,127.621 838.49,127.581C837.037,127.242 835.874,127.068 835.002,127.068C832.856,127.068 831.215,127.791 830.097,129.275C828.911,130.848 827.992,133.206 827.311,136.34L827.311,156.172C827.311,156.522 827.028,156.805 826.679,156.805L814.723,156.805C814.374,156.805 814.091,156.522 814.091,156.172L814.091,115.994C814.091,115.644 814.374,115.361 814.723,115.361L825.165,115.361C825.484,115.361 825.753,115.598 825.793,115.914L826.471,121.283C827.35,119.458 828.482,117.953 829.86,116.763C831.822,115.07 834.042,114.226 836.515,114.226ZM836.515,114.859C834.195,114.859 832.114,115.653 830.273,117.242C828.432,118.831 827.057,121.013 826.149,123.787L825.165,115.994L814.723,115.994L814.723,156.172L826.679,156.172L826.679,136.272C827.385,132.993 828.356,130.534 829.592,128.895C830.828,127.255 832.631,126.436 835.002,126.436C835.91,126.436 837.121,126.612 838.634,126.965L840.526,115.388C839.315,115.035 837.978,114.859 836.515,114.859Z" style="fill:white;"/>
        <path d="M875.862,144.52C875.862,146.033 876.076,147.143 876.505,147.849C876.934,148.555 877.627,149.085 878.586,149.438L876.089,157.232C873.617,157.03 871.599,156.488 870.036,155.605C868.472,154.722 867.261,153.322 866.404,151.405C863.781,155.441 859.745,157.459 854.297,157.459C850.312,157.459 847.134,156.299 844.763,153.978C842.392,151.658 841.207,148.631 841.207,144.898C841.207,140.509 842.821,137.155 846.049,134.835C849.278,132.514 853.944,131.354 860.048,131.354L864.134,131.354L864.134,129.614C864.134,127.243 863.629,125.616 862.62,124.733C861.611,123.85 859.846,123.409 857.324,123.409C856.012,123.409 854.423,123.598 852.557,123.976C850.69,124.355 848.773,124.872 846.806,125.528L844.082,117.658C846.604,116.7 849.189,115.968 851.838,115.464C854.486,114.959 856.945,114.707 859.215,114.707C864.966,114.707 869.178,115.893 871.852,118.264C874.525,120.634 875.862,124.191 875.862,128.933L875.862,144.52ZM857.778,148.908C860.502,148.908 862.62,147.622 864.134,145.049L864.134,137.937L861.183,137.937C858.459,137.937 856.428,138.416 855.091,139.375C853.755,140.333 853.086,141.821 853.086,143.839C853.086,145.453 853.502,146.702 854.335,147.584C855.167,148.467 856.315,148.908 857.778,148.908Z" style="fill-rule:nonzero;"/>
        <path d="M876.494,144.52C876.494,145.882 876.66,146.886 877.046,147.521C877.406,148.115 877.999,148.548 878.805,148.845C879.122,148.962 879.291,149.309 879.188,149.631L876.691,157.425C876.601,157.705 876.331,157.886 876.037,157.862C873.459,157.651 871.356,157.076 869.725,156.155C868.326,155.366 867.186,154.195 866.313,152.636C863.575,156.263 859.574,158.091 854.297,158.091C850.124,158.091 846.803,156.859 844.321,154.43C841.831,151.993 840.574,148.819 840.574,144.898C840.574,140.283 842.285,136.761 845.68,134.321C848.995,131.939 853.78,130.722 860.048,130.722L863.501,130.722L863.501,129.614C863.501,127.483 863.111,126.002 862.204,125.209C861.277,124.397 859.642,124.041 857.324,124.041C856.047,124.041 854.5,124.228 852.682,124.596C850.84,124.969 848.948,125.48 847.006,126.127C846.677,126.237 846.322,126.062 846.209,125.734L843.485,117.865C843.373,117.542 843.538,117.189 843.857,117.067C846.414,116.096 849.035,115.354 851.72,114.843C854.41,114.33 856.909,114.075 859.215,114.075C865.162,114.075 869.507,115.339 872.271,117.791C875.066,120.269 876.494,123.975 876.494,128.933L876.494,144.52ZM875.862,144.52L875.862,128.933C875.862,124.191 874.525,120.634 871.852,118.264C869.178,115.893 864.966,114.707 859.215,114.707C856.945,114.707 854.486,114.959 851.838,115.464C849.189,115.968 846.604,116.7 844.082,117.658L846.806,125.528C848.773,124.872 850.69,124.355 852.557,123.976C854.423,123.598 856.012,123.409 857.324,123.409C859.846,123.409 861.611,123.85 862.62,124.733C863.629,125.616 864.134,127.243 864.134,129.614L864.134,131.354L860.048,131.354C853.944,131.354 849.278,132.514 846.049,134.835C842.821,137.155 841.207,140.509 841.207,144.898C841.207,148.631 842.392,151.658 844.763,153.978C847.134,156.299 850.312,157.459 854.297,157.459C859.745,157.459 863.781,155.441 866.404,151.405C867.261,153.322 868.472,154.722 870.036,155.605C871.599,156.488 873.617,157.03 876.089,157.232L878.586,149.438C877.627,149.085 876.934,148.555 876.505,147.849C876.076,147.143 875.862,146.033 875.862,144.52ZM857.778,148.908C856.315,148.908 855.167,148.467 854.335,147.584C853.502,146.702 853.086,145.453 853.086,143.839C853.086,141.821 853.755,140.333 855.091,139.375C856.428,138.416 858.459,137.937 861.183,137.937L864.134,137.937L864.134,145.049C862.62,147.622 860.502,148.908 857.778,148.908ZM857.778,148.276C860.22,148.276 862.122,147.134 863.501,144.875L863.501,138.569L861.183,138.569C858.627,138.569 856.714,138.989 855.46,139.888C854.281,140.734 853.719,142.059 853.719,143.839C853.719,145.263 854.061,146.372 854.795,147.151C855.514,147.914 856.513,148.276 857.778,148.276Z" style="fill:white;"/>
        <path d="M910.442,114.707C913.922,114.707 916.646,115.767 918.614,117.885C920.581,120.004 921.565,122.98 921.565,126.814L921.565,156.172L909.609,156.172L909.609,128.857C909.609,126.839 909.294,125.439 908.663,124.657C908.033,123.875 907.087,123.485 905.826,123.485C903.405,123.485 901.084,125.225 898.865,128.706L898.865,156.172L886.909,156.172L886.909,115.994L897.351,115.994L898.184,120.761C899.899,118.743 901.753,117.229 903.745,116.221C905.738,115.212 907.97,114.707 910.442,114.707Z" style="fill-rule:nonzero;"/>
        <path d="M910.442,114.075C914.123,114.075 916.996,115.214 919.077,117.455C921.141,119.678 922.197,122.792 922.197,126.814L922.197,156.172C922.197,156.522 921.914,156.805 921.565,156.805L909.609,156.805C909.26,156.805 908.977,156.522 908.977,156.172L908.977,128.857C908.977,127.035 908.741,125.76 908.171,125.054C907.653,124.411 906.863,124.117 905.826,124.117C903.608,124.117 901.531,125.752 899.497,128.891L899.497,156.172C899.497,156.522 899.214,156.805 898.865,156.805L886.909,156.805C886.56,156.805 886.277,156.522 886.277,156.172L886.277,115.994C886.277,115.644 886.56,115.361 886.909,115.361L897.351,115.361C897.658,115.361 897.921,115.582 897.974,115.885L898.583,119.37C900.108,117.767 901.734,116.53 903.459,115.657C905.537,114.605 907.864,114.075 910.442,114.075ZM910.442,114.707C907.97,114.707 905.738,115.212 903.745,116.221C901.753,117.229 899.899,118.743 898.184,120.761L897.351,115.994L886.909,115.994L886.909,156.172L898.865,156.172L898.865,128.706C901.084,125.225 903.405,123.485 905.826,123.485C907.087,123.485 908.033,123.875 908.663,124.657C909.294,125.439 909.609,126.839 909.609,128.857L909.609,156.172L921.565,156.172L921.565,126.814C921.565,122.98 920.581,120.004 918.614,117.885C916.646,115.767 913.922,114.707 910.442,114.707Z" style="fill:white;"/>
        <path d="M946.232,114.707C949.107,114.707 951.806,115.136 954.328,115.994C956.85,116.851 959.07,118.062 960.987,119.626L956.598,126.36C953.319,124.292 950.015,123.258 946.686,123.258C945.122,123.258 943.924,123.522 943.092,124.052C942.259,124.582 941.843,125.326 941.843,126.284C941.843,127.041 942.032,127.659 942.411,128.138C942.789,128.617 943.558,129.109 944.718,129.614C945.879,130.118 947.669,130.723 950.091,131.43C954.278,132.64 957.393,134.217 959.436,136.159C961.479,138.101 962.5,140.787 962.5,144.217C962.5,146.941 961.718,149.299 960.154,151.292C958.591,153.285 956.447,154.81 953.723,155.87C950.999,156.929 947.972,157.459 944.643,157.459C941.263,157.459 938.123,156.929 935.222,155.87C932.322,154.81 929.863,153.348 927.845,151.481L933.671,144.974C937.051,147.597 940.607,148.908 944.34,148.908C946.156,148.908 947.581,148.581 948.615,147.925C949.649,147.269 950.166,146.336 950.166,145.125C950.166,144.167 949.965,143.41 949.561,142.855C949.158,142.3 948.376,141.783 947.215,141.304C946.055,140.825 944.214,140.232 941.692,139.526C937.707,138.366 934.73,136.751 932.763,134.683C930.796,132.615 929.812,130.042 929.812,126.965C929.812,124.645 930.481,122.564 931.817,120.723C933.154,118.881 935.071,117.419 937.568,116.334C940.065,115.249 942.953,114.707 946.232,114.707Z" style="fill-rule:nonzero;"/>
        <path d="M946.232,114.075C949.179,114.075 951.946,114.516 954.532,115.395C957.128,116.278 959.413,117.526 961.386,119.136C961.637,119.34 961.693,119.7 961.516,119.971L957.128,126.705C956.939,126.994 956.553,127.079 956.261,126.895C953.093,124.896 949.903,123.89 946.686,123.89C945.272,123.89 944.184,124.106 943.431,124.585C942.797,124.989 942.475,125.554 942.475,126.284C942.475,126.879 942.609,127.369 942.907,127.746C943.243,128.172 943.94,128.586 944.971,129.034C946.114,129.531 947.881,130.126 950.266,130.822C954.573,132.067 957.77,133.703 959.871,135.7C962.032,137.755 963.132,140.589 963.132,144.217C963.132,147.092 962.302,149.579 960.652,151.682C959.022,153.759 956.791,155.355 953.952,156.459C951.159,157.545 948.056,158.091 944.643,158.091C941.185,158.091 937.973,157.547 935.005,156.464C932.021,155.374 929.492,153.866 927.416,151.945C927.162,151.711 927.144,151.317 927.374,151.059L933.2,144.552C933.422,144.305 933.797,144.271 934.059,144.474C937.317,147.003 940.742,148.276 944.34,148.276C946.01,148.276 947.326,147.994 948.277,147.391C949.114,146.86 949.534,146.105 949.534,145.125C949.534,144.326 949.386,143.69 949.05,143.227C948.695,142.74 947.993,142.309 946.974,141.888C945.829,141.415 944.011,140.832 941.521,140.135L941.515,140.133C937.401,138.935 934.336,137.254 932.305,135.119C930.226,132.933 929.18,130.217 929.18,126.965C929.18,124.507 929.889,122.302 931.306,120.351C932.704,118.425 934.704,116.889 937.316,115.754C939.886,114.638 942.857,114.075 946.232,114.075ZM946.232,114.707C942.953,114.707 940.065,115.249 937.568,116.334C935.071,117.419 933.154,118.881 931.817,120.723C930.481,122.564 929.812,124.645 929.812,126.965C929.812,130.042 930.796,132.615 932.763,134.683C934.73,136.751 937.707,138.366 941.692,139.526C944.214,140.232 946.055,140.825 947.215,141.304C948.376,141.783 949.158,142.3 949.561,142.855C949.965,143.41 950.166,144.167 950.166,145.125C950.166,146.336 949.649,147.269 948.615,147.925C947.581,148.581 946.156,148.908 944.34,148.908C940.607,148.908 937.051,147.597 933.671,144.974L927.845,151.481C929.863,153.348 932.322,154.81 935.222,155.87C938.123,156.929 941.263,157.459 944.643,157.459C947.972,157.459 950.999,156.929 953.723,155.87C956.447,154.81 958.591,153.285 960.154,151.292C961.718,149.299 962.5,146.941 962.5,144.217C962.5,140.787 961.479,138.101 959.436,136.159C957.393,134.217 954.278,132.64 950.091,131.43C947.669,130.723 945.879,130.118 944.718,129.614C943.558,129.109 942.789,128.617 942.411,128.138C942.032,127.659 941.843,127.041 941.843,126.284C941.843,125.326 942.259,124.582 943.092,124.052C943.924,123.522 945.122,123.258 946.686,123.258C950.015,123.258 953.319,124.292 956.598,126.36L960.987,119.626C959.07,118.062 956.85,116.851 954.328,115.994C951.806,115.136 949.107,114.707 946.232,114.707Z" style="fill:white;"/>
        <path d="M992.842,114.707C997.887,114.707 1001.64,116.574 1004.12,120.307C1006.59,124.039 1007.82,129.26 1007.82,135.97C1007.82,140.106 1007.18,143.801 1005.89,147.055C1004.61,150.308 1002.75,152.856 1000.33,154.697C997.912,156.538 995.087,157.459 991.859,157.459C987.823,157.459 984.57,156.072 982.098,153.297L982.098,171.684L970.142,172.97L970.142,115.994L980.66,115.994L981.265,120.458C982.829,118.491 984.62,117.04 986.638,116.107C988.656,115.174 990.724,114.707 992.842,114.707ZM988.227,148.681C993.019,148.681 995.415,144.495 995.415,136.121C995.415,131.379 994.885,128.088 993.826,126.246C992.767,124.405 991.178,123.485 989.059,123.485C987.697,123.485 986.423,123.888 985.238,124.695C984.052,125.502 983.006,126.663 982.098,128.176L982.098,145.125C983.712,147.496 985.755,148.681 988.227,148.681Z" style="fill-rule:nonzero;"/>
        <path d="M992.842,114.075C998.127,114.075 1002.06,116.047 1004.64,119.958C1007.17,123.775 1008.46,129.109 1008.46,135.97C1008.46,140.193 1007.8,143.965 1006.48,147.287C1005.15,150.658 1003.22,153.293 1000.72,155.2C998.185,157.125 995.233,158.091 991.859,158.091C988.203,158.091 985.162,156.999 982.73,154.826L982.73,171.684C982.73,172.007 982.487,172.278 982.165,172.313L970.21,173.599C970.032,173.618 969.853,173.561 969.72,173.441C969.586,173.321 969.51,173.15 969.51,172.97L969.51,115.994C969.51,115.644 969.793,115.361 970.142,115.361L980.66,115.361C980.976,115.361 981.244,115.595 981.287,115.909L981.703,118.978C983.102,117.472 984.66,116.325 986.372,115.533C988.476,114.56 990.633,114.075 992.842,114.075ZM992.842,114.707C990.724,114.707 988.656,115.174 986.638,116.107C984.62,117.04 982.829,118.491 981.265,120.458L980.66,115.994L970.142,115.994L970.142,172.97L982.098,171.684L982.098,153.297C984.57,156.072 987.823,157.459 991.859,157.459C995.087,157.459 997.912,156.538 1000.33,154.697C1002.75,152.856 1004.61,150.308 1005.89,147.055C1007.18,143.801 1007.82,140.106 1007.82,135.97C1007.82,129.26 1006.59,124.039 1004.12,120.307C1001.64,116.574 997.887,114.707 992.842,114.707ZM988.227,148.681C985.755,148.681 983.712,147.496 982.098,145.125L982.098,128.176C983.006,126.663 984.052,125.502 985.238,124.695C986.423,123.888 987.697,123.485 989.059,123.485C991.178,123.485 992.767,124.405 993.826,126.246C994.885,128.088 995.415,131.379 995.415,136.121C995.415,144.495 993.019,148.681 988.227,148.681ZM988.227,148.049C990.829,148.049 992.633,146.662 993.674,143.934C994.419,141.981 994.783,139.376 994.783,136.121C994.783,131.533 994.303,128.343 993.278,126.562C992.34,124.932 990.934,124.117 989.059,124.117C987.824,124.117 986.669,124.486 985.594,125.218C984.516,125.951 983.564,126.999 982.73,128.353L982.73,144.928C984.192,146.996 986.017,148.049 988.227,148.049Z" style="fill:white;"/>
        <path d="M1034.23,114.707C1040.39,114.707 1045.2,116.586 1048.68,120.344C1052.16,124.102 1053.9,129.361 1053.9,136.121C1053.9,140.409 1053.11,144.154 1051.52,147.357C1049.93,150.561 1047.66,153.045 1044.71,154.81C1041.76,156.576 1038.27,157.459 1034.23,157.459C1028.13,157.459 1023.32,155.58 1019.82,151.822C1016.31,148.064 1014.56,142.805 1014.56,136.045C1014.56,131.757 1015.35,128.012 1016.94,124.809C1018.53,121.605 1020.8,119.121 1023.75,117.356C1026.7,115.59 1030.2,114.707 1034.23,114.707ZM1034.23,123.485C1031.81,123.485 1030,124.506 1028.78,126.549C1027.57,128.592 1026.97,131.757 1026.97,136.045C1026.97,140.434 1027.56,143.637 1028.75,145.655C1029.93,147.673 1031.76,148.681 1034.23,148.681C1036.65,148.681 1038.47,147.66 1039.68,145.617C1040.89,143.574 1041.5,140.409 1041.5,136.121C1041.5,131.732 1040.9,128.529 1039.72,126.511C1038.53,124.493 1036.7,123.485 1034.23,123.485Z" style="fill-rule:nonzero;"/>
        <path d="M1034.23,114.075C1040.59,114.075 1045.55,116.034 1049.15,119.915C1052.72,123.777 1054.54,129.174 1054.54,136.121C1054.54,140.516 1053.72,144.355 1052.09,147.638C1050.44,150.954 1048.09,153.525 1045.04,155.353C1041.99,157.174 1038.39,158.091 1034.23,158.091C1027.93,158.091 1022.98,156.133 1019.36,152.253C1015.75,148.39 1013.93,142.993 1013.93,136.045C1013.93,131.65 1014.75,127.811 1016.38,124.528C1018.02,121.212 1020.37,118.641 1023.43,116.813C1026.47,114.992 1030.07,114.075 1034.23,114.075ZM1034.23,114.707C1030.2,114.707 1026.7,115.59 1023.75,117.356C1020.8,119.121 1018.53,121.605 1016.94,124.809C1015.35,128.012 1014.56,131.757 1014.56,136.045C1014.56,142.805 1016.31,148.064 1019.82,151.822C1023.32,155.58 1028.13,157.459 1034.23,157.459C1038.27,157.459 1041.76,156.576 1044.71,154.81C1047.66,153.045 1049.93,150.561 1051.52,147.357C1053.11,144.154 1053.9,140.409 1053.9,136.121C1053.9,129.361 1052.16,124.102 1048.68,120.344C1045.2,116.586 1040.39,114.707 1034.23,114.707ZM1034.23,123.485C1036.7,123.485 1038.53,124.493 1039.72,126.511C1040.9,128.529 1041.5,131.732 1041.5,136.121C1041.5,140.409 1040.89,143.574 1039.68,145.617C1038.47,147.66 1036.65,148.681 1034.23,148.681C1031.76,148.681 1029.93,147.673 1028.75,145.655C1027.56,143.637 1026.97,140.434 1026.97,136.045C1026.97,131.757 1027.57,128.592 1028.78,126.549C1030,124.506 1031.81,123.485 1034.23,123.485ZM1034.23,124.117C1032.05,124.117 1030.42,125.033 1029.33,126.871C1028.16,128.844 1027.6,131.905 1027.6,136.045C1027.6,140.285 1028.15,143.385 1029.29,145.335C1030.36,147.15 1032.01,148.049 1034.23,148.049C1036.41,148.049 1038.05,147.133 1039.14,145.295C1040.31,143.322 1040.86,140.261 1040.86,136.121C1040.86,131.881 1040.32,128.781 1039.17,126.831C1038.11,125.016 1036.46,124.117 1034.23,124.117Z" style="fill:white;"/>
        <path d="M1084.32,114.859C1085.79,114.859 1087.12,115.035 1088.33,115.388L1086.44,126.965C1084.93,126.612 1083.72,126.436 1082.81,126.436C1080.44,126.436 1078.64,127.255 1077.4,128.895C1076.16,130.534 1075.19,132.993 1074.49,136.272L1074.49,156.172L1062.53,156.172L1062.53,115.994L1072.97,115.994L1073.96,123.787C1074.87,121.013 1076.24,118.831 1078.08,117.242C1079.92,115.653 1082,114.859 1084.32,114.859Z" style="fill-rule:nonzero;"/>
        <path d="M1084.32,114.226C1085.85,114.226 1087.25,114.413 1088.51,114.781C1088.82,114.871 1089.01,115.175 1088.96,115.49L1087.07,127.067C1087.04,127.24 1086.94,127.393 1086.79,127.491C1086.65,127.588 1086.47,127.621 1086.3,127.581C1084.84,127.242 1083.68,127.068 1082.81,127.068C1080.66,127.068 1079.02,127.791 1077.9,129.275C1076.72,130.848 1075.8,133.206 1075.12,136.34L1075.12,156.172C1075.12,156.522 1074.84,156.805 1074.49,156.805L1062.53,156.805C1062.18,156.805 1061.9,156.522 1061.9,156.172L1061.9,115.994C1061.9,115.644 1062.18,115.361 1062.53,115.361L1072.97,115.361C1073.29,115.361 1073.56,115.598 1073.6,115.914L1074.28,121.283C1075.16,119.458 1076.29,117.953 1077.67,116.763C1079.63,115.07 1081.85,114.226 1084.32,114.226ZM1084.32,114.859C1082,114.859 1079.92,115.653 1078.08,117.242C1076.24,118.831 1074.87,121.013 1073.96,123.787L1072.97,115.994L1062.53,115.994L1062.53,156.172L1074.49,156.172L1074.49,136.272C1075.19,132.993 1076.16,130.534 1077.4,128.895C1078.64,127.255 1080.44,126.436 1082.81,126.436C1083.72,126.436 1084.93,126.612 1086.44,126.965L1088.33,115.388C1087.12,115.035 1085.79,114.859 1084.32,114.859Z" style="fill:white;"/>
        <path d="M1119.58,154.281C1118.12,155.29 1116.42,156.072 1114.48,156.626C1112.53,157.181 1110.61,157.459 1108.69,157.459C1099.91,157.408 1095.52,152.566 1095.52,142.931L1095.52,124.317L1089.85,124.317L1089.85,115.994L1095.52,115.994L1095.52,107.292L1107.48,105.93L1107.48,115.994L1116.71,115.994L1115.42,124.317L1107.48,124.317L1107.48,142.779C1107.48,144.646 1107.78,145.983 1108.38,146.79C1108.99,147.597 1109.95,148 1111.26,148C1112.62,148 1114.06,147.572 1115.57,146.714L1119.58,154.281Z" style="fill-rule:nonzero;"/>
        <path d="M1119.94,154.801C1118.43,155.847 1116.66,156.659 1114.65,157.234C1112.65,157.806 1110.66,158.091 1108.69,158.091L1108.68,158.091C1104.08,158.065 1100.64,156.752 1098.35,154.213C1096.06,151.695 1094.89,147.941 1094.89,142.931L1094.89,124.949L1089.85,124.949C1089.5,124.949 1089.21,124.666 1089.21,124.317L1089.21,115.994C1089.21,115.644 1089.5,115.361 1089.85,115.361L1094.89,115.361L1094.89,107.292C1094.89,106.97 1095.13,106.7 1095.45,106.664L1107.41,105.302C1107.59,105.281 1107.76,105.338 1107.9,105.458C1108.03,105.578 1108.11,105.75 1108.11,105.93L1108.11,115.361L1116.71,115.361C1116.89,115.361 1117.07,115.442 1117.19,115.582C1117.31,115.722 1117.36,115.908 1117.33,116.09L1116.05,124.413C1116,124.722 1115.73,124.949 1115.42,124.949L1108.11,124.949L1108.11,142.779C1108.11,144.465 1108.34,145.681 1108.89,146.411C1109.39,147.072 1110.19,147.368 1111.26,147.368C1112.53,147.368 1113.86,146.96 1115.26,146.164C1115.41,146.08 1115.59,146.059 1115.75,146.107C1115.91,146.155 1116.05,146.267 1116.13,146.418L1120.14,153.985C1120.29,154.268 1120.21,154.619 1119.94,154.801ZM1119.58,154.281L1115.57,146.714C1114.06,147.572 1112.62,148 1111.26,148C1109.95,148 1108.99,147.597 1108.38,146.79C1107.78,145.983 1107.48,144.646 1107.48,142.779L1107.48,124.317L1115.42,124.317L1116.71,115.994L1107.48,115.994L1107.48,105.93L1095.52,107.292L1095.52,115.994L1089.85,115.994L1089.85,124.317L1095.52,124.317L1095.52,142.931C1095.52,152.566 1099.91,157.408 1108.69,157.459C1110.61,157.459 1112.53,157.181 1114.48,156.626C1116.42,156.072 1118.12,155.29 1119.58,154.281Z" style="fill:white;"/>
        <path d="M805.488,223.746C808.263,223.746 810.785,224.162 813.055,224.994C815.325,225.826 817.519,226.974 819.638,228.437L814.947,234.49C811.92,231.817 809.045,229.975 806.321,228.967C803.597,227.958 799.914,227.453 795.273,227.453C790.935,227.453 787.127,226.432 783.848,224.389C780.569,222.346 778.009,219.319 776.168,215.309C774.326,211.298 773.406,206.443 773.406,200.743C773.406,195.144 774.326,190.301 776.168,186.215C778.009,182.129 780.594,179.014 783.923,176.87C787.253,174.726 791.086,173.654 795.425,173.654C799.813,173.654 803.66,174.701 806.964,176.795C810.268,178.888 812.841,181.952 814.682,185.988C816.523,190.024 817.444,194.917 817.444,200.667C817.444,206.771 816.435,211.626 814.417,215.233C812.399,218.84 809.423,221.677 805.488,223.746ZM781.048,200.743C781.048,207.957 782.322,213.253 784.869,216.633C787.417,220.013 790.935,221.703 795.425,221.703C805.009,221.703 809.801,214.691 809.801,200.667C809.801,186.593 805.009,179.556 795.425,179.556C790.885,179.556 787.354,181.271 784.831,184.702C782.309,188.132 781.048,193.479 781.048,200.743Z" style="fill-rule:nonzero;"/>
        <path d="M807.682,223.202C809.687,223.369 811.55,223.769 813.273,224.401C815.591,225.251 817.833,226.422 819.997,227.917C820.14,228.015 820.236,228.169 820.263,228.34C820.289,228.512 820.244,228.687 820.138,228.824L815.446,234.878C815.339,235.016 815.18,235.103 815.006,235.12C814.832,235.136 814.659,235.08 814.528,234.964C811.57,232.351 808.763,230.546 806.101,229.559C803.431,228.571 799.821,228.085 795.273,228.085C790.808,228.085 786.889,227.028 783.513,224.925C780.134,222.82 777.49,219.705 775.593,215.573C773.718,211.489 772.773,206.547 772.773,200.743C772.773,195.043 773.717,190.115 775.591,185.955C777.487,181.749 780.153,178.546 783.581,176.339C787.01,174.131 790.957,173.022 795.425,173.022C799.943,173.022 803.901,174.105 807.302,176.261C810.705,178.417 813.36,181.569 815.257,185.726C817.131,189.834 818.076,194.813 818.076,200.667C818.076,206.902 817.03,211.858 814.969,215.542C813.23,218.649 810.802,221.204 807.682,223.202ZM805.488,223.746C809.423,221.677 812.399,218.84 814.417,215.233C816.435,211.626 817.444,206.771 817.444,200.667C817.444,194.917 816.523,190.024 814.682,185.988C812.841,181.952 810.268,178.888 806.964,176.795C803.66,174.701 799.813,173.654 795.425,173.654C791.086,173.654 787.253,174.726 783.923,176.87C780.594,179.014 778.009,182.129 776.168,186.215C774.326,190.301 773.406,195.144 773.406,200.743C773.406,206.443 774.326,211.298 776.168,215.309C778.009,219.319 780.569,222.346 783.848,224.389C787.127,226.432 790.935,227.453 795.273,227.453C799.914,227.453 803.597,227.958 806.321,228.967C809.045,229.975 811.92,231.817 814.947,234.49L819.638,228.437C817.519,226.974 815.325,225.826 813.055,224.994C810.785,224.162 808.263,223.746 805.488,223.746ZM781.048,200.743C781.048,193.479 782.309,188.132 784.831,184.702C787.354,181.271 790.885,179.556 795.425,179.556C805.009,179.556 809.801,186.593 809.801,200.667C809.801,214.691 805.009,221.703 795.425,221.703C790.935,221.703 787.417,220.013 784.869,216.633C782.322,213.253 781.048,207.957 781.048,200.743ZM781.68,200.743C781.68,207.78 782.889,212.955 785.374,216.252C787.799,219.469 791.151,221.07 795.425,221.07C804.679,221.07 809.169,214.208 809.169,200.667C809.169,187.077 804.68,180.189 795.425,180.189C791.105,180.189 787.741,181.812 785.341,185.076C782.879,188.425 781.68,193.652 781.68,200.743Z" style="fill:white;"/>
        <path d="M859.893,226.697L853.915,226.697L853.385,220.492C851.872,222.964 850.132,224.767 848.164,225.902C846.197,227.037 843.801,227.605 840.976,227.605C837.495,227.605 834.771,226.545 832.804,224.427C830.837,222.308 829.853,219.307 829.853,215.422L829.853,186.82L836.814,186.82L836.814,214.666C836.814,217.39 837.293,219.319 838.252,220.454C839.21,221.589 840.774,222.157 842.943,222.157C846.827,222.157 850.157,219.861 852.931,215.271L852.931,186.82L859.893,186.82L859.893,226.697Z" style="fill-rule:nonzero;"/>
        <path d="M859.893,227.329L853.915,227.329C853.587,227.329 853.313,227.077 853.285,226.75L852.908,222.339C851.581,224.146 850.102,225.514 848.48,226.45C846.426,227.635 843.926,228.237 840.976,228.237C837.295,228.237 834.421,227.097 832.341,224.857C830.277,222.635 829.221,219.496 829.221,215.422L829.221,186.82C829.221,186.471 829.504,186.188 829.853,186.188L836.814,186.188C837.163,186.188 837.446,186.471 837.446,186.82L837.446,214.666C837.446,217.193 837.846,218.993 838.735,220.046C839.592,221.061 841.005,221.524 842.943,221.524C846.587,221.524 849.685,219.351 852.299,215.094L852.299,186.82C852.299,186.471 852.582,186.188 852.931,186.188L859.893,186.188C860.242,186.188 860.525,186.471 860.525,186.82L860.525,226.697C860.525,227.046 860.242,227.329 859.893,227.329ZM859.893,226.697L859.893,186.82L852.931,186.82L852.931,215.271C850.157,219.861 846.827,222.157 842.943,222.157C840.774,222.157 839.21,221.589 838.252,220.454C837.293,219.319 836.814,217.39 836.814,214.666L836.814,186.82L829.853,186.82L829.853,215.422C829.853,219.307 830.837,222.308 832.804,224.427C834.771,226.545 837.495,227.605 840.976,227.605C843.801,227.605 846.197,227.037 848.164,225.902C850.132,224.767 851.872,222.964 853.385,220.492L853.915,226.697L859.893,226.697Z" style="fill:white;"/>
        <path d="M905.898,205.586C905.898,206.746 905.847,207.931 905.746,209.142L880.322,209.142C880.625,213.531 881.735,216.759 883.652,218.827C885.569,220.896 888.04,221.93 891.067,221.93C892.984,221.93 894.75,221.652 896.364,221.097C897.978,220.542 899.668,219.66 901.433,218.449L904.46,222.611C900.223,225.94 895.582,227.605 890.537,227.605C884.989,227.605 880.663,225.789 877.561,222.157C874.458,218.525 872.907,213.531 872.907,207.175C872.907,203.038 873.576,199.368 874.912,196.165C876.249,192.962 878.166,190.452 880.663,188.636C883.16,186.82 886.098,185.912 889.478,185.912C894.775,185.912 898.836,187.653 901.66,191.133C904.485,194.614 905.898,199.431 905.898,205.586ZM899.012,203.543C899.012,199.608 898.23,196.607 896.666,194.538C895.103,192.47 892.757,191.436 889.629,191.436C883.929,191.436 880.827,195.623 880.322,203.997L899.012,203.997L899.012,203.543Z" style="fill-rule:nonzero;"/>
        <path d="M906.53,205.586C906.53,206.763 906.479,207.966 906.376,209.194C906.349,209.522 906.075,209.774 905.746,209.774L881.007,209.774C881.358,213.641 882.377,216.522 884.116,218.398C885.912,220.336 888.231,221.297 891.067,221.297C892.91,221.297 894.607,221.033 896.158,220.499C897.724,219.961 899.363,219.102 901.076,217.928C901.358,217.734 901.743,217.8 901.945,218.077L904.971,222.239C905.171,222.514 905.118,222.898 904.851,223.108C900.495,226.53 895.723,228.237 890.537,228.237C884.78,228.237 880.299,226.336 877.08,222.567C873.891,218.834 872.275,213.708 872.275,207.175C872.275,202.946 872.962,199.196 874.329,195.922C875.714,192.603 877.704,190.006 880.291,188.125C882.894,186.232 885.955,185.28 889.478,185.28C894.992,185.28 899.211,187.112 902.151,190.735C905.055,194.313 906.53,199.259 906.53,205.586ZM905.898,205.586C905.898,199.431 904.485,194.614 901.66,191.133C898.836,187.653 894.775,185.912 889.478,185.912C886.098,185.912 883.16,186.82 880.663,188.636C878.166,190.452 876.249,192.962 874.912,196.165C873.576,199.368 872.907,203.038 872.907,207.175C872.907,213.531 874.458,218.525 877.561,222.157C880.663,225.789 884.989,227.605 890.537,227.605C895.582,227.605 900.223,225.94 904.46,222.611L901.433,218.449C899.668,219.66 897.978,220.542 896.364,221.097C894.75,221.652 892.984,221.93 891.067,221.93C888.04,221.93 885.569,220.896 883.652,218.827C881.735,216.759 880.625,213.531 880.322,209.142L905.746,209.142C905.847,207.931 905.898,206.746 905.898,205.586ZM899.012,203.543L899.012,203.997L880.322,203.997C880.827,195.623 883.929,191.436 889.629,191.436C892.757,191.436 895.103,192.47 896.666,194.538C898.23,196.607 899.012,199.608 899.012,203.543ZM898.379,203.364C898.357,199.687 897.635,196.867 896.162,194.92C894.713,193.003 892.528,192.068 889.629,192.068C884.394,192.068 881.593,195.889 881,203.364L898.379,203.364Z" style="fill:white;"/>
        <path d="M948.649,205.586C948.649,206.746 948.599,207.931 948.498,209.142L923.074,209.142C923.377,213.531 924.487,216.759 926.403,218.827C928.32,220.896 930.792,221.93 933.819,221.93C935.736,221.93 937.501,221.652 939.115,221.097C940.73,220.542 942.419,219.66 944.185,218.449L947.212,222.611C942.974,225.94 938.333,227.605 933.289,227.605C927.74,227.605 923.415,225.789 920.312,222.157C917.21,218.525 915.659,213.531 915.659,207.175C915.659,203.038 916.327,199.368 917.664,196.165C919.001,192.962 920.918,190.452 923.415,188.636C925.912,186.82 928.85,185.912 932.23,185.912C937.526,185.912 941.587,187.653 944.412,191.133C947.237,194.614 948.649,199.431 948.649,205.586ZM941.764,203.543C941.764,199.608 940.982,196.607 939.418,194.538C937.854,192.47 935.509,191.436 932.381,191.436C926.681,191.436 923.579,195.623 923.074,203.997L941.764,203.997L941.764,203.543Z" style="fill-rule:nonzero;"/>
        <path d="M949.282,205.586C949.282,206.763 949.23,207.966 949.128,209.194C949.101,209.522 948.827,209.774 948.498,209.774L923.759,209.774C924.11,213.641 925.129,216.522 926.867,218.398C928.663,220.336 930.983,221.297 933.819,221.297C935.661,221.297 937.358,221.033 938.91,220.499C940.476,219.961 942.114,219.102 943.827,217.928C944.11,217.734 944.495,217.8 944.696,218.077L947.723,222.239C947.923,222.514 947.87,222.898 947.602,223.108C943.247,226.53 938.474,228.237 933.289,228.237C927.532,228.237 923.05,226.336 919.831,222.567C916.643,218.834 915.027,213.708 915.027,207.175C915.027,202.946 915.714,199.196 917.08,195.922C918.465,192.603 920.456,190.006 923.043,188.125C925.646,186.232 928.707,185.28 932.23,185.28C937.744,185.28 941.962,187.112 944.903,190.735C947.807,194.313 949.282,199.259 949.282,205.586ZM948.649,205.586C948.649,199.431 947.237,194.614 944.412,191.133C941.587,187.653 937.526,185.912 932.23,185.912C928.85,185.912 925.912,186.82 923.415,188.636C920.918,190.452 919.001,192.962 917.664,196.165C916.327,199.368 915.659,203.038 915.659,207.175C915.659,213.531 917.21,218.525 920.312,222.157C923.415,225.789 927.74,227.605 933.289,227.605C938.333,227.605 942.974,225.94 947.212,222.611L944.185,218.449C942.419,219.66 940.73,220.542 939.115,221.097C937.501,221.652 935.736,221.93 933.819,221.93C930.792,221.93 928.32,220.896 926.403,218.827C924.487,216.759 923.377,213.531 923.074,209.142L948.498,209.142C948.599,207.931 948.649,206.746 948.649,205.586ZM941.764,203.543L941.764,203.997L923.074,203.997C923.579,195.623 926.681,191.436 932.381,191.436C935.509,191.436 937.854,192.47 939.418,194.538C940.982,196.607 941.764,199.608 941.764,203.543ZM941.131,203.364C941.108,199.687 940.386,196.867 938.914,194.92C937.464,193.003 935.28,192.068 932.381,192.068C927.146,192.068 924.345,195.889 923.752,203.364L941.131,203.364Z" style="fill:white;"/>
        <path d="M980.051,185.912C983.683,185.912 986.52,186.997 988.563,189.166C990.606,191.335 991.628,194.311 991.628,198.095L991.628,226.697L984.667,226.697L984.667,199.078C984.667,196.253 984.137,194.261 983.078,193.101C982.018,191.94 980.455,191.36 978.386,191.36C976.268,191.36 974.401,191.966 972.787,193.176C971.173,194.387 969.659,196.127 968.247,198.397L968.247,226.697L961.286,226.697L961.286,186.82L967.263,186.82L967.869,192.722C969.281,190.604 971.034,188.939 973.127,187.728C975.221,186.518 977.529,185.912 980.051,185.912Z" style="fill-rule:nonzero;"/>
        <path d="M980.051,185.28C983.883,185.28 986.868,186.444 989.024,188.733C991.168,191.009 992.26,194.125 992.26,198.095L992.26,226.697C992.26,227.046 991.977,227.329 991.628,227.329L984.667,227.329C984.317,227.329 984.034,227.046 984.034,226.697L984.034,199.078C984.034,196.461 983.592,194.602 982.611,193.527C981.659,192.485 980.244,191.993 978.386,191.993C976.412,191.993 974.671,192.554 973.166,193.682C971.643,194.825 970.217,196.459 968.879,198.579L968.879,226.697C968.879,227.046 968.596,227.329 968.247,227.329L961.286,227.329C960.936,227.329 960.653,227.046 960.653,226.697L960.653,186.82C960.653,186.471 960.936,186.188 961.286,186.188L967.263,186.188C967.588,186.188 967.859,186.433 967.892,186.756L968.331,191.027C969.605,189.453 971.099,188.171 972.811,187.181C975,185.915 977.413,185.28 980.051,185.28ZM980.051,185.912C977.529,185.912 975.221,186.518 973.127,187.728C971.034,188.939 969.281,190.604 967.869,192.722L967.263,186.82L961.286,186.82L961.286,226.697L968.247,226.697L968.247,198.397C969.659,196.127 971.173,194.387 972.787,193.176C974.401,191.966 976.268,191.36 978.386,191.36C980.455,191.36 982.018,191.94 983.078,193.101C984.137,194.261 984.667,196.253 984.667,199.078L984.667,226.697L991.628,226.697L991.628,198.095C991.628,194.311 990.606,191.335 988.563,189.166C986.52,186.997 983.683,185.912 980.051,185.912Z" style="fill:white;"/>
        <path d="M1017.96,185.912C1020.68,185.912 1023.13,186.291 1025.3,187.047C1027.47,187.804 1029.54,188.939 1031.5,190.452L1028.55,194.841C1026.74,193.681 1025.01,192.823 1023.37,192.268C1021.73,191.713 1020,191.436 1018.19,191.436C1015.92,191.436 1014.13,191.903 1012.82,192.836C1011.5,193.769 1010.85,195.043 1010.85,196.657C1010.85,198.271 1011.47,199.532 1012.7,200.44C1013.94,201.348 1016.17,202.231 1019.4,203.089C1023.84,204.198 1027.15,205.712 1029.35,207.629C1031.54,209.546 1032.64,212.169 1032.64,215.498C1032.64,219.433 1031.11,222.434 1028.06,224.502C1025.01,226.571 1021.29,227.605 1016.9,227.605C1010.85,227.605 1005.83,225.864 1001.84,222.384L1005.55,218.146C1008.93,220.719 1012.66,222.005 1016.75,222.005C1019.37,222.005 1021.45,221.463 1022.99,220.378C1024.53,219.294 1025.3,217.818 1025.3,215.952C1025.3,214.59 1025.02,213.493 1024.47,212.66C1023.91,211.828 1022.95,211.097 1021.59,210.466C1020.23,209.836 1018.24,209.167 1015.61,208.461C1011.38,207.351 1008.31,205.863 1006.42,203.997C1004.53,202.13 1003.58,199.759 1003.58,196.884C1003.58,194.816 1004.2,192.937 1005.44,191.247C1006.67,189.557 1008.39,188.245 1010.58,187.312C1012.78,186.379 1015.24,185.912 1017.96,185.912Z" style="fill-rule:nonzero;"/>
        <path d="M1017.96,185.28C1020.76,185.28 1023.28,185.672 1025.51,186.45C1027.74,187.229 1029.87,188.395 1031.89,189.951C1032.15,190.155 1032.21,190.528 1032.03,190.805L1029.08,195.194C1028.89,195.479 1028.5,195.559 1028.21,195.374C1026.44,194.244 1024.76,193.407 1023.17,192.867C1021.59,192.334 1019.93,192.068 1018.19,192.068C1016.07,192.068 1014.4,192.482 1013.18,193.351C1012.05,194.158 1011.48,195.26 1011.48,196.657C1011.48,198.052 1012.01,199.146 1013.08,199.931C1014.27,200.809 1016.44,201.647 1019.56,202.477C1024.11,203.616 1027.51,205.185 1029.76,207.153C1032.09,209.187 1033.27,211.965 1033.27,215.498C1033.27,219.663 1031.65,222.836 1028.42,225.026C1025.27,227.16 1021.43,228.237 1016.9,228.237C1010.68,228.237 1005.52,226.437 1001.43,222.86C1001.3,222.749 1001.22,222.593 1001.21,222.426C1001.2,222.259 1001.26,222.094 1001.37,221.967L1005.08,217.73C1005.29,217.48 1005.67,217.442 1005.93,217.643C1009.2,220.128 1012.8,221.373 1016.75,221.373C1019.22,221.373 1021.18,220.882 1022.63,219.862C1023.99,218.904 1024.67,217.601 1024.67,215.952C1024.67,214.737 1024.44,213.754 1023.94,213.011C1023.44,212.258 1022.56,211.611 1021.33,211.04C1019.99,210.42 1018.03,209.766 1015.45,209.072C1011.08,207.927 1007.93,206.372 1005.98,204.447C1003.97,202.461 1002.95,199.942 1002.95,196.884C1002.95,194.679 1003.61,192.675 1004.93,190.874C1006.23,189.096 1008.03,187.712 1010.34,186.73C1012.6,185.766 1015.14,185.28 1017.96,185.28ZM1017.96,185.912C1015.24,185.912 1012.78,186.379 1010.58,187.312C1008.39,188.245 1006.67,189.557 1005.44,191.247C1004.2,192.937 1003.58,194.816 1003.58,196.884C1003.58,199.759 1004.53,202.13 1006.42,203.997C1008.31,205.863 1011.38,207.351 1015.61,208.461C1018.24,209.167 1020.23,209.836 1021.59,210.466C1022.95,211.097 1023.91,211.828 1024.47,212.66C1025.02,213.493 1025.3,214.59 1025.3,215.952C1025.3,217.818 1024.53,219.294 1022.99,220.378C1021.45,221.463 1019.37,222.005 1016.75,222.005C1012.66,222.005 1008.93,220.719 1005.55,218.146L1001.84,222.384C1005.83,225.864 1010.85,227.605 1016.9,227.605C1021.29,227.605 1025.01,226.571 1028.06,224.502C1031.11,222.434 1032.64,219.433 1032.64,215.498C1032.64,212.169 1031.54,209.546 1029.35,207.629C1027.15,205.712 1023.84,204.198 1019.4,203.089C1016.17,202.231 1013.94,201.348 1012.7,200.44C1011.47,199.532 1010.85,198.271 1010.85,196.657C1010.85,195.043 1011.5,193.769 1012.82,192.836C1014.13,191.903 1015.92,191.436 1018.19,191.436C1020,191.436 1021.73,191.713 1023.37,192.268C1025.01,192.823 1026.74,193.681 1028.55,194.841L1031.5,190.452C1029.54,188.939 1027.47,187.804 1025.3,187.047C1023.13,186.291 1020.68,185.912 1017.96,185.912Z" style="fill:white;"/>
        <path d="M1051.93,227.605C1049.36,227.605 1047.33,226.835 1045.84,225.297C1044.36,223.758 1043.61,221.602 1043.61,218.827L1043.61,170.779L1050.57,169.947L1050.57,218.676C1050.57,219.786 1050.76,220.593 1051.14,221.097C1051.52,221.602 1052.16,221.854 1053.07,221.854C1054.03,221.854 1054.88,221.703 1055.64,221.4L1057.46,226.243C1055.79,227.151 1053.95,227.605 1051.93,227.605Z" style="fill-rule:nonzero;"/>
        <path d="M1051.93,228.237C1049.17,228.237 1046.99,227.391 1045.39,225.736C1043.8,224.091 1042.98,221.794 1042.98,218.827L1042.98,170.779C1042.98,170.459 1043.22,170.189 1043.54,170.151L1050.5,169.319C1050.68,169.298 1050.86,169.354 1050.99,169.474C1051.13,169.594 1051.2,169.766 1051.2,169.947L1051.2,218.676C1051.2,219.608 1051.33,220.294 1051.64,220.718C1051.92,221.086 1052.41,221.222 1053.07,221.222C1053.94,221.222 1054.72,221.088 1055.41,220.813C1055.57,220.75 1055.74,220.753 1055.9,220.822C1056.05,220.89 1056.17,221.019 1056.23,221.178L1058.05,226.021C1058.16,226.316 1058.04,226.647 1057.76,226.798C1056,227.755 1054.06,228.237 1051.93,228.237ZM1051.93,227.605C1053.95,227.605 1055.79,227.151 1057.46,226.243L1055.64,221.4C1054.88,221.703 1054.03,221.854 1053.07,221.854C1052.16,221.854 1051.52,221.602 1051.14,221.097C1050.76,220.593 1050.57,219.786 1050.57,218.676L1050.57,169.947L1043.61,170.779L1043.61,218.827C1043.61,221.602 1044.36,223.758 1045.84,225.297C1047.33,226.835 1049.36,227.605 1051.93,227.605Z" style="fill:white;"/>
        <path d="M1094.16,217.39C1094.16,219.004 1094.43,220.202 1094.99,220.984C1095.54,221.766 1096.38,222.358 1097.49,222.762L1095.9,227.605C1093.83,227.352 1092.16,226.772 1090.9,225.864C1089.64,224.956 1088.71,223.544 1088.1,221.627C1085.43,225.612 1081.47,227.605 1076.22,227.605C1072.29,227.605 1069.19,226.495 1066.92,224.275C1064.65,222.056 1063.51,219.155 1063.51,215.574C1063.51,211.336 1065.04,208.083 1068.09,205.813C1071.14,203.543 1075.47,202.408 1081.07,202.408L1087.19,202.408L1087.19,199.457C1087.19,196.632 1086.51,194.614 1085.15,193.403C1083.79,192.193 1081.7,191.587 1078.87,191.587C1075.95,191.587 1072.36,192.294 1068.13,193.706L1066.39,188.636C1071.33,186.82 1075.92,185.912 1080.16,185.912C1084.85,185.912 1088.36,187.06 1090.67,189.355C1093,191.65 1094.16,194.917 1094.16,199.154L1094.16,217.39ZM1077.81,222.384C1081.8,222.384 1084.92,220.315 1087.19,216.179L1087.19,207.023L1081.97,207.023C1074.61,207.023 1070.93,209.747 1070.93,215.195C1070.93,217.566 1071.51,219.357 1072.67,220.568C1073.83,221.778 1075.54,222.384 1077.81,222.384Z" style="fill-rule:nonzero;"/>
        <path d="M1094.79,217.39C1094.79,218.836 1095.01,219.917 1095.5,220.618C1095.99,221.304 1096.73,221.814 1097.7,222.168C1098.02,222.284 1098.19,222.635 1098.09,222.959L1096.5,227.802C1096.4,228.088 1096.12,228.269 1095.82,228.232C1093.63,227.965 1091.87,227.339 1090.53,226.377C1089.44,225.588 1088.56,224.45 1087.92,222.954C1085.15,226.469 1081.26,228.237 1076.22,228.237C1072.1,228.237 1068.85,227.054 1066.47,224.727C1064.09,222.391 1062.88,219.343 1062.88,215.574C1062.88,211.113 1064.5,207.695 1067.71,205.305C1070.85,202.968 1075.3,201.775 1081.07,201.775L1086.56,201.775L1086.56,199.457C1086.56,196.86 1085.98,194.989 1084.73,193.876C1083.46,192.748 1081.5,192.22 1078.87,192.22C1076,192.22 1072.49,192.919 1068.33,194.306C1068,194.415 1067.64,194.239 1067.53,193.911L1065.79,188.842C1065.68,188.516 1065.85,188.162 1066.17,188.043C1071.19,186.198 1075.85,185.28 1080.16,185.28C1085.05,185.28 1088.7,186.511 1091.12,188.906C1093.55,191.308 1094.79,194.718 1094.79,199.154L1094.79,217.39ZM1094.16,217.39L1094.16,199.154C1094.16,194.917 1093,191.65 1090.67,189.355C1088.36,187.06 1084.85,185.912 1080.16,185.912C1075.92,185.912 1071.33,186.82 1066.39,188.636L1068.13,193.706C1072.36,192.294 1075.95,191.587 1078.87,191.587C1081.7,191.587 1083.79,192.193 1085.15,193.403C1086.51,194.614 1087.19,196.632 1087.19,199.457L1087.19,202.408L1081.07,202.408C1075.47,202.408 1071.14,203.543 1068.09,205.813C1065.04,208.083 1063.51,211.336 1063.51,215.574C1063.51,219.155 1064.65,222.056 1066.92,224.275C1069.19,226.495 1072.29,227.605 1076.22,227.605C1081.47,227.605 1085.43,225.612 1088.1,221.627C1088.71,223.544 1089.64,224.956 1090.9,225.864C1092.16,226.772 1093.83,227.352 1095.9,227.605L1097.49,222.762C1096.38,222.358 1095.54,221.766 1094.99,220.984C1094.43,220.202 1094.16,219.004 1094.16,217.39ZM1077.81,222.384C1075.54,222.384 1073.83,221.778 1072.67,220.568C1071.51,219.357 1070.93,217.566 1070.93,215.195C1070.93,209.747 1074.61,207.023 1081.97,207.023L1087.19,207.023L1087.19,216.179C1084.92,220.315 1081.8,222.384 1077.81,222.384ZM1077.81,221.751C1081.52,221.751 1084.43,219.823 1086.56,216.015L1086.56,207.656L1081.97,207.656C1077.79,207.656 1074.84,208.53 1073.16,210.388C1072.08,211.589 1071.56,213.195 1071.56,215.195C1071.56,217.369 1072.06,219.02 1073.12,220.13C1074.18,221.231 1075.75,221.751 1077.81,221.751Z" style="fill:white;"/>
        <path d="M1128.74,185.912C1132.37,185.912 1135.2,186.997 1137.25,189.166C1139.29,191.335 1140.31,194.311 1140.31,198.095L1140.31,226.697L1133.35,226.697L1133.35,199.078C1133.35,196.253 1132.82,194.261 1131.76,193.101C1130.7,191.94 1129.14,191.36 1127.07,191.36C1124.95,191.36 1123.09,191.966 1121.47,193.176C1119.86,194.387 1118.34,196.127 1116.93,198.397L1116.93,226.697L1109.97,226.697L1109.97,186.82L1115.95,186.82L1116.55,192.722C1117.97,190.604 1119.72,188.939 1121.81,187.728C1123.91,186.518 1126.21,185.912 1128.74,185.912Z" style="fill-rule:nonzero;"/>
        <path d="M1128.74,185.28C1132.57,185.28 1135.55,186.444 1137.71,188.733C1139.85,191.009 1140.94,194.125 1140.94,198.095L1140.94,226.697C1140.94,227.046 1140.66,227.329 1140.31,227.329L1133.35,227.329C1133,227.329 1132.72,227.046 1132.72,226.697L1132.72,199.078C1132.72,196.461 1132.28,194.602 1131.3,193.527C1130.34,192.485 1128.93,191.993 1127.07,191.993C1125.1,191.993 1123.36,192.554 1121.85,193.682C1120.33,194.825 1118.9,196.459 1117.56,198.579L1117.56,226.697C1117.56,227.046 1117.28,227.329 1116.93,227.329L1109.97,227.329C1109.62,227.329 1109.34,227.046 1109.34,226.697L1109.34,186.82C1109.34,186.471 1109.62,186.188 1109.97,186.188L1115.95,186.188C1116.27,186.188 1116.54,186.433 1116.58,186.756L1117.02,191.027C1118.29,189.453 1119.78,188.171 1121.5,187.181C1123.68,185.915 1126.1,185.28 1128.74,185.28ZM1128.74,185.912C1126.21,185.912 1123.91,186.518 1121.81,187.728C1119.72,188.939 1117.97,190.604 1116.55,192.722L1115.95,186.82L1109.97,186.82L1109.97,226.697L1116.93,226.697L1116.93,198.397C1118.34,196.127 1119.86,194.387 1121.47,193.176C1123.09,191.966 1124.95,191.36 1127.07,191.36C1129.14,191.36 1130.7,191.94 1131.76,193.101C1132.82,194.261 1133.35,196.253 1133.35,199.078L1133.35,226.697L1140.31,226.697L1140.31,198.095C1140.31,194.311 1139.29,191.335 1137.25,189.166C1135.2,186.997 1132.37,185.912 1128.74,185.912Z" style="fill:white;"/>
        <path d="M1186.7,170.779L1186.7,226.697L1180.57,226.697L1179.89,221.173C1178.58,223.191 1176.93,224.767 1174.97,225.902C1173,227.037 1170.81,227.605 1168.38,227.605C1163.64,227.605 1159.95,225.738 1157.3,222.005C1154.65,218.272 1153.33,213.253 1153.33,206.948C1153.33,202.862 1153.96,199.23 1155.22,196.052C1156.48,192.874 1158.3,190.389 1160.67,188.599C1163.04,186.808 1165.81,185.912 1168.99,185.912C1173.08,185.912 1176.66,187.552 1179.74,190.831L1179.74,169.947L1186.7,170.779ZM1169.9,222.081C1172.02,222.081 1173.83,221.589 1175.35,220.605C1176.86,219.622 1178.32,218.146 1179.74,216.179L1179.74,196.657C1178.42,194.942 1177.02,193.643 1175.54,192.76C1174.05,191.877 1172.37,191.436 1170.5,191.436C1167.43,191.436 1165.04,192.722 1163.35,195.295C1161.66,197.868 1160.82,201.701 1160.82,206.796C1160.82,211.942 1161.6,215.775 1163.16,218.298C1164.73,220.82 1166.97,222.081 1169.9,222.081Z" style="fill-rule:nonzero;"/>
        <path d="M1187.33,170.779L1187.33,226.697C1187.33,227.046 1187.05,227.329 1186.7,227.329L1180.57,227.329C1180.25,227.329 1179.98,227.091 1179.94,226.774L1179.46,222.85C1178.27,224.329 1176.88,225.528 1175.28,226.45C1173.22,227.639 1170.92,228.237 1168.38,228.237C1163.42,228.237 1159.56,226.278 1156.78,222.371C1154.07,218.546 1152.69,213.408 1152.69,206.948C1152.69,202.774 1153.34,199.065 1154.63,195.818C1155.94,192.523 1157.83,189.951 1160.29,188.094C1162.77,186.221 1165.67,185.28 1168.99,185.28C1172.78,185.28 1176.15,186.622 1179.1,189.318L1179.1,169.947C1179.1,169.766 1179.18,169.594 1179.32,169.474C1179.45,169.354 1179.63,169.298 1179.81,169.319L1186.77,170.151C1187.09,170.189 1187.33,170.459 1187.33,170.779ZM1186.7,170.779L1179.74,169.947L1179.74,190.831C1176.66,187.552 1173.08,185.912 1168.99,185.912C1165.81,185.912 1163.04,186.808 1160.67,188.599C1158.3,190.389 1156.48,192.874 1155.22,196.052C1153.96,199.23 1153.33,202.862 1153.33,206.948C1153.33,213.253 1154.65,218.272 1157.3,222.005C1159.95,225.738 1163.64,227.605 1168.38,227.605C1170.81,227.605 1173,227.037 1174.97,225.902C1176.93,224.767 1178.58,223.191 1179.89,221.173L1180.57,226.697L1186.7,226.697L1186.7,170.779ZM1169.9,222.081C1166.97,222.081 1164.73,220.82 1163.16,218.298C1161.6,215.775 1160.82,211.942 1160.82,206.796C1160.82,201.701 1161.66,197.868 1163.35,195.295C1165.04,192.722 1167.43,191.436 1170.5,191.436C1172.37,191.436 1174.05,191.877 1175.54,192.76C1177.02,193.643 1178.42,194.942 1179.74,196.657L1179.74,216.179C1178.32,218.146 1176.86,219.622 1175.35,220.605C1173.83,221.589 1172.02,222.081 1169.9,222.081ZM1169.9,221.449C1171.88,221.449 1173.59,220.996 1175,220.075C1176.42,219.156 1177.78,217.787 1179.1,215.974L1179.1,196.872C1177.88,195.312 1176.59,194.12 1175.21,193.304C1173.82,192.478 1172.25,192.068 1170.5,192.068C1167.65,192.068 1165.45,193.26 1163.88,195.642C1162.24,198.136 1161.45,201.858 1161.45,206.796C1161.45,211.79 1162.18,215.516 1163.7,217.965C1165.14,220.286 1167.2,221.449 1169.9,221.449Z" style="fill:white;"/>
    </g>
    <g id="Main" transform="matrix(2.83465,0,0,2.83465,210.298,903.791)">
        <g id="Q" transform="matrix(1,0,0,1,-10.5833,0)">
            <g>
                <g id="path7" transform="matrix(1,0,0,1,-13.4056,26.6308)">
                    <path d="M167.98,-215.69L160.995,-208.705C160.995,-208.705 164.508,-205.193 166.616,-203.085C167.609,-202.092 168.954,-201.535 170.358,-201.535C173.146,-201.535 177.901,-201.535 180.432,-201.535C180.717,-201.535 180.974,-201.707 181.084,-201.97C181.193,-202.234 181.133,-202.537 180.931,-202.739C177.51,-206.16 167.98,-215.69 167.98,-215.69Z" style="fill:rgb(181,36,0);fill-rule:nonzero;"/>
                </g>
                <g id="path11-9-7-5" transform="matrix(0.352778,0,0,0.352778,-74.1886,-332.596)">
                    <path d="M512,127C512,127 496,127 496,127C468.022,127 445,150.022 445,178L445,340C445,367.978 468.022,391 496,391L576.336,391C599.666,391 622.064,400.278 638.561,416.775" style="fill:none;fill-rule:nonzero;stroke:rgb(181,36,0);stroke-width:28px;"/>
                </g>
                <g id="rect1-2-94-6-8" transform="matrix(-1,0,0,1,-13.4056,26.6308)">
                    <path d="M-114.9,-319.363L-114.9,-309.485L-124.072,-309.485C-124.462,-309.485 -124.778,-309.801 -124.778,-310.19C-124.778,-311.555 -124.778,-314.424 -124.778,-314.424C-124.778,-314.424 -124.778,-317.292 -124.778,-318.657C-124.778,-319.047 -124.462,-319.363 -124.072,-319.363C-122.708,-319.363 -114.9,-319.363 -114.9,-319.363Z" style="fill:rgb(181,36,0);"/>
                </g>
            </g>
            <g>
                <g id="path7-6" transform="matrix(1,0,0,1,-13.4056,26.6308)">
                    <path d="M175.462,-223.174L168.478,-216.188C168.478,-216.188 178.008,-206.658 181.429,-203.236C181.631,-203.035 181.935,-202.974 182.198,-203.084C182.462,-203.193 182.634,-203.45 182.634,-203.735C182.634,-206.267 182.634,-211.023 182.634,-213.811C182.634,-215.214 182.076,-216.56 181.084,-217.553C178.975,-219.661 175.462,-223.174 175.462,-223.174Z" style="fill:rgb(255,144,0);fill-rule:nonzero;"/>
                </g>
                <g id="path6-8-7-6-1-1-2-2-4" transform="matrix(0.352778,0,0,0.352778,-74.1886,-332.596)">
                    <path d="M542,127L583,127C610.978,127 634,150.022 634,178L634,178L634,333.336C634,356.666 643.278,379.065 659.774,395.562" style="fill:none;fill-rule:nonzero;stroke:rgb(255,144,0);stroke-width:28px;"/>
                </g>
                <g id="rect1-2-94-6" transform="matrix(-1,0,0,1,-13.4056,26.6308)">
                    <path d="M-126.189,-319.363C-125.799,-319.363 -125.484,-319.047 -125.484,-318.657C-125.484,-317.292 -125.484,-311.555 -125.484,-310.19C-125.484,-309.801 -125.799,-309.485 -126.189,-309.485C-127.554,-309.485 -135.361,-309.485 -135.361,-309.485L-135.361,-319.363L-126.189,-319.363Z" style="fill:rgb(255,144,0);"/>
                </g>
            </g>
        </g>
        <g id="B" transform="matrix(1,0,0,1,13.4056,0)">
            <g>
                <g id="path1-9-1-5-0-4-8-3-2-2-6" transform="matrix(0.352778,0,0,0.352778,-98.1775,-332.596)">
                    <path d="M201,259L217,259L217,259C240.55,259 262.383,271.605 274.158,292C285.933,312.395 285.933,337.605 274.158,358C262.383,378.395 240.55,391 217,391L44,391" style="fill:none;fill-rule:nonzero;stroke:rgb(0,179,231);stroke-width:28px;stroke-linecap:butt;"/>
                </g>
                <g id="rect1" transform="matrix(1,0,0,1,-13.4056,26.6308)">
                    <path d="M-8.925,-272.796L-18.097,-272.796C-18.487,-272.796 -18.802,-272.48 -18.802,-272.09C-18.802,-270.726 -18.802,-267.857 -18.802,-267.857C-18.802,-265.129 -16.591,-262.918 -13.864,-262.918L-8.925,-262.918L-8.925,-272.796Z" style="fill:rgb(0,179,231);fill-rule:nonzero;"/>
                </g>
                <g id="rect1-0-6-3-9" transform="matrix(1.83697e-16,-1,1,1.83697e-16,-314.529,-143.049)">
                    <path d="M55.844,226.935C56.031,226.935 56.211,227.009 56.343,227.141C56.475,227.274 56.55,227.453 56.55,227.64C56.55,229.005 56.55,236.813 56.55,236.813L46.672,236.813L46.672,227.64C46.672,227.453 46.746,227.274 46.879,227.141C47.011,227.009 47.19,226.935 47.377,226.935C48.742,226.935 54.479,226.935 55.844,226.935Z" style="fill:rgb(0,179,231);"/>
                </g>
            </g>
            <g>
                <g id="path6-8-7-6-1-1-3" transform="matrix(0.352778,0,0,0.352778,-98.1775,-332.596)">
                    <path d="M217,229C244.978,229 268,205.978 268,178L268,178M201,229L217,229M86,361L86,178C86,150.022 109.022,127 137,127L217,127C244.978,127 268,150.022 268,178" style="fill:none;fill-rule:nonzero;stroke:rgb(0,128,96);stroke-width:28px;stroke-linecap:butt;stroke-linejoin:miter;"/>
                </g>
                <g id="rect1-2" transform="matrix(1,0,0,1,-13.4056,26.6308)">
                    <path d="M-8.925,-283.379L-13.864,-283.379C-16.592,-283.379 -18.802,-281.168 -18.802,-278.441L-18.802,-274.207C-18.802,-273.817 -18.487,-273.501 -18.097,-273.501C-15.837,-273.501 -8.925,-273.501 -8.925,-273.501L-8.925,-283.379Z" style="fill:rgb(0,128,96);fill-rule:nonzero;"/>
                </g>
                <g id="rect1-0-6-3-91" serif:id="rect1-0-6-3-9" transform="matrix(-1,0,0,-1,-16.2278,26.6308)">
                    <path d="M55.844,226.935C56.031,226.935 56.211,227.009 56.343,227.141C56.475,227.274 56.55,227.453 56.55,227.64C56.55,229.005 56.55,236.813 56.55,236.813L46.672,236.813L46.672,227.64C46.672,227.453 46.746,227.274 46.879,227.141C47.011,227.009 47.19,226.935 47.377,226.935C48.742,226.935 54.479,226.935 55.844,226.935Z" style="fill:rgb(0,128,96);"/>
                </g>
            </g>
        </g>
        <g id="T">
            <g>
                <g id="path6-8-7-6-1-1-2-3" transform="matrix(-1,0,0,-1,-13.4056,26.6308)">
                    <path d="M-50.342,307.015L-50.342,307.015C-50.342,316.885 -58.464,325.007 -68.334,325.007" style="fill:none;fill-rule:nonzero;stroke:rgb(54,98,230);stroke-width:9.88px;stroke-linecap:butt;"/>
                </g>
                <g transform="matrix(1,0,0,1,-13.4056,26.6308)">
                    <path d="M114.9,-320.068L114.9,-329.946C114.9,-329.946 119.839,-329.946 119.84,-329.946C121.15,-329.946 122.406,-329.426 123.332,-328.5C124.258,-327.573 124.778,-326.317 124.778,-325.008C124.778,-325.007 124.778,-322.138 124.778,-320.774C124.778,-320.587 124.704,-320.407 124.571,-320.275C124.439,-320.142 124.26,-320.068 124.073,-320.068C122.708,-320.068 119.839,-320.068 119.839,-320.068L114.9,-320.068Z" style="fill:rgb(54,98,230);"/>
                </g>
                <g transform="matrix(-1,1.22465e-16,-1.22465e-16,-1,156.776,-519.667)">
                    <path d="M114.9,-320.068L114.9,-325.007C114.9,-325.007 114.9,-327.876 114.9,-329.24C114.9,-329.427 114.975,-329.607 115.107,-329.739C115.239,-329.872 115.419,-329.946 115.606,-329.946C116.971,-329.946 119.839,-329.946 119.84,-329.946C121.15,-329.946 122.406,-329.426 123.332,-328.5C124.258,-327.573 124.778,-326.317 124.778,-325.008C124.778,-325.007 124.778,-320.068 124.778,-320.068L119.839,-320.068L114.9,-320.068Z" style="fill:rgb(54,98,230);"/>
                </g>
                <g transform="matrix(0.352778,0,0,0.352778,-84.7719,-332.596)">
                    <path d="M396,97L542,97" style="fill:none;stroke:rgb(54,98,230);stroke-width:28px;stroke-miterlimit:1.5;"/>
                </g>
                <g transform="matrix(0.352778,0,0,0.352778,-84.7719,-332.596)">
                    <path d="M345,148L345,390" style="fill:none;stroke:rgb(54,98,230);stroke-width:28px;stroke-miterlimit:1.5;"/>
                </g>
            </g>
            <g>
                <g id="path6-8-7-6-1-1" transform="matrix(1,0,0,-1,-13.4056,26.6308)">
                    <clipPath id="_clip1">
                        <path d="M44.698,307.015L42.934,307.015L42.934,330.651L68.334,330.651C55.367,330.651 44.698,319.982 44.698,307.015ZM68.334,319.363L68.334,307.015L55.986,307.015C55.986,313.789 61.56,319.363 68.334,319.363Z"/>
                    </clipPath>
                    <g clip-path="url(#_clip1)">
                        <path d="M60.925,307.015L60.925,307.015C60.925,316.885 52.804,325.007 42.934,325.007" style="fill:none;fill-rule:nonzero;stroke:rgb(204,0,204);stroke-width:9.88px;"/>
                    </g>
                </g>
                <g transform="matrix(1.19434e-15,1,-1,1.19434e-15,-277.487,-314.499)">
                    <path d="M114.9,-320.068L114.9,-329.946C114.9,-329.946 119.839,-329.946 119.84,-329.946C121.15,-329.946 122.406,-329.426 123.332,-328.5C124.258,-327.573 124.778,-326.317 124.778,-325.008C124.778,-325.007 124.778,-322.138 124.778,-320.774C124.778,-320.586 124.704,-320.407 124.571,-320.275C124.439,-320.142 124.26,-320.068 124.073,-320.068C122.708,-320.068 119.839,-320.068 119.839,-320.068L114.9,-320.068Z" style="fill:rgb(204,0,204);"/>
                </g>
                <g transform="matrix(0.352778,0,0,0.352778,-84.7719,-332.596)">
                    <path d="M375,390L375,148" style="fill:none;stroke:rgb(204,0,204);stroke-width:28px;stroke-miterlimit:1.5;"/>
                </g>
                <g transform="matrix(-1,0,0,1,97.8618,26.631)">
                    <path d="M114.9,-320.068L114.9,-329.946C114.9,-329.946 119.839,-329.946 119.84,-329.946C121.149,-329.946 122.406,-329.426 123.332,-328.5C124.258,-327.573 124.778,-326.317 124.778,-325.008C124.778,-323.463 124.778,-321.721 124.778,-320.774C124.778,-320.587 124.704,-320.407 124.572,-320.275C124.439,-320.143 124.26,-320.068 124.073,-320.068C122.708,-320.068 119.839,-320.068 119.839,-320.068L114.9,-320.068Z" style="fill:rgb(204,0,204);"/>
                </g>
                <g transform="matrix(0.352778,0,0,0.352778,-84.7719,-332.596)">
                    <path d="M178,97L324,97" style="fill:none;stroke:rgb(204,0,204);stroke-width:28px;stroke-miterlimit:1.5;"/>
                </g>
            </g>
        </g>
    </g>
    <g id="Stops" transform="matrix(2.83465,0,0,2.83465,211.298,903.791)">
        <g transform="matrix(1,0,0,1,-0.352778,0)">
            <g id="rect1-7-2-80-1-2-97-3-3-6-4-5-6-9" transform="matrix(1.03333,-4.08216e-18,4.08216e-18,-1.06667,43.6538,33.6695)">
                <path d="M55.292,306.663L55.292,311.293C55.292,314.213 57.74,316.584 60.755,316.584C63.769,316.584 66.217,314.213 66.217,311.293L66.217,301.371C66.217,298.45 63.769,296.079 60.755,296.079L50.513,296.079C47.498,296.079 45.05,298.45 45.05,301.371C45.05,304.291 47.498,306.663 50.513,306.663L55.292,306.663Z" style="fill:white;fill-opacity:0.69;"/>
                <path d="M55.292,306.663L55.292,311.293C55.292,314.213 57.74,316.584 60.755,316.584C63.769,316.584 66.217,314.213 66.217,311.293L66.217,301.371C66.217,298.45 63.769,296.079 60.755,296.079L50.513,296.079C47.498,296.079 45.05,298.45 45.05,301.371C45.05,304.291 47.498,306.663 50.513,306.663L55.292,306.663ZM55.292,306.001L50.513,306.001C47.875,306.001 45.733,303.926 45.733,301.371C45.733,298.815 47.875,296.741 50.513,296.741L60.755,296.741C63.393,296.741 65.534,298.815 65.534,301.371L65.534,311.293C65.534,313.848 63.393,315.923 60.755,315.923C58.117,315.923 55.975,313.848 55.975,311.293L55.975,306.663C55.975,306.297 55.669,306.001 55.292,306.001Z" style="fill:rgb(34,34,35);"/>
            </g>
            <g id="rect4" transform="matrix(1,0,0,1,120.297,-19.9359)">
                <path d="M-12.805,-279.852C-12.805,-279.182 -12.805,-277.699 -12.805,-277.029C-12.805,-276.748 -12.917,-276.479 -13.115,-276.281C-13.313,-276.082 -13.582,-275.971 -13.863,-275.971C-13.863,-275.971 -13.864,-275.971 -13.864,-275.971C-14.145,-275.971 -14.414,-276.082 -14.612,-276.281C-14.81,-276.479 -14.922,-276.748 -14.922,-277.029C-14.922,-277.699 -14.922,-279.182 -14.922,-279.852C-14.922,-280.133 -14.81,-280.402 -14.612,-280.6C-14.414,-280.798 -14.145,-280.91 -13.864,-280.91C-13.864,-280.91 -13.863,-280.91 -13.863,-280.91C-13.582,-280.91 -13.313,-280.798 -13.115,-280.6C-12.917,-280.402 -12.805,-280.133 -12.805,-279.852Z" style="fill:rgb(54,98,230);"/>
            </g>
            <g id="rect41" serif:id="rect4" transform="matrix(1,0,0,1,120.297,-9.35252)">
                <path d="M-12.805,-279.852C-12.805,-279.182 -12.805,-277.699 -12.805,-277.029C-12.805,-276.445 -13.279,-275.971 -13.864,-275.971C-13.864,-275.971 -13.864,-275.971 -13.864,-275.971C-14.448,-275.971 -14.922,-276.445 -14.922,-277.029C-14.922,-277.699 -14.922,-279.182 -14.922,-279.852C-14.922,-280.133 -14.81,-280.402 -14.612,-280.6C-14.414,-280.798 -14.145,-280.91 -13.864,-280.91C-13.864,-280.91 -13.863,-280.91 -13.863,-280.91C-13.582,-280.91 -13.313,-280.798 -13.115,-280.6C-12.917,-280.402 -12.805,-280.133 -12.805,-279.852Z" style="fill:rgb(255,144,0);"/>
            </g>
            <g id="rect42" serif:id="rect4" transform="matrix(1,0,0,1,109.714,-9.35255)">
                <path d="M-12.805,-279.852C-12.805,-279.182 -12.805,-277.699 -12.805,-277.029C-12.805,-276.445 -13.279,-275.971 -13.864,-275.971C-13.864,-275.971 -13.864,-275.971 -13.864,-275.971C-14.448,-275.971 -14.922,-276.445 -14.922,-277.029C-14.922,-277.699 -14.922,-279.182 -14.922,-279.852C-14.922,-280.133 -14.81,-280.402 -14.612,-280.6C-14.414,-280.798 -14.145,-280.91 -13.864,-280.91C-13.864,-280.91 -13.863,-280.91 -13.863,-280.91C-13.582,-280.91 -13.313,-280.798 -13.115,-280.6C-12.917,-280.402 -12.805,-280.133 -12.805,-279.852Z" style="fill:rgb(181,36,0);"/>
            </g>
        </g>
        <g transform="matrix(1,0,0,1,-0.352778,0)">
            <g id="rect1-7-2-80-1-2-97-3-3-6-4-5-6-9-2-0" transform="matrix(1.06667,4.08216e-18,-4.08216e-18,-1.03333,-7.18971,37.288)">
                <path d="M-8.572,314.594L-8.572,324.836C-8.572,327.851 -10.943,330.299 -13.864,330.299C-16.784,330.299 -19.155,327.851 -19.155,324.836L-19.155,314.594C-19.155,311.58 -16.784,309.132 -13.864,309.132C-10.943,309.132 -8.572,311.58 -8.572,314.594Z" style="fill:white;fill-opacity:0.69;"/>
                <path d="M-8.572,314.594C-8.572,311.58 -10.943,309.132 -13.864,309.132C-16.784,309.132 -19.155,311.58 -19.155,314.594L-19.155,324.836C-19.155,327.851 -16.784,330.299 -13.864,330.299C-10.943,330.299 -8.572,327.851 -8.572,324.836L-8.572,314.594ZM-9.233,314.594L-9.233,324.836C-9.233,327.474 -11.308,329.616 -13.864,329.616C-16.419,329.616 -18.494,327.474 -18.494,324.836L-18.494,314.594C-18.494,311.956 -16.419,309.815 -13.864,309.815C-11.308,309.815 -9.233,311.956 -9.233,314.594Z" style="fill:rgb(34,34,35);"/>
            </g>
            <g id="rect43" serif:id="rect4" transform="matrix(1,0,0,1,-8.11392,-19.9359)">
                <path d="M-12.805,-279.852C-12.805,-279.182 -12.805,-277.699 -12.805,-277.029C-12.805,-276.748 -12.917,-276.479 -13.115,-276.281C-13.313,-276.082 -13.582,-275.971 -13.863,-275.971C-13.863,-275.971 -13.864,-275.971 -13.864,-275.971C-14.145,-275.971 -14.414,-276.082 -14.612,-276.281C-14.81,-276.479 -14.922,-276.748 -14.922,-277.029C-14.922,-277.699 -14.922,-279.182 -14.922,-279.852C-14.922,-280.133 -14.81,-280.402 -14.612,-280.6C-14.414,-280.798 -14.145,-280.91 -13.864,-280.91C-13.864,-280.91 -13.863,-280.91 -13.863,-280.91C-13.582,-280.91 -13.313,-280.798 -13.115,-280.6C-12.917,-280.402 -12.805,-280.133 -12.805,-279.852Z" style="fill:rgb(204,0,204);"/>
            </g>
        </g>
        <g transform="matrix(1,0,0,1,13.0528,0)">
            <g id="rect1-7-2-80-1-2-97-3-3-6-4-5-6-9-2-0-5" transform="matrix(1.06667,4.08216e-18,-4.08216e-18,-1.03333,-12.4814,35.7359)">
                <path d="M-8.572,268.028L-8.572,278.27C-8.572,281.284 -10.943,283.732 -13.864,283.732C-16.784,283.732 -19.155,281.284 -19.155,278.27L-19.155,268.028C-19.155,265.013 -16.784,262.565 -13.864,262.565C-10.943,262.565 -8.572,265.013 -8.572,268.028Z" style="fill:white;fill-opacity:0.69;"/>
                <path d="M-8.572,268.028C-8.572,265.013 -10.943,262.565 -13.864,262.565C-16.784,262.565 -19.155,265.013 -19.155,268.028L-19.155,278.27C-19.155,281.284 -16.784,283.732 -13.864,283.732C-10.943,283.732 -8.572,281.284 -8.572,278.27L-8.572,268.028ZM-9.233,268.028L-9.233,278.27C-9.233,280.908 -11.308,283.049 -13.864,283.049C-16.419,283.049 -18.494,280.908 -18.494,278.27L-18.494,268.028C-18.494,265.39 -16.419,263.248 -13.864,263.248C-11.308,263.248 -9.233,265.39 -9.233,268.028Z" style="fill:rgb(34,34,35);"/>
            </g>
            <g id="rect44" serif:id="rect4" transform="matrix(1,0,0,1,-13.4056,26.6308)">
                <path d="M-12.805,-279.852C-12.805,-279.182 -12.805,-277.699 -12.805,-277.029C-12.805,-276.445 -13.279,-275.971 -13.864,-275.971C-13.864,-275.971 -13.864,-275.971 -13.864,-275.971C-14.145,-275.971 -14.414,-276.082 -14.612,-276.281C-14.81,-276.479 -14.922,-276.748 -14.922,-277.029C-14.922,-277.699 -14.922,-279.182 -14.922,-279.852C-14.922,-280.133 -14.81,-280.402 -14.612,-280.6C-14.414,-280.798 -14.145,-280.91 -13.864,-280.91C-13.864,-280.91 -13.863,-280.91 -13.863,-280.91C-13.582,-280.91 -13.313,-280.798 -13.115,-280.6C-12.917,-280.402 -12.805,-280.133 -12.805,-279.852Z" style="fill:rgb(0,128,96);"/>
            </g>
            <g id="rect45" serif:id="rect4" transform="matrix(1,0,0,1,-13.4056,37.2141)">
                <path d="M-12.805,-279.851C-12.805,-279.181 -12.805,-277.699 -12.805,-277.029C-12.805,-276.445 -13.279,-275.971 -13.864,-275.971C-13.864,-275.971 -13.864,-275.971 -13.864,-275.971C-14.448,-275.971 -14.922,-276.445 -14.922,-277.029C-14.922,-277.699 -14.922,-279.182 -14.922,-279.852C-14.922,-280.133 -14.81,-280.402 -14.612,-280.6C-14.414,-280.798 -14.145,-280.91 -13.864,-280.91C-13.864,-280.91 -13.864,-280.91 -13.864,-280.91C-13.279,-280.91 -12.805,-280.436 -12.805,-279.851Z" style="fill:rgb(0,179,231);"/>
            </g>
        </g>
        <g transform="matrix(1,0,0,1,10.5833,0)">
            <g id="rect1-7-2-80-1-2-97-3-3-6-4-5-6-9-2-0-5-2" transform="matrix(1.06667,4.08216e-18,-4.08216e-18,-1.03333,-10.3177,34.1837)">
                <path d="M-46.319,221.461L-46.319,231.703C-46.319,234.718 -48.69,237.165 -51.611,237.165C-54.531,237.165 -56.902,234.718 -56.902,231.703L-56.902,221.461C-56.902,218.446 -54.531,215.999 -51.611,215.999C-48.69,215.999 -46.319,218.446 -46.319,221.461Z" style="fill:white;fill-opacity:0.69;"/>
                <path d="M-46.319,221.461C-46.319,218.446 -48.69,215.999 -51.611,215.999C-54.531,215.999 -56.902,218.446 -56.902,221.461L-56.902,231.703C-56.902,234.718 -54.531,237.165 -51.611,237.165C-48.69,237.165 -46.319,234.718 -46.319,231.703L-46.319,221.461ZM-46.981,221.461L-46.981,231.703C-46.981,234.341 -49.055,236.483 -51.611,236.483C-54.166,236.483 -56.241,234.341 -56.241,231.703L-56.241,221.461C-56.241,218.823 -54.166,216.682 -51.611,216.682C-49.055,216.682 -46.981,218.823 -46.981,221.461Z" style="fill:rgb(34,34,35);"/>
            </g>
            <g id="rect46" serif:id="rect4" transform="matrix(6.12323e-17,1,-1,6.12323e-17,-343.81,-191.379)">
                <path d="M-12.805,-279.851C-12.805,-279.181 -12.805,-277.699 -12.805,-277.029C-12.805,-276.445 -13.279,-275.971 -13.864,-275.971C-13.864,-275.971 -13.864,-275.971 -13.864,-275.971C-14.145,-275.971 -14.414,-276.082 -14.612,-276.281C-14.81,-276.479 -14.922,-276.748 -14.922,-277.029C-14.922,-277.699 -14.922,-279.182 -14.922,-279.852C-14.922,-280.133 -14.81,-280.402 -14.612,-280.6C-14.414,-280.798 -14.145,-280.91 -13.864,-280.91C-13.864,-280.91 -13.864,-280.91 -13.864,-280.91C-13.279,-280.91 -12.805,-280.436 -12.805,-279.851Z" style="fill:rgb(0,128,96);"/>
            </g>
        </g>
    </g>
</svg>
