<?xml version="1.0" encoding="UTF-8" standalone="no"?>
<!DOCTYPE svg PUBLIC "-//W3C//DTD SVG 1.1//EN" "http://www.w3.org/Graphics/SVG/1.1/DTD/svg11.dtd">
<svg width="100%" height="100%" viewBox="0 0 1350 408" version="1.1" xmlns="http://www.w3.org/2000/svg" xmlns:xlink="http://www.w3.org/1999/xlink" xml:space="preserve" xmlns:serif="http://www.serif.com/" style="fill-rule:evenodd;clip-rule:evenodd;stroke-linejoin:round;stroke-miterlimit:2;">
    <g id="Text-Light" serif:id="Text Light" transform="matrix(1.36124,0,0,1.36124,-347.722,7.07601)">
        <g transform="matrix(86.5689,0,0,86.5689,771.934,85.6483)">
            <path d="M0.434,-0.367C0.48,-0.358 0.518,-0.341 0.547,-0.316C0.576,-0.291 0.59,-0.253 0.59,-0.202C0.59,-0.128 0.564,-0.076 0.511,-0.046C0.458,-0.015 0.383,-0 0.288,-0L0.065,-0L0.065,-0.693L0.261,-0.693C0.358,-0.693 0.433,-0.679 0.484,-0.652C0.535,-0.624 0.561,-0.579 0.561,-0.516C0.561,-0.475 0.549,-0.443 0.525,-0.418C0.5,-0.393 0.47,-0.376 0.434,-0.367ZM0.229,-0.577L0.229,-0.416L0.29,-0.416C0.359,-0.416 0.394,-0.444 0.394,-0.5C0.394,-0.528 0.385,-0.548 0.366,-0.56C0.347,-0.571 0.318,-0.577 0.277,-0.577L0.229,-0.577ZM0.289,-0.119C0.332,-0.119 0.365,-0.126 0.388,-0.139C0.41,-0.152 0.421,-0.176 0.421,-0.211C0.421,-0.275 0.381,-0.307 0.301,-0.307L0.229,-0.307L0.229,-0.119L0.289,-0.119Z" style="fill-rule:nonzero;stroke:#fff;stroke-width:0.02px;"/>
        </g>
        <g transform="matrix(86.5689,0,0,86.5689,827.078,85.6483)">
            <path d="M0.525,-0.276C0.525,-0.254 0.524,-0.235 0.522,-0.219L0.193,-0.219C0.198,-0.174 0.211,-0.143 0.231,-0.125C0.251,-0.107 0.279,-0.098 0.314,-0.098C0.335,-0.098 0.356,-0.102 0.376,-0.11C0.396,-0.117 0.418,-0.129 0.441,-0.145L0.506,-0.057C0.444,-0.008 0.375,0.017 0.299,0.017C0.213,0.017 0.147,-0.008 0.101,-0.059C0.055,-0.11 0.032,-0.178 0.032,-0.263C0.032,-0.317 0.042,-0.366 0.061,-0.409C0.08,-0.452 0.109,-0.486 0.146,-0.511C0.183,-0.536 0.228,-0.548 0.28,-0.548C0.357,-0.548 0.417,-0.524 0.46,-0.476C0.503,-0.428 0.525,-0.361 0.525,-0.276ZM0.37,-0.321C0.369,-0.402 0.34,-0.443 0.284,-0.443C0.257,-0.443 0.236,-0.433 0.221,-0.413C0.206,-0.393 0.196,-0.36 0.193,-0.314L0.37,-0.314L0.37,-0.321Z" style="fill-rule:nonzero;stroke:#fff;stroke-width:0.02px;"/>
        </g>
        <g transform="matrix(86.5689,0,0,86.5689,876.596,85.6483)">
            <path d="M0.395,-0.025C0.376,-0.012 0.353,-0.001 0.328,0.006C0.302,0.013 0.276,0.017 0.251,0.017C0.135,0.016 0.077,-0.048 0.077,-0.175L0.077,-0.421L0.002,-0.421L0.002,-0.531L0.077,-0.531L0.077,-0.646L0.235,-0.664L0.235,-0.531L0.357,-0.531L0.34,-0.421L0.235,-0.421L0.235,-0.177C0.235,-0.152 0.239,-0.135 0.247,-0.124C0.255,-0.113 0.268,-0.108 0.285,-0.108C0.303,-0.108 0.322,-0.114 0.342,-0.125L0.395,-0.025Z" style="fill-rule:nonzero;stroke:#fff;stroke-width:0.02px;"/>
        </g>
        <g transform="matrix(86.5689,0,0,86.5689,911.743,85.6483)">
            <path d="M0.395,-0.025C0.376,-0.012 0.353,-0.001 0.328,0.006C0.302,0.013 0.276,0.017 0.251,0.017C0.135,0.016 0.077,-0.048 0.077,-0.175L0.077,-0.421L0.002,-0.421L0.002,-0.531L0.077,-0.531L0.077,-0.646L0.235,-0.664L0.235,-0.531L0.357,-0.531L0.34,-0.421L0.235,-0.421L0.235,-0.177C0.235,-0.152 0.239,-0.135 0.247,-0.124C0.255,-0.113 0.268,-0.108 0.285,-0.108C0.303,-0.108 0.322,-0.114 0.342,-0.125L0.395,-0.025Z" style="fill-rule:nonzero;stroke:#fff;stroke-width:0.02px;"/>
        </g>
        <g transform="matrix(86.5689,0,0,86.5689,945.331,85.6483)">
            <path d="M0.525,-0.276C0.525,-0.254 0.524,-0.235 0.522,-0.219L0.193,-0.219C0.198,-0.174 0.211,-0.143 0.231,-0.125C0.251,-0.107 0.279,-0.098 0.314,-0.098C0.335,-0.098 0.356,-0.102 0.376,-0.11C0.396,-0.117 0.418,-0.129 0.441,-0.145L0.506,-0.057C0.444,-0.008 0.375,0.017 0.299,0.017C0.213,0.017 0.147,-0.008 0.101,-0.059C0.055,-0.11 0.032,-0.178 0.032,-0.263C0.032,-0.317 0.042,-0.366 0.061,-0.409C0.08,-0.452 0.109,-0.486 0.146,-0.511C0.183,-0.536 0.228,-0.548 0.28,-0.548C0.357,-0.548 0.417,-0.524 0.46,-0.476C0.503,-0.428 0.525,-0.361 0.525,-0.276ZM0.37,-0.321C0.369,-0.402 0.34,-0.443 0.284,-0.443C0.257,-0.443 0.236,-0.433 0.221,-0.413C0.206,-0.393 0.196,-0.36 0.193,-0.314L0.37,-0.314L0.37,-0.321Z" style="fill-rule:nonzero;stroke:#fff;stroke-width:0.02px;"/>
        </g>
        <g transform="matrix(86.5689,0,0,86.5689,994.849,85.6483)">
            <path d="M0.35,-0.546C0.369,-0.546 0.387,-0.544 0.403,-0.539L0.378,-0.386C0.358,-0.391 0.342,-0.393 0.33,-0.393C0.299,-0.393 0.275,-0.382 0.259,-0.361C0.242,-0.339 0.229,-0.306 0.22,-0.263L0.22,-0L0.062,-0L0.062,-0.531L0.2,-0.531L0.213,-0.428C0.225,-0.465 0.243,-0.494 0.268,-0.515C0.292,-0.536 0.319,-0.546 0.35,-0.546Z" style="fill-rule:nonzero;stroke:#fff;stroke-width:0.02px;"/>
        </g>
        <g transform="matrix(86.5689,0,0,86.5689,769.64,174.644)">
            <path d="M0.539,-0.693L0.523,-0.567L0.352,-0.567L0.352,-0L0.188,-0L0.188,-0.567L0.009,-0.567L0.009,-0.693L0.539,-0.693Z" style="fill-rule:nonzero;stroke:#fff;stroke-width:0.02px;"/>
        </g>
        <g transform="matrix(86.5689,0,0,86.5689,815.521,174.644)">
            <path d="M0.35,-0.546C0.369,-0.546 0.387,-0.544 0.403,-0.539L0.378,-0.386C0.358,-0.391 0.342,-0.393 0.33,-0.393C0.299,-0.393 0.275,-0.382 0.259,-0.361C0.242,-0.339 0.229,-0.306 0.22,-0.263L0.22,-0L0.062,-0L0.062,-0.531L0.2,-0.531L0.213,-0.428C0.225,-0.465 0.243,-0.494 0.268,-0.515C0.292,-0.536 0.319,-0.546 0.35,-0.546Z" style="fill-rule:nonzero;stroke:#fff;stroke-width:0.02px;"/>
        </g>
        <g transform="matrix(86.5689,0,0,86.5689,848.937,174.644)">
            <path d="M0.484,-0.154C0.484,-0.134 0.487,-0.119 0.493,-0.11C0.498,-0.101 0.507,-0.094 0.52,-0.089L0.487,0.014C0.454,0.011 0.428,0.004 0.407,-0.008C0.386,-0.019 0.37,-0.038 0.359,-0.063C0.324,-0.01 0.271,0.017 0.199,0.017C0.146,0.017 0.104,0.002 0.073,-0.029C0.042,-0.06 0.026,-0.1 0.026,-0.149C0.026,-0.207 0.047,-0.251 0.09,-0.282C0.133,-0.313 0.194,-0.328 0.275,-0.328L0.329,-0.328L0.329,-0.351C0.329,-0.382 0.322,-0.404 0.309,-0.416C0.296,-0.427 0.272,-0.433 0.239,-0.433C0.222,-0.433 0.201,-0.431 0.176,-0.426C0.151,-0.42 0.126,-0.414 0.1,-0.405L0.064,-0.509C0.097,-0.522 0.132,-0.531 0.167,-0.538C0.202,-0.545 0.234,-0.548 0.264,-0.548C0.34,-0.548 0.396,-0.532 0.431,-0.501C0.466,-0.47 0.484,-0.423 0.484,-0.36L0.484,-0.154ZM0.245,-0.096C0.281,-0.096 0.309,-0.113 0.329,-0.147L0.329,-0.241L0.29,-0.241C0.254,-0.241 0.227,-0.235 0.21,-0.222C0.192,-0.209 0.183,-0.19 0.183,-0.163C0.183,-0.142 0.189,-0.125 0.2,-0.114C0.211,-0.102 0.226,-0.096 0.245,-0.096Z" style="fill-rule:nonzero;stroke:#fff;stroke-width:0.02px;"/>
        </g>
        <g transform="matrix(86.5689,0,0,86.5689,898.108,174.644)">
            <path d="M0.373,-0.548C0.419,-0.548 0.455,-0.534 0.481,-0.506C0.507,-0.478 0.52,-0.439 0.52,-0.388L0.52,-0L0.362,-0L0.362,-0.361C0.362,-0.388 0.358,-0.406 0.35,-0.417C0.341,-0.427 0.329,-0.432 0.312,-0.432C0.28,-0.432 0.249,-0.409 0.22,-0.363L0.22,-0L0.062,-0L0.062,-0.531L0.2,-0.531L0.211,-0.468C0.234,-0.495 0.258,-0.515 0.285,-0.528C0.311,-0.541 0.34,-0.548 0.373,-0.548Z" style="fill-rule:nonzero;stroke:#fff;stroke-width:0.02px;"/>
        </g>
        <g transform="matrix(86.5689,0,0,86.5689,949.79,174.644)">
            <path d="M0.249,-0.548C0.287,-0.548 0.323,-0.542 0.356,-0.531C0.389,-0.52 0.419,-0.504 0.444,-0.483L0.386,-0.394C0.343,-0.421 0.299,-0.435 0.255,-0.435C0.234,-0.435 0.219,-0.432 0.208,-0.425C0.197,-0.418 0.191,-0.408 0.191,-0.395C0.191,-0.385 0.194,-0.377 0.199,-0.371C0.204,-0.364 0.214,-0.358 0.229,-0.351C0.244,-0.344 0.268,-0.336 0.3,-0.327C0.355,-0.311 0.397,-0.29 0.424,-0.265C0.451,-0.239 0.464,-0.203 0.464,-0.158C0.464,-0.122 0.454,-0.091 0.433,-0.065C0.412,-0.038 0.384,-0.018 0.348,-0.004C0.312,0.01 0.272,0.017 0.228,0.017C0.183,0.017 0.142,0.01 0.104,-0.004C0.065,-0.018 0.033,-0.037 0.006,-0.062L0.083,-0.148C0.128,-0.113 0.175,-0.096 0.224,-0.096C0.248,-0.096 0.267,-0.1 0.281,-0.109C0.294,-0.118 0.301,-0.13 0.301,-0.146C0.301,-0.159 0.298,-0.169 0.293,-0.176C0.288,-0.183 0.277,-0.19 0.262,-0.197C0.247,-0.203 0.222,-0.211 0.189,-0.22C0.136,-0.235 0.097,-0.257 0.071,-0.284C0.045,-0.311 0.032,-0.345 0.032,-0.386C0.032,-0.417 0.041,-0.444 0.059,-0.469C0.076,-0.493 0.101,-0.512 0.135,-0.527C0.167,-0.541 0.206,-0.548 0.249,-0.548Z" style="fill-rule:nonzero;stroke:#fff;stroke-width:0.02px;"/>
        </g>
        <g transform="matrix(86.5689,0,0,86.5689,993.334,174.644)">
            <path d="M0.362,-0.548C0.429,-0.548 0.478,-0.523 0.511,-0.474C0.544,-0.425 0.56,-0.356 0.56,-0.267C0.56,-0.212 0.552,-0.164 0.535,-0.121C0.518,-0.078 0.493,-0.044 0.461,-0.02C0.429,0.005 0.392,0.017 0.349,0.017C0.296,0.017 0.253,-0.001 0.22,-0.038L0.22,0.205L0.062,0.222L0.062,-0.531L0.201,-0.531L0.209,-0.472C0.23,-0.498 0.253,-0.517 0.28,-0.53C0.307,-0.542 0.334,-0.548 0.362,-0.548ZM0.301,-0.099C0.364,-0.099 0.396,-0.154 0.396,-0.265C0.396,-0.328 0.389,-0.371 0.375,-0.396C0.361,-0.42 0.34,-0.432 0.312,-0.432C0.294,-0.432 0.277,-0.427 0.262,-0.416C0.246,-0.405 0.232,-0.39 0.22,-0.37L0.22,-0.146C0.241,-0.115 0.268,-0.099 0.301,-0.099Z" style="fill-rule:nonzero;stroke:#fff;stroke-width:0.02px;"/>
        </g>
        <g transform="matrix(86.5689,0,0,86.5689,1046.75,174.644)">
            <path d="M0.292,-0.548C0.373,-0.548 0.437,-0.523 0.483,-0.474C0.529,-0.424 0.552,-0.354 0.552,-0.265C0.552,-0.208 0.542,-0.159 0.521,-0.117C0.5,-0.074 0.47,-0.041 0.431,-0.018C0.392,0.005 0.345,0.017 0.292,0.017C0.211,0.017 0.148,-0.008 0.102,-0.058C0.055,-0.107 0.032,-0.177 0.032,-0.266C0.032,-0.323 0.043,-0.372 0.064,-0.415C0.085,-0.457 0.115,-0.49 0.154,-0.513C0.193,-0.536 0.239,-0.548 0.292,-0.548ZM0.292,-0.432C0.26,-0.432 0.236,-0.419 0.22,-0.392C0.204,-0.365 0.196,-0.323 0.196,-0.266C0.196,-0.208 0.204,-0.166 0.22,-0.139C0.235,-0.112 0.259,-0.099 0.292,-0.099C0.324,-0.099 0.348,-0.113 0.364,-0.14C0.38,-0.167 0.388,-0.208 0.388,-0.265C0.388,-0.323 0.38,-0.365 0.365,-0.392C0.349,-0.419 0.325,-0.432 0.292,-0.432Z" style="fill-rule:nonzero;stroke:#fff;stroke-width:0.02px;"/>
        </g>
        <g transform="matrix(86.5689,0,0,86.5689,1099.03,174.644)">
            <path d="M0.35,-0.546C0.369,-0.546 0.387,-0.544 0.403,-0.539L0.378,-0.386C0.358,-0.391 0.342,-0.393 0.33,-0.393C0.299,-0.393 0.275,-0.382 0.259,-0.361C0.242,-0.339 0.229,-0.306 0.22,-0.263L0.22,-0L0.062,-0L0.062,-0.531L0.2,-0.531L0.213,-0.428C0.225,-0.465 0.243,-0.494 0.268,-0.515C0.292,-0.536 0.319,-0.546 0.35,-0.546Z" style="fill-rule:nonzero;stroke:#fff;stroke-width:0.02px;"/>
        </g>
        <g transform="matrix(86.5689,0,0,86.5689,1135.48,174.644)">
            <path d="M0.395,-0.025C0.376,-0.012 0.353,-0.001 0.328,0.006C0.302,0.013 0.276,0.017 0.251,0.017C0.135,0.016 0.077,-0.048 0.077,-0.175L0.077,-0.421L0.002,-0.421L0.002,-0.531L0.077,-0.531L0.077,-0.646L0.235,-0.664L0.235,-0.531L0.357,-0.531L0.34,-0.421L0.235,-0.421L0.235,-0.177C0.235,-0.152 0.239,-0.135 0.247,-0.124C0.255,-0.113 0.268,-0.108 0.285,-0.108C0.303,-0.108 0.322,-0.114 0.342,-0.125L0.395,-0.025Z" style="fill-rule:nonzero;stroke:#fff;stroke-width:0.02px;"/>
        </g>
        <g transform="matrix(86.5689,0,0,86.5689,768.856,263.64)">
            <path d="M0.479,-0.039C0.516,-0.039 0.549,-0.034 0.579,-0.023C0.609,-0.012 0.638,0.004 0.666,0.023L0.604,0.103C0.564,0.068 0.526,0.043 0.49,0.03C0.454,0.017 0.405,0.01 0.344,0.01C0.287,0.01 0.236,-0.003 0.193,-0.031C0.15,-0.058 0.116,-0.097 0.092,-0.151C0.067,-0.204 0.055,-0.268 0.055,-0.343C0.055,-0.417 0.067,-0.481 0.092,-0.535C0.116,-0.589 0.15,-0.63 0.194,-0.659C0.238,-0.687 0.289,-0.701 0.346,-0.701C0.404,-0.701 0.455,-0.687 0.499,-0.66C0.542,-0.632 0.576,-0.591 0.601,-0.538C0.625,-0.485 0.637,-0.42 0.637,-0.344C0.637,-0.263 0.624,-0.199 0.597,-0.152C0.57,-0.104 0.531,-0.066 0.479,-0.039ZM0.156,-0.343C0.156,-0.248 0.173,-0.178 0.207,-0.133C0.24,-0.088 0.287,-0.066 0.346,-0.066C0.473,-0.066 0.536,-0.159 0.536,-0.344C0.536,-0.53 0.473,-0.623 0.346,-0.623C0.286,-0.623 0.239,-0.6 0.206,-0.555C0.173,-0.51 0.156,-0.439 0.156,-0.343Z" style="fill-rule:nonzero;stroke:#fff;stroke-width:0.02px;"/>
        </g>
        <g transform="matrix(86.5689,0,0,86.5689,830.407,263.64)">
            <path d="M0.487,-0L0.408,-0L0.401,-0.082C0.381,-0.049 0.358,-0.025 0.332,-0.011C0.306,0.005 0.274,0.012 0.237,0.012C0.191,0.012 0.155,-0.002 0.129,-0.03C0.103,-0.058 0.09,-0.098 0.09,-0.149L0.09,-0.527L0.182,-0.527L0.182,-0.159C0.182,-0.123 0.188,-0.097 0.201,-0.083C0.214,-0.068 0.234,-0.06 0.263,-0.06C0.314,-0.06 0.358,-0.09 0.395,-0.151L0.395,-0.527L0.487,-0.527L0.487,-0Z" style="fill-rule:nonzero;stroke:#fff;stroke-width:0.02px;"/>
        </g>
        <g transform="matrix(86.5689,0,0,86.5689,882.521,263.64)">
            <path d="M0.493,-0.279C0.493,-0.264 0.492,-0.248 0.491,-0.232L0.155,-0.232C0.159,-0.174 0.174,-0.131 0.199,-0.104C0.224,-0.077 0.257,-0.063 0.297,-0.063C0.322,-0.063 0.346,-0.067 0.367,-0.074C0.388,-0.081 0.411,-0.093 0.434,-0.109L0.474,-0.054C0.418,-0.01 0.357,0.012 0.29,0.012C0.217,0.012 0.16,-0.012 0.119,-0.06C0.078,-0.108 0.057,-0.174 0.057,-0.258C0.057,-0.313 0.066,-0.361 0.084,-0.404C0.101,-0.446 0.127,-0.479 0.16,-0.503C0.193,-0.527 0.231,-0.539 0.276,-0.539C0.346,-0.539 0.4,-0.516 0.437,-0.47C0.474,-0.424 0.493,-0.36 0.493,-0.279ZM0.402,-0.306C0.402,-0.358 0.392,-0.398 0.371,-0.425C0.35,-0.452 0.319,-0.466 0.278,-0.466C0.203,-0.466 0.162,-0.411 0.155,-0.3L0.402,-0.3L0.402,-0.306Z" style="fill-rule:nonzero;stroke:#fff;stroke-width:0.02px;"/>
        </g>
        <g transform="matrix(86.5689,0,0,86.5689,931.433,263.64)">
            <path d="M0.493,-0.279C0.493,-0.264 0.492,-0.248 0.491,-0.232L0.155,-0.232C0.159,-0.174 0.174,-0.131 0.199,-0.104C0.224,-0.077 0.257,-0.063 0.297,-0.063C0.322,-0.063 0.346,-0.067 0.367,-0.074C0.388,-0.081 0.411,-0.093 0.434,-0.109L0.474,-0.054C0.418,-0.01 0.357,0.012 0.29,0.012C0.217,0.012 0.16,-0.012 0.119,-0.06C0.078,-0.108 0.057,-0.174 0.057,-0.258C0.057,-0.313 0.066,-0.361 0.084,-0.404C0.101,-0.446 0.127,-0.479 0.16,-0.503C0.193,-0.527 0.231,-0.539 0.276,-0.539C0.346,-0.539 0.4,-0.516 0.437,-0.47C0.474,-0.424 0.493,-0.36 0.493,-0.279ZM0.402,-0.306C0.402,-0.358 0.392,-0.398 0.371,-0.425C0.35,-0.452 0.319,-0.466 0.278,-0.466C0.203,-0.466 0.162,-0.411 0.155,-0.3L0.402,-0.3L0.402,-0.306Z" style="fill-rule:nonzero;stroke:#fff;stroke-width:0.02px;"/>
        </g>
        <g transform="matrix(86.5689,0,0,86.5689,980.344,263.64)">
            <path d="M0.343,-0.539C0.391,-0.539 0.429,-0.525 0.456,-0.496C0.483,-0.467 0.496,-0.428 0.496,-0.378L0.496,-0L0.404,-0L0.404,-0.365C0.404,-0.402 0.397,-0.429 0.383,-0.444C0.369,-0.459 0.348,-0.467 0.321,-0.467C0.293,-0.467 0.268,-0.459 0.247,-0.443C0.226,-0.427 0.206,-0.404 0.187,-0.374L0.187,-0L0.095,-0L0.095,-0.527L0.174,-0.527L0.182,-0.449C0.201,-0.477 0.224,-0.499 0.252,-0.515C0.279,-0.531 0.31,-0.539 0.343,-0.539Z" style="fill-rule:nonzero;stroke:#fff;stroke-width:0.02px;"/>
        </g>
        <g transform="matrix(86.5689,0,0,86.5689,1032.8,263.64)">
            <path d="M0.238,-0.539C0.274,-0.539 0.306,-0.534 0.335,-0.524C0.364,-0.514 0.391,-0.499 0.417,-0.479L0.378,-0.421C0.354,-0.436 0.331,-0.448 0.31,-0.455C0.288,-0.462 0.265,-0.466 0.241,-0.466C0.211,-0.466 0.187,-0.46 0.17,-0.448C0.153,-0.435 0.144,-0.418 0.144,-0.397C0.144,-0.376 0.152,-0.359 0.169,-0.347C0.185,-0.335 0.214,-0.323 0.257,-0.312C0.316,-0.297 0.36,-0.277 0.389,-0.252C0.418,-0.227 0.432,-0.192 0.432,-0.148C0.432,-0.096 0.412,-0.056 0.372,-0.029C0.331,-0.002 0.282,0.012 0.224,0.012C0.144,0.012 0.078,-0.011 0.025,-0.057L0.074,-0.113C0.119,-0.079 0.168,-0.062 0.222,-0.062C0.257,-0.062 0.284,-0.069 0.305,-0.084C0.325,-0.098 0.335,-0.117 0.335,-0.142C0.335,-0.16 0.331,-0.175 0.324,-0.186C0.317,-0.197 0.304,-0.206 0.286,-0.215C0.268,-0.223 0.242,-0.232 0.207,-0.241C0.151,-0.256 0.111,-0.275 0.086,-0.3C0.061,-0.325 0.048,-0.356 0.048,-0.394C0.048,-0.421 0.056,-0.446 0.073,-0.469C0.089,-0.491 0.112,-0.508 0.141,-0.521C0.169,-0.533 0.202,-0.539 0.238,-0.539Z" style="fill-rule:nonzero;stroke:#fff;stroke-width:0.02px;"/>
        </g>
        <g transform="matrix(86.5689,0,0,86.5689,1074.96,263.64)">
            <path d="M0.2,0.012C0.166,0.012 0.139,0.002 0.12,-0.019C0.1,-0.039 0.09,-0.067 0.09,-0.104L0.09,-0.739L0.182,-0.75L0.182,-0.106C0.182,-0.091 0.185,-0.081 0.19,-0.074C0.195,-0.067 0.203,-0.064 0.215,-0.064C0.228,-0.064 0.239,-0.066 0.249,-0.07L0.273,-0.006C0.251,0.006 0.227,0.012 0.2,0.012Z" style="fill-rule:nonzero;stroke:#fff;stroke-width:0.02px;"/>
        </g>
        <g transform="matrix(86.5689,0,0,86.5689,1101.63,263.64)">
            <path d="M0.45,-0.123C0.45,-0.102 0.454,-0.086 0.461,-0.076C0.468,-0.065 0.479,-0.057 0.494,-0.052L0.473,0.012C0.446,0.009 0.424,0.001 0.407,-0.011C0.39,-0.023 0.378,-0.042 0.37,-0.067C0.335,-0.014 0.282,0.012 0.213,0.012C0.161,0.012 0.12,-0.003 0.09,-0.032C0.06,-0.061 0.045,-0.1 0.045,-0.147C0.045,-0.203 0.065,-0.246 0.106,-0.276C0.146,-0.306 0.203,-0.321 0.277,-0.321L0.358,-0.321L0.358,-0.36C0.358,-0.397 0.349,-0.424 0.331,-0.44C0.313,-0.456 0.285,-0.464 0.248,-0.464C0.209,-0.464 0.162,-0.455 0.106,-0.436L0.083,-0.503C0.148,-0.527 0.209,-0.539 0.265,-0.539C0.327,-0.539 0.373,-0.524 0.404,-0.494C0.435,-0.463 0.45,-0.42 0.45,-0.364L0.45,-0.123ZM0.234,-0.057C0.287,-0.057 0.328,-0.084 0.358,-0.139L0.358,-0.26L0.289,-0.26C0.192,-0.26 0.143,-0.224 0.143,-0.152C0.143,-0.121 0.151,-0.097 0.166,-0.081C0.181,-0.065 0.204,-0.057 0.234,-0.057Z" style="fill-rule:nonzero;stroke:#fff;stroke-width:0.02px;"/>
        </g>
        <g transform="matrix(86.5689,0,0,86.5689,1150.45,263.64)">
            <path d="M0.343,-0.539C0.391,-0.539 0.429,-0.525 0.456,-0.496C0.483,-0.467 0.496,-0.428 0.496,-0.378L0.496,-0L0.404,-0L0.404,-0.365C0.404,-0.402 0.397,-0.429 0.383,-0.444C0.369,-0.459 0.348,-0.467 0.321,-0.467C0.293,-0.467 0.268,-0.459 0.247,-0.443C0.226,-0.427 0.206,-0.404 0.187,-0.374L0.187,-0L0.095,-0L0.095,-0.527L0.174,-0.527L0.182,-0.449C0.201,-0.477 0.224,-0.499 0.252,-0.515C0.279,-0.531 0.31,-0.539 0.343,-0.539Z" style="fill-rule:nonzero;stroke:#fff;stroke-width:0.02px;"/>
        </g>
        <g transform="matrix(86.5689,0,0,86.5689,1202.91,263.64)">
            <path d="M0.503,-0.739L0.503,-0L0.422,-0L0.413,-0.073C0.396,-0.046 0.374,-0.025 0.348,-0.011C0.322,0.005 0.293,0.012 0.261,0.012C0.198,0.012 0.15,-0.013 0.115,-0.062C0.08,-0.111 0.062,-0.178 0.062,-0.261C0.062,-0.315 0.07,-0.363 0.087,-0.405C0.104,-0.447 0.128,-0.48 0.159,-0.504C0.19,-0.527 0.227,-0.539 0.269,-0.539C0.323,-0.539 0.37,-0.517 0.411,-0.474L0.411,-0.75L0.503,-0.739ZM0.281,-0.061C0.309,-0.061 0.333,-0.068 0.353,-0.081C0.373,-0.094 0.392,-0.113 0.411,-0.139L0.411,-0.397C0.394,-0.42 0.375,-0.437 0.356,-0.449C0.336,-0.46 0.314,-0.466 0.289,-0.466C0.248,-0.466 0.217,-0.449 0.195,-0.415C0.172,-0.381 0.161,-0.33 0.161,-0.263C0.161,-0.195 0.171,-0.144 0.192,-0.111C0.213,-0.078 0.242,-0.061 0.281,-0.061Z" style="fill-rule:nonzero;stroke:#fff;stroke-width:0.02px;"/>
        </g>
    </g>
    <g id="Main">
        <g id="Q">
            <g>
                <path id="path7" d="M618.462,367.875L598.663,387.674C598.663,387.674 608.62,397.63 614.596,403.607C617.409,406.42 621.224,408 625.203,408C633.105,408 646.583,408 653.759,408C654.568,408 655.297,407.513 655.606,406.765C655.916,406.018 655.745,405.158 655.173,404.586C645.475,394.888 618.462,367.875 618.462,367.875Z" style="fill:#b52400;fill-rule:nonzero;"/>
                <path id="path11-9-7-5" d="M482,88C482,88 466,88 466,88C438.022,88 415,111.022 415,139L415,301C415,328.978 438.022,352 466,352L546.336,352C569.666,352 592.064,361.278 608.561,377.775" style="fill:none;fill-rule:nonzero;stroke:#b52400;stroke-width:28px;stroke-linecap:round;stroke-miterlimit:4;"/>
                <path id="rect1-2-94-6-8" d="M468,74L468,102L494,102C495.104,102 496,101.105 496,100C496,96.131 496,88 496,88C496,88 496,79.869 496,76C496,74.895 495.104,74 494,74C490.131,74 468,74 468,74Z" style="fill:#b52400;"/>
            </g>
            <g>
                <path id="path7-6" d="M639.671,346.66L619.874,366.463C619.874,366.463 646.888,393.478 656.586,403.176C657.158,403.748 658.018,403.919 658.766,403.61C659.513,403.3 660,402.571 660,401.762C660,394.586 660,381.105 660,373.202C660,369.224 658.42,365.408 655.607,362.595C649.63,356.618 639.671,346.66 639.671,346.66Z" style="fill:#ff9000;fill-rule:nonzero;"/>
                <path id="path6-8-7-6-1-1-2-2-4" d="M512,88L553,88C580.977,88 604,111.022 604,139L604,139L604,294.336C604,317.666 613.277,340.065 629.774,356.562" style="fill:none;fill-rule:nonzero;stroke:#ff9000;stroke-width:28px;stroke-linecap:round;stroke-miterlimit:4;"/>
                <path id="rect1-2-94-6" d="M500,74C498.895,74 498,74.895 498,76C498,79.869 498,96.131 498,100C498,101.105 498.895,102 500,102C503.869,102 526,102 526,102L526,74L500,74Z" style="fill:#ff9000;"/>
            </g>
        </g>
        <g id="B">
            <g>
                <path id="path1-9-1-5-0-4-8-3-2-2-6" d="M171,220L187,220L187,220C210.55,220 232.383,232.605 244.158,253C255.933,273.395 255.933,298.605 244.158,319C232.383,339.395 210.55,352 187,352L14,352" style="fill:none;fill-rule:nonzero;stroke:#00b3e7;stroke-width:28px;stroke-miterlimit:4;"/>
                <path id="rect1" d="M185,206L159,206C157.895,206 157,206.895 157,208C157,211.869 157,220 157,220C157,227.732 163.268,234 171,234C171,234 185,234 185,234L185,206Z" style="fill:#00b3e7;fill-rule:nonzero;"/>
                <path id="rect1-0-6-3-9" d="M0,340C-0,339.47 0.211,338.961 0.586,338.586C0.961,338.211 1.47,338 2,338C5.869,338 28,338 28,338L28,366L2,366C1.47,366 0.961,365.789 0.586,365.414C0.211,365.039 -0,364.53 0,364C0,360.131 0,343.869 0,340Z" style="fill:#00b3e7;"/>
            </g>
            <g>
                <path id="path6-8-7-6-1-1-3" d="M187,190C214.978,190 238,166.978 238,139L238,139M171,190L187,190M56,322L56,139C56,111.022 79.022,88 107,88L187,88C214.978,88 238,111.022 238,139" style="fill:none;fill-rule:nonzero;stroke:#008060;stroke-width:28px;stroke-linejoin:miter;stroke-miterlimit:4;"/>
                <path id="rect1-2" d="M185,176L170.998,176C163.267,176 157,182.267 157,189.998L157,202C157,203.105 157.895,204 159,204C165.406,204 185,204 185,204L185,176Z" style="fill:#008060;fill-rule:nonzero;"/>
                <path id="rect1-0-6-3-91" serif:id="rect1-0-6-3-9" d="M44,336C43.47,336 42.961,335.789 42.586,335.414C42.211,335.039 42,334.53 42,334C42,330.131 42,308 42,308L70,308L70,334C70,334.53 69.789,335.039 69.414,335.414C69.039,335.789 68.53,336 68,336C64.131,336 47.869,336 44,336Z" style="fill:#008060;"/>
            </g>
        </g>
        <g id="T">
            <g>
                <path id="path6-8-7-6-1-1-2-3" d="M315,109L315,109C315,81.022 338.022,58 366,58" style="fill:none;fill-rule:nonzero;stroke:#3662e6;stroke-width:28px;stroke-miterlimit:4;"/>
                <path d="M498,72L498,44C498,44 512,44 512.002,44C515.714,44 519.275,45.475 521.9,48.1C524.525,50.725 526,54.286 526,57.998C526,57.999 526,66.131 526,70C526,70.53 525.789,71.039 525.414,71.414C525.039,71.789 524.53,72 524,72C520.131,72 512,72 512,72L498,72Z" style="fill:#3662e6;"/>
                <path d="M329,337.999L329,352C329,352 329,360.131 329,364C329,364.53 328.789,365.039 328.414,365.414C328.039,365.789 327.53,366 327,366C323.131,366 315,366 314.998,366C311.286,366 307.725,364.525 305.1,361.9C302.475,359.275 301,355.714 301,352.002C301,352 301,337.999 301,337.999L315,338L329,337.999Z" style="fill:#3662e6;"/>
                <path d="M366,58L512,58" style="fill:none;stroke:#3662e6;stroke-width:28px;stroke-miterlimit:1.5;"/>
                <path d="M315,109L315,351" style="fill:none;stroke:#3662e6;stroke-width:28px;stroke-miterlimit:1.5;"/>
            </g>
            <g>
                <clipPath id="_clip1">
                    <path id="path6-8-7-6-1-1" d="M299,109L294,109L294,42L366,42C329.245,42 299,72.245 299,109ZM366,74L366,109L331,109C331,89.8 346.8,74 366,74Z"/>
                </clipPath>
                <g clip-path="url(#_clip1)">
                    <path d="M345,109L345,109C345,81.022 321.978,58 294,58" style="fill:none;fill-rule:nonzero;stroke:#c0c;stroke-width:28px;stroke-linecap:round;stroke-miterlimit:4;"/>
                </g>
                <path d="M331,338L359,338C359,338 359,352 359,352.002C359,355.714 357.525,359.275 354.9,361.9C352.275,364.525 348.715,366 345.002,366C345.001,366 336.869,366 333,366C332.469,366 331.961,365.789 331.586,365.414C331.211,365.039 331,364.53 331,364C331,360.131 331,352 331,352L331,338Z" style="fill:#c0c;"/>
                <path d="M345,351L345,109" style="fill:none;stroke:#c0c;stroke-width:28px;stroke-miterlimit:1.5;"/>
                <path d="M162,72L162,44C162,44 148,44 147.999,44C144.286,44 140.725,45.475 138.1,48.1C135.475,50.725 134,54.286 134,57.999C134,62.379 134,67.316 134,70C134,70.53 134.211,71.039 134.586,71.414C134.961,71.789 135.47,72 136,72C139.869,72 148,72 148,72L162,72Z" style="fill:#c0c;"/>
                <path d="M148,58L294,58" style="fill:none;stroke:#c0c;stroke-width:28px;stroke-miterlimit:1.5;"/>
            </g>
        </g>
    </g>
    <g id="Stops">
        <g>
            <path id="rect1-7-2-80-1-2-97-3-3-6-4-5-6-9" d="M496,72L496,58C496,49.169 503.169,42 512,42C520.831,42 528,49.169 528,58L528,88C528,96.831 520.831,104 512,104L482,104C473.169,104 466,96.831 466,88C466,79.169 473.169,72 482,72L496,72Z" style="fill:#fff;fill-opacity:0.69;"/>
            <path d="M496,72L496,58C496,49.169 503.169,42 512,42C520.831,42 528,49.169 528,58L528,88C528,96.831 520.831,104 512,104L482,104C473.169,104 466,96.831 466,88C466,79.169 473.169,72 482,72L496,72ZM496,74L482,74C474.273,74 468,80.273 468,88C468,95.727 474.273,102 482,102L512,102C519.727,102 526,95.727 526,88L526,58C526,50.273 519.727,44 512,44C504.273,44 498,50.273 498,58L498,72C498,73.104 497.105,74 496,74Z" style="fill:#222223;"/>
            <path id="rect4" d="M515,54C515,55.9 515,60.1 515,62C515,63.657 513.657,65 512,65C512,65 511.999,65 511.998,65C511.203,65 510.44,64.684 509.878,64.122C509.316,63.56 509,62.797 509,62.002C509,60.102 509,55.898 509,53.998C509,53.203 509.316,52.44 509.878,51.878C510.44,51.316 511.203,51 511.998,51C511.999,51 512,51 512,51C513.657,51 515,52.343 515,54Z" style="fill:#3662e6;"/>
            <path id="rect41" serif:id="rect4" d="M515,83.998C515,85.898 515,90.1 515,92C515,93.657 513.657,95 512,95C512,95 512,95 512,95C510.343,95 509,93.657 509,92C509,90.1 509,85.898 509,83.998C509,83.203 509.316,82.44 509.878,81.878C510.44,81.316 511.203,81 511.998,81C511.999,81 512.001,81 512.002,81C512.797,81 513.56,81.316 514.122,81.878C514.684,82.44 515,83.203 515,83.998Z" style="fill:#ff9000;"/>
            <path id="rect42" serif:id="rect4" d="M485,84C485,85.899 485,90.1 485,92C485,93.657 483.657,95 482,95C482,95 481.999,95 481.998,95C481.203,95 480.44,94.684 479.878,94.122C479.316,93.559 479,92.797 479,92.002C479,90.102 479,85.898 479,83.998C479,83.203 479.316,82.44 479.878,81.878C480.44,81.316 481.203,81 481.998,81C481.999,81 482,81 482,81C483.657,81 485,82.343 485,84Z" style="fill:#b52400;"/>
        </g>
        <g>
            <path id="rect1-7-2-80-1-2-97-3-3-6-4-5-6-9-2-0" d="M164,88L164,58C164,49.169 156.831,42 148,42C139.169,42 132,49.169 132,58L132,88C132,96.831 139.169,104 148,104C156.831,104 164,96.831 164,88Z" style="fill:#fff;fill-opacity:0.69;"/>
            <path d="M164,88C164,96.831 156.831,104 148,104C139.169,104 132,96.831 132,88L132,58C132,49.169 139.169,42 148,42C156.831,42 164,49.169 164,58L164,88ZM162,88L162,58C162,50.273 155.727,44 148,44C140.273,44 134,50.273 134,58L134,88C134,95.727 140.273,102 148,102C155.727,102 162,95.727 162,88Z" style="fill:#222223;"/>
            <path id="rect43" serif:id="rect4" d="M151,54C151,55.9 151,60.1 151,62C151,63.657 149.657,65 148,65C148,65 147.999,65 147.998,65C147.203,65 146.44,64.684 145.878,64.122C145.316,63.56 145,62.797 145,62.002C145,60.102 145,55.898 145,53.998C145,53.203 145.316,52.44 145.878,51.878C146.44,51.316 147.203,51 147.998,51C147.999,51 148,51 148,51C149.657,51 151,52.343 151,54Z" style="fill:#c0c;"/>
        </g>
        <g>
            <path id="rect1-7-2-80-1-2-97-3-3-6-4-5-6-9-2-0-5" d="M187,220L187,190C187,181.169 179.831,174 171,174C162.169,174 155,181.169 155,190L155,220C155,228.831 162.169,236 171,236C179.831,236 187,228.831 187,220Z" style="fill:#fff;fill-opacity:0.69;"/>
            <path d="M187,220C187,228.831 179.831,236 171,236C162.169,236 155,228.831 155,220L155,190C155,181.169 162.169,174 171,174C179.831,174 187,181.169 187,190L187,220ZM185,220L185,190C185,182.273 178.727,176 171,176C163.273,176 157,182.273 157,190L157,220C157,227.727 163.273,234 171,234C178.727,234 185,227.727 185,220Z" style="fill:#222223;"/>
            <path id="rect44" serif:id="rect4" d="M174,185.998C174,187.898 174,192.1 174,194C174,195.657 172.657,197 171,197C171,197 170.999,197 170.998,197C170.203,197 169.44,196.684 168.878,196.122C168.316,195.56 168,194.797 168,194.002C168,192.102 168,187.898 168,185.998C168,185.203 168.316,184.44 168.878,183.878C169.44,183.316 170.203,183 170.998,183C170.999,183 171.001,183 171.002,183C171.797,183 172.56,183.316 173.122,183.878C173.684,184.44 174,185.203 174,185.998Z" style="fill:#008060;"/>
            <path id="rect45" serif:id="rect4" d="M174,215.998C174,217.898 174,222.1 174,224C174,225.657 172.657,227 171,227C171,227 171,227 171,227C169.343,227 168,225.657 168,224C168,222.1 168,217.898 168,215.998C168,215.203 168.316,214.44 168.878,213.878C169.44,213.316 170.203,213 170.998,213C170.999,213 171.001,213 171.002,213C171.797,213 172.56,213.316 173.122,213.878C173.684,214.44 174,215.203 174,215.998Z" style="fill:#00b3e7;"/>
        </g>
        <g>
            <path id="rect1-7-2-80-1-2-97-3-3-6-4-5-6-9-2-0-5-2" d="M72,352L72,322C72,313.169 64.831,306 56,306C47.169,306 40,313.169 40,322L40,352C40,360.831 47.169,368 56,368C64.831,368 72,360.831 72,352Z" style="fill:#fff;fill-opacity:0.69;"/>
            <path d="M72,352C72,360.831 64.831,368 56,368C47.169,368 40,360.831 40,352L40,322C40,313.169 47.169,306 56,306C64.831,306 72,313.169 72,322L72,352ZM70,352L70,322C70,314.273 63.727,308 56,308C48.273,308 42,314.273 42,322L42,352C42,359.727 48.273,366 56,366C63.727,366 70,359.727 70,352Z" style="fill:#222223;"/>
            <path id="rect46" serif:id="rect4" d="M60,325C58.1,325 53.898,325 51.998,325C51.203,325 50.44,324.684 49.878,324.122C49.316,323.56 49,322.797 49,322.002C49,322.001 49,321.999 49,321.998C49,321.203 49.316,320.44 49.878,319.878C50.44,319.316 51.203,319 51.998,319C53.898,319 58.102,319 60.002,319C60.797,319 61.56,319.316 62.122,319.878C62.684,320.44 63,321.203 63,321.998C63,321.999 63,322 63,322C63,323.657 61.657,325 60,325Z" style="fill:#008060;"/>
        </g>
    </g>
</svg>
