<?xml version="1.0" encoding="UTF-8" standalone="no"?>
<!DOCTYPE svg PUBLIC "-//W3C//DTD SVG 1.1//EN" "http://www.w3.org/Graphics/SVG/1.1/DTD/svg11.dtd">
<svg width="100%" height="100%" viewBox="0 0 721 720" version="1.1" xmlns="http://www.w3.org/2000/svg" xmlns:xlink="http://www.w3.org/1999/xlink" xml:space="preserve" xmlns:serif="http://www.serif.com/" style="fill-rule:evenodd;clip-rule:evenodd;stroke-linecap:round;stroke-linejoin:round;">
    <g transform="matrix(1,0,0,1,202.298,1111.27)">
        <g id="Main">
            <g>
                <path id="path11-9-7-5" d="M272.702,-840.28L272.702,-678.28" style="fill:none;fill-rule:nonzero;stroke:rgb(181,36,0);stroke-width:28px;"/>
                <g id="path6-8-7-6-1-1-2-2" transform="matrix(-1,0,0,-1,0,0)">
                    <path d="M-272.701,840.28C-272.701,868.257 -295.724,891.28 -323.701,891.28" style="fill:none;fill-rule:nonzero;stroke:rgb(181,36,0);stroke-width:28px;"/>
                </g>
                <path id="path8" d="M323.702,-891.28L339.702,-891.28" style="fill:none;fill-rule:nonzero;stroke:rgb(181,36,0);stroke-width:28px;"/>
                <g id="path6-8-7-6-1-1-3" transform="matrix(-3.82857e-16,-1,1,-3.82857e-16,0,0)">
                    <path d="M891.279,-23.298C891.279,4.68 868.257,27.702 840.28,27.702" style="fill:none;fill-rule:nonzero;stroke:rgb(0,128,96);stroke-width:28px;"/>
                </g>
                <path id="path1-9-1-5-0-4-8-3-5-6-1-7" d="M-146.298,-657.28L-146.298,-840.28" style="fill:none;fill-rule:nonzero;stroke:rgb(0,128,96);stroke-width:28px;"/>
                <g id="path6-8-7-6-1-1-2-2-6-2" transform="matrix(-1,0,0,-1,0,0)">
                    <path d="M146.298,840.28C146.298,868.257 123.276,891.28 95.298,891.28" style="fill:none;fill-rule:nonzero;stroke:rgb(0,128,96);stroke-width:28px;"/>
                </g>
                <path id="path5" d="M-23.298,-891.279L-95.298,-891.28" style="fill:none;fill-rule:nonzero;stroke:rgb(0,128,96);stroke-width:28px;"/>
                <path id="path1-9-1-5-0-4-8-3-2-2-6" d="M-23.298,-627.28L-202.298,-627.28" style="fill:none;fill-rule:nonzero;stroke:rgb(0,179,231);stroke-width:28px;stroke-linecap:butt;"/>
                <path id="path1-9-1-5-0-4-8-3-2-9-1" d="M-39.298,-921.279L121.702,-921.28" style="fill:none;fill-rule:nonzero;stroke:rgb(204,0,204);stroke-width:28px;"/>
                <g id="path6-8-7-6-1-1-2-2-4" transform="matrix(1,0,0,-1,0,0)">
                    <path d="M461.701,840.28C461.701,868.257 438.679,891.28 410.701,891.28" style="fill:none;fill-rule:nonzero;stroke:rgb(255,144,0);stroke-width:28px;"/>
                </g>
                <g id="path6-8-7-6-1-1-2-2-6" transform="matrix(-1,0,0,1,0,0)">
                    <path d="M-272.701,-678.28C-272.702,-650.302 -295.724,-627.28 -323.702,-627.28" style="fill:none;fill-rule:nonzero;stroke:rgb(181,36,0);stroke-width:28px;"/>
                </g>
                <g id="path6-8-7-6-1-1-3-9" transform="matrix(0,1,1,0,0,0)">
                    <path d="M-789.28,-23.298C-789.28,4.68 -812.302,27.702 -840.28,27.702L-840.28,27.702" style="fill:none;fill-rule:nonzero;stroke:rgb(0,128,96);stroke-width:28px;stroke-linecap:butt;"/>
                </g>
                <path id="path3" d="M-39.298,-789.28L-23.298,-789.28" style="fill:none;fill-rule:nonzero;stroke:rgb(0,128,96);stroke-width:28px;"/>
                <g id="path6-8-7-6-1-1" transform="matrix(1,0,0,-1,0,0)">
                    <path d="M172.702,870.28L172.702,870.28C172.702,898.257 149.68,921.28 121.702,921.28" style="fill:none;fill-rule:nonzero;stroke:rgb(204,0,204);stroke-width:28px;"/>
                </g>
                <path id="path1-9-1-5-0-4-8-3-5-6-1" d="M172.702,-870.28L172.702,-627.28" style="fill:none;fill-rule:nonzero;stroke:rgb(204,0,204);stroke-width:28px;"/>
                <g id="path6-8-7-6-1-1-2" transform="matrix(-1,0,0,-1,0,0)">
                    <path d="M-142.702,870.28L-142.702,870.28C-142.702,898.257 -165.724,921.28 -193.702,921.28" style="fill:none;fill-rule:nonzero;stroke:white;stroke-width:32px;stroke-linecap:butt;"/>
                </g>
                <g id="path6-8-7-6-1-1-2-3" transform="matrix(-1,0,0,-1,0,0)">
                    <path d="M-142.702,870.28L-142.702,870.28C-142.702,898.257 -165.724,921.28 -193.702,921.28" style="fill:none;fill-rule:nonzero;stroke:rgb(54,98,230);stroke-width:28px;"/>
                </g>
                <path id="path1-9-1-5-0-4-8-3-2-9" d="M193.702,-921.28L339.701,-921.28" style="fill:none;fill-rule:nonzero;stroke:rgb(54,98,230);stroke-width:28px;"/>
                <path id="path1-9-1-5-0-4-8-3-5-6-1-1" d="M142.702,-870.28L142.702,-627.28" style="fill:none;fill-rule:nonzero;stroke:rgb(54,98,230);stroke-width:28px;"/>
                <g id="rect1-0-6" transform="matrix(-1,0,0,-1,0,0)">
                    <path d="M-158.702,617.28L-158.702,637.28C-158.702,639.488 -160.494,641.28 -162.702,641.28L-182.702,641.28C-184.909,641.28 -186.702,639.488 -186.702,637.28L-186.702,617.28C-186.702,615.072 -184.909,613.28 -182.702,613.28L-162.702,613.28C-160.494,613.28 -158.702,615.072 -158.702,617.28Z" style="fill:rgb(204,0,204);"/>
                </g>
                <path id="rect3710-3-3-1-8-7-2-59-8-5-3-1-6-6-7-3-7-5-1-3-9-4-8-2-7" d="M165.701,-630.28C165.701,-631.388 164.811,-632.281 163.703,-632.281L157.702,-632.281L157.702,-622.281L163.702,-622.281C164.81,-622.281 165.702,-623.173 165.702,-624.28L165.701,-630.28Z" style="fill:white;fill-rule:nonzero;"/>
                <g id="rect1-0-6-3" transform="matrix(-1,0,0,-1,0,0)">
                    <path d="M-128.702,617.28L-128.702,637.28C-128.702,639.488 -130.494,641.28 -132.702,641.28L-152.702,641.28C-154.909,641.28 -156.702,639.488 -156.702,637.28L-156.702,617.28C-156.702,615.072 -154.909,613.28 -152.702,613.28L-132.702,613.28C-130.494,613.28 -128.702,615.072 -128.702,617.28Z" style="fill:rgb(54,98,230);"/>
                </g>
                <path id="rect3710-3-3-1-8-7-2-59-8-5-3-1-6-6-7-3-7-5-1-3-9-4-8-2-7-6" d="M135.701,-630.28C135.701,-631.388 134.811,-632.281 133.703,-632.281L127.702,-632.281L127.702,-622.281L133.702,-622.281C134.81,-622.281 135.702,-623.173 135.702,-624.28L135.701,-630.28Z" style="fill:white;fill-rule:nonzero;"/>
                <path id="rect1-2" d="M-44.713,-803.28L-48,-801.515L-51.648,-797.817L-53.297,-794.696L-53.297,-779.28C-53.297,-777.064 -51.514,-775.279 -49.298,-775.279L-29.297,-775.279C-27.081,-775.279 -25.298,-777.064 -25.298,-779.28L-25.298,-799.279C-25.298,-801.495 -27.081,-803.28 -29.297,-803.28L-44.713,-803.28Z" style="fill:rgb(0,128,96);fill-rule:nonzero;"/>
                <path id="path10" d="M461.702,-840.28L461.702,-678.28" style="fill:none;fill-rule:nonzero;stroke:rgb(255,144,0);stroke-width:28px;"/>
                <path id="path2" d="M369.702,-891.28L410.701,-891.28" style="fill:none;fill-rule:nonzero;stroke:rgb(255,144,0);stroke-width:28px;"/>
                <path id="path2-8" d="M323.702,-627.28L404.038,-627.279" style="fill:none;fill-rule:nonzero;stroke:rgb(181,36,0);stroke-width:28px;"/>
                <g id="path6" transform="matrix(-3.82857e-16,-1,1,-3.82857e-16,0,0)">
                    <path d="M759.28,-23.298C759.28,0.252 746.675,22.084 726.28,33.859C705.885,45.635 680.675,45.635 660.28,33.859C639.885,22.084 627.28,0.252 627.28,-23.298" style="fill:none;fill-rule:nonzero;stroke:rgb(0,179,231);stroke-width:28px;"/>
                </g>
                <path id="path4" d="M-39.298,-759.28L-23.298,-759.28" style="fill:none;fill-rule:nonzero;stroke:rgb(0,179,231);stroke-width:28px;"/>
                <path id="rect1" d="M-49.298,-773.28C-51.514,-773.28 -53.297,-771.495 -53.297,-769.279L-53.297,-754.651L-51.995,-751.269L-48.526,-747.437L-45.821,-745.279L-29.297,-745.279C-27.081,-745.279 -25.298,-747.064 -25.298,-749.28L-25.298,-769.279C-25.298,-771.495 -27.081,-773.28 -29.297,-773.28L-49.298,-773.28Z" style="fill:rgb(0,179,231);fill-rule:nonzero;"/>
                <path id="rect1-2-9" d="M-44.327,-935.28L-45.896,-934.764L-50.377,-931.413L-53.298,-926.694L-53.298,-911.28C-53.298,-909.064 -51.515,-907.279 -49.299,-907.279L-29.298,-907.279C-27.082,-907.279 -25.299,-909.064 -25.299,-911.28L-25.299,-931.279C-25.299,-933.495 -27.082,-935.28 -29.298,-935.28L-44.327,-935.28Z" style="fill:rgb(204,0,204);fill-rule:nonzero;"/>
                <path id="path7" d="M476.164,-611.405L456.365,-591.606L517.702,-530.269L517.702,-569.866L476.164,-611.405Z" style="fill:rgb(181,36,0);fill-rule:nonzero;"/>
                <path id="path7-6" d="M497.373,-632.62L477.576,-612.817L517.702,-572.689L517.702,-612.291L497.373,-632.62Z" style="fill:rgb(255,144,0);fill-rule:nonzero;"/>
                <g id="path6-8-7-6-1-1-2-2-4-0-5-3-3-9-3" transform="matrix(-3.82857e-16,-1,1,-3.82857e-16,0,0)">
                    <path d="M627.279,404.038C627.279,427.368 618.002,449.766 601.505,466.263" style="fill:none;fill-rule:nonzero;stroke:rgb(181,36,0);stroke-width:28px;"/>
                </g>
                <g id="path6-8-7-6-1-1-2-2-4-0-5-3-3-9-0-4" transform="matrix(-1,0,0,1,0,0)">
                    <path d="M-461.701,-684.943C-461.701,-661.613 -470.979,-639.215 -487.476,-622.718" style="fill:none;fill-rule:nonzero;stroke:rgb(255,144,0);stroke-width:28px;"/>
                </g>
                <path id="rect1-2-94" d="M353.702,-931.28L353.702,-911.28C353.702,-909.072 351.909,-907.28 349.702,-907.28L329.702,-907.28C327.494,-907.28 325.702,-909.072 325.702,-911.28L325.702,-931.28C325.702,-933.487 327.494,-935.28 329.702,-935.28L349.702,-935.28C351.909,-935.28 353.702,-933.487 353.702,-931.28Z" style="fill:rgb(54,98,230);"/>
                <g id="rect1-2-94-6" transform="matrix(-1,0,0,1,0,0)">
                    <path d="M-355.701,-901.28L-355.701,-881.28C-355.701,-879.072 -357.494,-877.28 -359.701,-877.28L-379.701,-877.28C-381.909,-877.28 -383.701,-879.072 -383.701,-881.28L-383.701,-901.28C-383.701,-903.487 -381.909,-905.28 -379.701,-905.28L-359.701,-905.28C-357.494,-905.28 -355.701,-903.487 -355.701,-901.28Z" style="fill:rgb(255,144,0);"/>
                </g>
                <g id="rect1-2-94-6-8" transform="matrix(-1,0,0,1,0,0)">
                    <path d="M-325.701,-901.28L-325.701,-881.28C-325.701,-879.072 -327.494,-877.28 -329.701,-877.28L-349.701,-877.28C-351.909,-877.28 -353.701,-879.072 -353.701,-881.28L-353.701,-901.28C-353.701,-903.487 -351.909,-905.28 -349.701,-905.28L-329.701,-905.28C-327.494,-905.28 -325.701,-903.487 -325.701,-901.28Z" style="fill:rgb(181,36,0);"/>
                </g>
                <g id="rect1-0-6-3-9" transform="matrix(-1,0,0,-1,0,0)">
                    <path d="M160.298,647.28L160.298,667.28C160.298,669.488 158.506,671.28 156.298,671.28L136.298,671.28C134.091,671.28 132.298,669.488 132.298,667.28L132.298,647.28C132.298,645.072 134.091,643.28 136.298,643.28L156.298,643.28C158.506,643.28 160.298,645.072 160.298,647.28Z" style="fill:rgb(0,128,96);"/>
                </g>
                <g id="rect1-7-2-80-1-2-97-3-3-6-4-5-6-9" transform="matrix(1,0,0,-1,0,0)">
                    <path d="M187.702,854.28C187.702,862.559 180.981,869.28 172.702,869.28L142.702,869.28C134.423,869.28 127.702,862.559 127.702,854.28C127.702,846.001 134.423,839.28 142.702,839.28L172.702,839.28C180.981,839.28 187.702,846.001 187.702,854.28Z" style="fill:white;fill-opacity:0.69;stroke:rgb(34,34,35);stroke-width:2px;"/>
                </g>
                <g id="rect1-7-2-80-1-2-97-3-3-6-4-5-6-9-2" transform="matrix(1,0,0,-1,0,0)">
                    <path d="M384.701,891.28L384.701,921.28C384.701,929.558 377.98,936.28 369.701,936.28L339.701,936.28C331.423,936.28 324.701,929.558 324.701,921.28L324.701,891.28C324.701,883.001 331.423,876.28 339.701,876.28L369.701,876.28C377.98,876.28 384.701,883.001 384.701,891.28Z" style="fill:white;fill-opacity:0.69;stroke:rgb(34,34,35);stroke-width:2px;"/>
                </g>
                <g id="rect4-8-5" transform="matrix(-1,0,0,1,0,0)">
                    <path d="M-366.701,-895.28L-366.701,-887.28C-366.701,-885.624 -368.046,-884.28 -369.701,-884.28C-371.357,-884.28 -372.701,-885.624 -372.701,-887.28L-372.701,-895.28C-372.701,-896.935 -371.357,-898.28 -369.701,-898.28C-368.046,-898.28 -366.701,-896.935 -366.701,-895.28Z" style="fill:rgb(255,144,0);"/>
                </g>
                <g id="rect4-8-5-9" transform="matrix(-1,0,0,1,0,0)">
                    <path d="M-336.701,-895.28L-336.701,-887.28C-336.701,-885.624 -338.046,-884.28 -339.701,-884.28C-341.357,-884.28 -342.701,-885.624 -342.701,-887.28L-342.701,-895.28C-342.701,-896.935 -341.357,-898.28 -339.701,-898.28C-338.046,-898.28 -336.701,-896.935 -336.701,-895.28Z" style="fill:rgb(181,36,0);"/>
                </g>
                <g id="rect1-7-2-80-1-2-97-3-3-6-4-5-6-9-2-0" transform="matrix(1,0,0,-1,0,0)">
                    <path d="M-24.298,891.28L-24.298,921.28C-24.298,929.558 -31.019,936.28 -39.298,936.28C-47.577,936.28 -54.298,929.558 -54.298,921.28L-54.298,891.28C-54.298,883.001 -47.577,876.28 -39.298,876.28C-31.019,876.28 -24.298,883.001 -24.298,891.28Z" style="fill:white;fill-opacity:0.69;stroke:rgb(34,34,35);stroke-width:2px;"/>
                </g>
                <g id="rect1-7-2-80-1-2-97-3-3-6-4-5-6-9-2-0-5" transform="matrix(1,0,0,-1,0,0)">
                    <path d="M-24.298,759.28L-24.298,789.28C-24.298,797.559 -31.019,804.28 -39.298,804.28C-47.577,804.28 -54.298,797.559 -54.298,789.28L-54.298,759.28C-54.298,751.001 -47.577,744.28 -39.298,744.28C-31.019,744.28 -24.298,751.001 -24.298,759.28Z" style="fill:white;fill-opacity:0.69;stroke:rgb(34,34,35);stroke-width:2px;"/>
                </g>
                <g id="rect1-7-2-80-1-2-97-3-3-6-4-5-6-9-2-0-5-2" transform="matrix(1,0,0,-1,0,0)">
                    <path d="M-131.298,627.28L-131.298,657.28C-131.298,665.559 -138.019,672.28 -146.298,672.28C-154.577,672.28 -161.298,665.559 -161.298,657.28L-161.298,627.28C-161.298,619.001 -154.577,612.28 -146.298,612.28C-138.019,612.28 -131.298,619.001 -131.298,627.28Z" style="fill:white;fill-opacity:0.69;stroke:rgb(34,34,35);stroke-width:2px;"/>
                </g>
                <g id="rect4-4" transform="matrix(-3.82857e-16,-1,1,-3.82857e-16,0,0)">
                    <path d="M660.28,-150.298L660.28,-142.298C660.28,-140.642 658.936,-139.298 657.28,-139.298C655.624,-139.298 654.28,-140.642 654.28,-142.298L654.28,-150.298C654.28,-151.954 655.624,-153.298 657.28,-153.298C658.936,-153.298 660.28,-151.954 660.28,-150.298Z" style="fill:rgb(0,128,96);"/>
                </g>
                <path id="rect4-6" d="M-36.298,-925.28L-36.298,-917.28C-36.298,-915.624 -37.642,-914.28 -39.298,-914.28C-40.954,-914.28 -42.298,-915.624 -42.298,-917.28L-42.298,-925.28C-42.298,-926.935 -40.954,-928.28 -39.298,-928.28C-37.642,-928.28 -36.298,-926.935 -36.298,-925.28Z" style="fill:rgb(204,0,204);"/>
                <path id="rect4-8" d="M342.701,-925.28L342.701,-917.28C342.701,-915.624 341.357,-914.28 339.701,-914.28C338.046,-914.28 336.701,-915.624 336.701,-917.28L336.701,-925.28C336.701,-926.935 338.046,-928.28 339.701,-928.28C341.357,-928.28 342.701,-926.935 342.701,-925.28Z" style="fill:rgb(54,98,230);"/>
                <path id="rect4" d="M-36.298,-793.28L-36.298,-785.28C-36.298,-783.624 -37.642,-782.28 -39.298,-782.28C-40.954,-782.28 -42.298,-783.624 -42.298,-785.28L-42.298,-793.28C-42.298,-794.935 -40.954,-796.28 -39.298,-796.28C-37.642,-796.28 -36.298,-794.935 -36.298,-793.28Z" style="fill:rgb(0,128,96);"/>
                <path id="rect4-9" d="M-36.298,-763.28L-36.298,-755.28C-36.298,-753.624 -37.642,-752.28 -39.298,-752.28C-40.954,-752.28 -42.298,-753.624 -42.298,-755.28L-42.298,-763.28C-42.298,-764.936 -40.954,-766.28 -39.298,-766.28C-37.642,-766.28 -36.298,-764.936 -36.298,-763.28Z" style="fill:rgb(0,179,231);"/>
            </g>
        </g>
    </g>
    <g id="Stops">
    </g>
    <g id="Text--key" serif:id="Text, key">
    </g>
</svg>
