<?xml version="1.0" encoding="UTF-8" standalone="no"?>
<!DOCTYPE svg PUBLIC "-//W3C//DTD SVG 1.1//EN" "http://www.w3.org/Graphics/SVG/1.1/DTD/svg11.dtd">
<svg xmlns="http://www.w3.org/2000/svg" xmlns:xlink="http://www.w3.org/1999/xlink" xmlns:serif="http://www.serif.com/" width="100%" height="100%" viewBox="0 0 660 408" version="1.1" xml:space="preserve" style="fill-rule:evenodd;clip-rule:evenodd;stroke-linecap:round;stroke-linejoin:round;">
    <g id="Logo">
        <g id="Main">
            <g id="Q">
                <g>
                    <path id="path7" d="M618.462,367.875L598.663,387.674C598.663,387.674 608.62,397.63 614.596,403.607C617.409,406.42 621.224,408 625.203,408C633.105,408 646.583,408 653.759,408C654.568,408 655.297,407.513 655.606,406.765C655.916,406.018 655.745,405.158 655.173,404.586C645.475,394.888 618.462,367.875 618.462,367.875Z" style="fill:#b52400;fill-rule:nonzero;"/>
                    <path id="path11-9-7-5" d="M482,88C482,88 466,88 466,88C438.022,88 415,111.022 415,139L415,301C415,328.978 438.022,352 466,352L546.336,352C569.666,352 592.064,361.278 608.561,377.775" style="fill:none;fill-rule:nonzero;stroke:#b52400;stroke-width:28px;"/>
                    <path id="rect1-2-94-6-8" d="M468,74L468,102L494,102C495.104,102 496,101.105 496,100C496,96.131 496,88 496,88C496,88 496,79.869 496,76C496,74.895 495.104,74 494,74C490.131,74 468,74 468,74Z" style="fill:#b52400;"/>
                </g>
                <g>
                    <path id="path7-6" d="M639.671,346.66L619.874,366.463C619.874,366.463 646.888,393.478 656.586,403.176C657.158,403.748 658.018,403.919 658.766,403.61C659.513,403.3 660,402.571 660,401.762C660,394.586 660,381.105 660,373.202C660,369.224 658.42,365.408 655.607,362.595C649.63,356.618 639.671,346.66 639.671,346.66Z" style="fill:#ff9000;fill-rule:nonzero;"/>
                    <path id="path6-8-7-6-1-1-2-2-4" d="M512,88L553,88C580.977,88 604,111.022 604,139L604,139L604,294.336C604,317.666 613.277,340.065 629.774,356.562" style="fill:none;fill-rule:nonzero;stroke:#ff9000;stroke-width:28px;"/>
                    <path id="rect1-2-94-6" d="M500,74C498.895,74 498,74.895 498,76C498,79.869 498,96.131 498,100C498,101.105 498.895,102 500,102C503.869,102 526,102 526,102L526,74L500,74Z" style="fill:#ff9000;"/>
                </g>
            </g>
            <g id="B">
                <g>
                    <path id="path1-9-1-5-0-4-8-3-2-2-6" d="M171,220L187,220L187,220C210.55,220 232.383,232.605 244.158,253C255.933,273.395 255.933,298.605 244.158,319C232.383,339.395 210.55,352 187,352L14,352" style="fill:none;fill-rule:nonzero;stroke:#00b3e7;stroke-width:28px;stroke-linecap:butt;"/>
                    <path id="rect1" d="M185,206L159,206C157.895,206 157,206.895 157,208C157,211.869 157,220 157,220C157,227.732 163.268,234 171,234C171,234 185,234 185,234L185,206Z" style="fill:#00b3e7;fill-rule:nonzero;"/>
                    <path id="rect1-0-6-3-9" d="M0,340C-0,339.47 0.211,338.961 0.586,338.586C0.961,338.211 1.47,338 2,338C5.869,338 28,338 28,338L28,366L2,366C1.47,366 0.961,365.789 0.586,365.414C0.211,365.039 -0,364.53 0,364C0,360.131 0,343.869 0,340Z" style="fill:#00b3e7;"/>
                </g>
                <g>
                    <path id="path6-8-7-6-1-1-3" d="M187,190C214.978,190 238,166.978 238,139L238,139M171,190L187,190M56,322L56,139C56,111.022 79.022,88 107,88L187,88C214.978,88 238,111.022 238,139" style="fill:none;fill-rule:nonzero;stroke:#008060;stroke-width:28px;stroke-linecap:butt;stroke-linejoin:miter;"/>
                    <path id="rect1-2" d="M185,176L170.998,176C163.267,176 157,182.267 157,189.998L157,202C157,203.105 157.895,204 159,204C165.406,204 185,204 185,204L185,176Z" style="fill:#008060;fill-rule:nonzero;"/>
                    <path id="rect1-0-6-3-91" serif:id="rect1-0-6-3-9" d="M44,336C43.47,336 42.961,335.789 42.586,335.414C42.211,335.039 42,334.53 42,334C42,330.131 42,308 42,308L70,308L70,334C70,334.53 69.789,335.039 69.414,335.414C69.039,335.789 68.53,336 68,336C64.131,336 47.869,336 44,336Z" style="fill:#008060;"/>
                </g>
            </g>
            <g id="T">
                <g>
                    <path id="path6-8-7-6-1-1-2-3" d="M315,109L315,109C315,81.022 338.022,58 366,58" style="fill:none;fill-rule:nonzero;stroke:#3662e6;stroke-width:28px;stroke-linecap:butt;"/>
                    <path d="M498,72L498,44C498,44 512,44 512.002,44C515.714,44 519.275,45.475 521.9,48.1C524.525,50.725 526,54.286 526,57.998C526,57.999 526,66.131 526,70C526,70.53 525.789,71.039 525.414,71.414C525.039,71.789 524.53,72 524,72C520.131,72 512,72 512,72L498,72Z" style="fill:#3662e6;"/>
                    <path d="M329,337.999L329,352C329,352 329,360.131 329,364C329,364.53 328.789,365.039 328.414,365.414C328.039,365.789 327.53,366 327,366C323.131,366 315,366 314.998,366C311.286,366 307.725,364.525 305.1,361.9C302.475,359.275 301,355.714 301,352.002C301,352 301,337.999 301,337.999L315,338L329,337.999Z" style="fill:#3662e6;"/>
                    <path d="M366,58L512,58" style="fill:none;stroke:#3662e6;stroke-width:28px;stroke-miterlimit:1.5;"/>
                    <path d="M315,109L315,351" style="fill:none;stroke:#3662e6;stroke-width:28px;stroke-miterlimit:1.5;"/>
                </g>
                <g>
                    <clipPath id="_clip1">
                        <path id="path6-8-7-6-1-1" d="M299,109L294,109L294,42L366,42C329.245,42 299,72.245 299,109ZM366,74L366,109L331,109C331,89.8 346.8,74 366,74Z"/>
                    </clipPath>
                    <g clip-path="url(#_clip1)">
                        <path d="M345,109L345,109C345,81.022 321.978,58 294,58" style="fill:none;fill-rule:nonzero;stroke:#c0c;stroke-width:28px;"/>
                    </g>
                    <path d="M331,338L359,338C359,338 359,352 359,352.002C359,355.714 357.525,359.275 354.9,361.9C352.275,364.525 348.715,366 345.002,366C345.001,366 336.869,366 333,366C332.469,366 331.961,365.789 331.586,365.414C331.211,365.039 331,364.53 331,364C331,360.131 331,352 331,352L331,338Z" style="fill:#c0c;"/>
                    <path d="M345,351L345,109" style="fill:none;stroke:#c0c;stroke-width:28px;stroke-miterlimit:1.5;"/>
                    <path d="M162,72L162,44C162,44 148,44 147.999,44C144.286,44 140.725,45.475 138.1,48.1C135.475,50.725 134,54.286 134,57.999C134,62.379 134,67.316 134,70C134,70.53 134.211,71.039 134.586,71.414C134.961,71.789 135.47,72 136,72C139.869,72 148,72 148,72L162,72Z" style="fill:#c0c;"/>
                    <path d="M148,58L294,58" style="fill:none;stroke:#c0c;stroke-width:28px;stroke-miterlimit:1.5;"/>
                </g>
            </g>
        </g>
        <g id="Stops">
            <g>
                <path id="rect1-7-2-80-1-2-97-3-3-6-4-5-6-9" d="M496,72L496,58C496,49.169 503.169,42 512,42C520.831,42 528,49.169 528,58L528,88C528,96.831 520.831,104 512,104L482,104C473.169,104 466,96.831 466,88C466,79.169 473.169,72 482,72L496,72Z" style="fill:#fff;fill-opacity:0.69;"/>
                <path d="M496,72L496,58C496,49.169 503.169,42 512,42C520.831,42 528,49.169 528,58L528,88C528,96.831 520.831,104 512,104L482,104C473.169,104 466,96.831 466,88C466,79.169 473.169,72 482,72L496,72ZM496,74L482,74C474.273,74 468,80.273 468,88C468,95.727 474.273,102 482,102L512,102C519.727,102 526,95.727 526,88L526,58C526,50.273 519.727,44 512,44C504.273,44 498,50.273 498,58L498,72C498,73.104 497.105,74 496,74Z" style="fill:#222223;"/>
                <path id="rect4" d="M515,53.998C515,55.898 515,60.102 515,62.002C515,62.797 514.684,63.56 514.122,64.122C513.56,64.684 512.797,65 512.002,65C512.001,65 511.999,65 511.998,65C511.203,65 510.44,64.684 509.878,64.122C509.316,63.56 509,62.797 509,62.002C509,60.102 509,55.898 509,53.998C509,53.203 509.316,52.44 509.878,51.878C510.44,51.316 511.203,51 511.998,51C511.999,51 512.001,51 512.002,51C512.797,51 513.56,51.316 514.122,51.878C514.684,52.44 515,53.203 515,53.998Z" style="fill:#3662e6;"/>
                <path id="rect41" serif:id="rect4" d="M515,83.998C515,85.898 515,90.1 515,92C515,93.657 513.657,95 512,95C512,95 512,95 512,95C510.343,95 509,93.657 509,92C509,90.1 509,85.898 509,83.998C509,83.203 509.316,82.44 509.878,81.878C510.44,81.316 511.203,81 511.998,81C511.999,81 512.001,81 512.002,81C512.797,81 513.56,81.316 514.122,81.878C514.684,82.44 515,83.203 515,83.998Z" style="fill:#ff9000;"/>
                <path id="rect42" serif:id="rect4" d="M485,83.998C485,85.898 485,90.1 485,92C485,93.657 483.657,95 482,95C482,95 482,95 482,95C480.343,95 479,93.657 479,92C479,90.1 479,85.898 479,83.998C479,83.203 479.316,82.44 479.878,81.878C480.44,81.316 481.203,81 481.998,81C481.999,81 482.001,81 482.002,81C482.797,81 483.56,81.316 484.122,81.878C484.684,82.44 485,83.203 485,83.998Z" style="fill:#b52400;"/>
            </g>
            <g>
                <path id="rect1-7-2-80-1-2-97-3-3-6-4-5-6-9-2-0" d="M164,88L164,58C164,49.169 156.831,42 148,42C139.169,42 132,49.169 132,58L132,88C132,96.831 139.169,104 148,104C156.831,104 164,96.831 164,88Z" style="fill:#fff;fill-opacity:0.69;"/>
                <path d="M164,88C164,96.831 156.831,104 148,104C139.169,104 132,96.831 132,88L132,58C132,49.169 139.169,42 148,42C156.831,42 164,49.169 164,58L164,88ZM162,88L162,58C162,50.273 155.727,44 148,44C140.273,44 134,50.273 134,58L134,88C134,95.727 140.273,102 148,102C155.727,102 162,95.727 162,88Z" style="fill:#222223;"/>
                <path id="rect43" serif:id="rect4" d="M151,53.998C151,55.898 151,60.102 151,62.002C151,62.797 150.684,63.56 150.122,64.122C149.56,64.684 148.797,65 148.002,65C148.001,65 147.999,65 147.998,65C147.203,65 146.44,64.684 145.878,64.122C145.316,63.56 145,62.797 145,62.002C145,60.102 145,55.898 145,53.998C145,53.203 145.316,52.44 145.878,51.878C146.44,51.316 147.203,51 147.998,51C147.999,51 148.001,51 148.002,51C148.797,51 149.56,51.316 150.122,51.878C150.684,52.44 151,53.203 151,53.998Z" style="fill:#c0c;"/>
            </g>
            <g>
                <path id="rect1-7-2-80-1-2-97-3-3-6-4-5-6-9-2-0-5" d="M187,220L187,190C187,181.169 179.831,174 171,174C162.169,174 155,181.169 155,190L155,220C155,228.831 162.169,236 171,236C179.831,236 187,228.831 187,220Z" style="fill:#fff;fill-opacity:0.69;"/>
                <path d="M187,220C187,228.831 179.831,236 171,236C162.169,236 155,228.831 155,220L155,190C155,181.169 162.169,174 171,174C179.831,174 187,181.169 187,190L187,220ZM185,220L185,190C185,182.273 178.727,176 171,176C163.273,176 157,182.273 157,190L157,220C157,227.727 163.273,234 171,234C178.727,234 185,227.727 185,220Z" style="fill:#222223;"/>
                <path id="rect44" serif:id="rect4" d="M174,185.998C174,187.898 174,192.1 174,194C174,195.657 172.657,197 171,197C171,197 170.999,197 170.998,197C170.203,197 169.44,196.684 168.878,196.122C168.316,195.56 168,194.797 168,194.002C168,192.102 168,187.898 168,185.998C168,185.203 168.316,184.44 168.878,183.878C169.44,183.316 170.203,183 170.998,183C170.999,183 171.001,183 171.002,183C171.797,183 172.56,183.316 173.122,183.878C173.684,184.44 174,185.203 174,185.998Z" style="fill:#008060;"/>
                <path id="rect45" serif:id="rect4" d="M174,216C174,217.899 174,222.1 174,224C174,225.657 172.657,227 171,227C171,227 171,227 171,227C169.343,227 168,225.657 168,224C168,222.1 168,217.898 168,215.998C168,215.203 168.316,214.44 168.878,213.878C169.44,213.316 170.203,213 170.998,213C170.999,213 171,213 171,213C172.657,213 174,214.343 174,216Z" style="fill:#00b3e7;"/>
            </g>
            <g>
                <path id="rect1-7-2-80-1-2-97-3-3-6-4-5-6-9-2-0-5-2" d="M72,352L72,322C72,313.169 64.831,306 56,306C47.169,306 40,313.169 40,322L40,352C40,360.831 47.169,368 56,368C64.831,368 72,360.831 72,352Z" style="fill:#fff;fill-opacity:0.69;"/>
                <path d="M72,352C72,360.831 64.831,368 56,368C47.169,368 40,360.831 40,352L40,322C40,313.169 47.169,306 56,306C64.831,306 72,313.169 72,322L72,352ZM70,352L70,322C70,314.273 63.727,308 56,308C48.273,308 42,314.273 42,322L42,352C42,359.727 48.273,366 56,366C63.727,366 70,359.727 70,352Z" style="fill:#222223;"/>
                <path id="rect46" serif:id="rect4" d="M60,325C58.1,325 53.9,325 52,325C50.343,325 49,323.657 49,322C49,322 49,321.999 49,321.998C49,321.203 49.316,320.44 49.878,319.878C50.44,319.316 51.203,319 51.998,319C53.898,319 58.102,319 60.002,319C60.797,319 61.56,319.316 62.122,319.878C62.684,320.44 63,321.203 63,321.998C63,321.999 63,322 63,322C63,323.657 61.657,325 60,325Z" style="fill:#008060;"/>
            </g>
        </g>
    </g>
</svg>
